<?xml version="1.0" encoding="utf-8"?>
<svg xmlns="http://www.w3.org/2000/svg" viewBox="0 0 307 159"><path d="M66.2 86.1c-2.7 3.4-6.3 5.7-10.6 6.8s-10.1 1.4-17.2.7c-6.3-.8-12.2-3.4-17.8-7.5-7-5.6-10.8-14.2-11.2-25.8 0-9.8 3.2-17.8 9.6-24S33.1 27 42.1 27c6.8 0 12.1 1.4 15.9 4.2 3.9 2.8 6.2 5.8 6.9 8.9 0 1.7-.5 3.2-1.6 4.4s-2.7 1.8-4.8 1.8c-2.5-.1-4.5-1-6-2.8-.9-1.5-1.3-2.9-1-4.4.2-1.9-.6-3.5-2.2-4.9-3.4-1.7-6.6-2.6-9.6-2.6-5 0-9.1 1.7-12.1 5-4 4.5-6.7 10.7-8.2 18.6C18 65.6 21 74.7 28.3 82.4c7 5 13.6 7.3 19.7 6.9 8.6-.4 14.6-2.3 18.2-5.6v2.4zm51.7-64.3v2.5c-2.4.9-3.6 1.9-3.7 3.1v28.9c0 5 .1 8.1.4 9.2.3 1.1.7 1.9 1.3 2.4s1.3.7 2.1.7c1.1 0 2.3-.3 3.7-.9l.8 1.7-14.6 5.5h-2.4v-9.3c-4.2 4-7.4 6.6-9.6 7.6-2.2 1.1-4.5 1.6-7 1.6-2.8 0-5.1-.7-7.1-2.1-2-1.4-3.4-3.2-4.1-5.5-.8-2.2-1.1-5.4-1.1-9.5V38.3c0-2.1-.3-3.5-.8-4.3s-1.3-1.4-2.2-1.9c-1-.4-2.7-.6-5.3-.5v-1.8h17.1v29.3c0 4.1.8 6.7 2.3 7.8s3.4 1.7 5.7 1.7c1.5 0 3.3-.4 5.2-1.1 2-.7 4.3-2.3 7-4.7l-.1-34.9c.7-3.3 4.9-5.3 12.4-6.1zm43.9 31.7c-1.1 5.6-3.4 10-6.8 13s-7.2 4.5-11.3 4.5c-4.9 0-9.2-2-12.8-6.1s-5.5-9.6-5.5-16.5c0-6.8 2-12.2 6.1-16.4 4-4.2 8.9-6.3 14.5-6.3 4.2 0 7.7 1.1 10.4 3.3s4.1 4.5 4.1 6.9c0 1.2-.4 2.2-1.2 2.9s-1.8 1.1-3.2 1.1c-1.9 0-3.3-.6-4.2-1.8-.6-.6-.9-1.8-1.1-3.7-.2-1.8-.8-3.2-1.9-4.2-1.1-.9-2.6-1.4-4.6-1.4-3.1 0-5.6 1.1-7.5 3.4-2.5 3.1-4.2 6.9-5 11.4-.7 6.5.3 11.7 3.1 15.7 2.7 4 6.7 6.3 11.8 7 4-.7 6.9-2.5 8.6-5.6 1.7-1.5 3.4-4 5-7.8l1.5.6zm21-25v30.1c0 2.3.2 3.9.6 4.7s.9 1.4 1.7 1.8c.7.4 2.1.6 4.1.6v1.5H169v-1.5c2.1 0 3.4-.2 4.1-.5.7-.4 1.2-.9 1.6-1.8.4-.8.6-2.4.6-4.7V44.3c0-4.1-.1-6.7-.4-7.9-.2-.9-.6-1.5-1-1.8s-1.1-.5-1.9-.5c-.9 0-1.9.2-3.1.6V33l11.9-4.4h2v-.1zm-4.5-13.2c1.2 0 2.3.4 3.2 1.2.9.8 1.4 1.8 1.4 3 0 1.1-.5 2.1-1.4 2.9-.9.8-2 1.3-3.2 1.3-1.3 0-2.4-.4-3.3-1.3-.9-.8-1.4-1.8-1.4-2.9 0-1.2.4-2.2 1.4-3 .9-.8 2-1.2 3.3-1.2zm29.4 21.5c5.7-6.1 11.1-9.1 16.3-9.1 2.6 0 4.9.6 6.8 1.7 1.9 1.2 3.5 3.1 4.6 5.8.7 1.9 1.1 4.8 1.1 8.7v38.7c0 2.7.3 4.6.8 5.6.4.8 1.1 1.4 2 1.8.9.4 2.8.9 5.8 1.5-11.8 2.1-17.6-.9-17.2-8.9V44.7c0-3.9-.6-6.8-1.7-8.6-1.2-1.8-3.1-2.7-5.9-2.7-4.2 0-8.4 2-12.5 6.1v22.8c0 2.9.2 4.7.5 5.4.5.9 1.2 1.6 2.1 2s2.6.6 5.3.6V72h-24.2v-1.7h1.1c2.5 0 4.1-.5 5-1.6s1.3-3.2 1.3-6.4V46.2c0-5.2-.1-8.4-.4-9.5s-.7-1.9-1.2-2.3c-.5-.4-1.3-.6-2.2-.6-1 0-2.2.3-3.6.8l-.8-1.7 14.7-5.2h2.3v9.1zm70.1 33.7c-5.9 4-9.6 6.4-11.1 7.1-2.3.9-4.8 1.4-7.4 1.4-4 0-7.2-1.2-9.8-3.7-2.6-2.4-3.9-5.6-3.9-9.5-.3-4 .7-7.6 3.1-10.9 2.3-2.8 5.5-5.3 9.5-7.3 4-2.1 10.5-4.4 19.5-7v-1.9c0-2.9-.9-5.3-2.7-7.2-1.8-1.9-4.5-2.9-8-2.9-2.7 0-4.8.6-6.3 1.9-1.5 1.2-2.3 2.7-2.3 4.3l.1 3.2c0 1.7-.5 3-1.5 3.9-1 1-2.3 1.4-3.9 1.4-1.5 0-2.8-.5-3.8-1.5s-1.5-2.3-1.5-4c0-3.2 1.8-6.1 5.5-8.8s8.9-4 15.6-4c5.1 0 9.2.8 12.5 2.3 2.5 1.1 4.3 3 5.5 5.5.8 1.6 1.2 4.8 1.2 9.7v17.6c0 4.9.1 7.9.3 9 .2 1.1.5 1.8 1 2.2s1.1.6 1.7.6c.7 0 1.3-.2 1.8-.5.9-.5 2.5-1.8 5-4v3.1c-4.6 5.6-9.1 8.3-13.4 8.3-2.1 0-3.7-.6-4.9-1.9-1.1-1.2-1.7-3.3-1.8-6.4zm0-3.6V44.1c-6.4 2.2-10.4 3.8-12.2 4.8-4.4 2.7-7.2 5.3-8.5 7.6s-1.9 4.6-1.8 6.8c.7 2.6 1.9 4.8 3.7 6.5 1.8 1.8 3.9 2.6 6.2 2.6 3.2.1 7.4-1.8 12.6-5.5zm-172.1 77.2L89 121.9c-1.2 0-2.2.1-3 .1h-1c-.4 0-.8 0-1.1-.1v13.8c0 3 .3 4.8 1 5.5.9 1.1 2.3 1.6 4.1 1.6h1.9v1.3h-21v-1.3h1.9c2.1 0 3.6-.6 4.4-1.9.5-.8.7-2.5.7-5.2v-30.6c0-3-.3-4.8-1-5.6-.9-1-2.3-1.5-4.2-1.5h-1.9v-1.3h13.9v2.9c5.9-2 10.5-2.7 13.6-2 3.2.6 5.8 2 7.8 4.1s3 4.5 3 7.2c0 2.9-1 5.4-3 7.6-2 2.1-5 3.7-9.1 4.6l17 23c3.1 4 6 6.4 8.5 7.3l3.1.8c-6.3 1.1-11.7-.6-16.3-5.1l-2.6-3zm-21.8-24.3H86c4.7 0 8.2-.9 10.6-2.7 2.4-1.8 3.6-4 3.6-6.8 0-2.7-.8-4.9-2.3-6.8-1.6-1.8-3.9-2.8-7.1-2.8-2.2.3-4.4.9-6.9 1.8v17.3zm34.3-6c.4 2.1 1.2 4.5 2.3 7.2 3.8 5.8 8.6 8.4 14.4 7.9 2.7 0 5.1-.7 7.1-2s3.7-3.6 5-6.9l1.5.8c-.7 3.7-2.6 7.1-5.6 10.2-3.1 3.1-6.9 4.6-11.6 4.6-6.3-.5-11.5-3.6-15.6-9.2-2.6-4.3-3.7-8.9-3.2-14 0-6.4 1.8-11.3 5.5-14.9s8.3-5.3 13.8-5.3c4.7 0 8.5 1.1 11.4 3.3 2.9 2.2 4.3 5.6 4.3 10.2l-29.3 8.1zm.2-3.7l20.1-5.2c-.2-2.3-.5-4-1-5-.7-1.5-1.9-2.7-3.4-3.6S131 95 129.4 95c-2.6 0-4.8.9-6.8 2.6-2 1.8-3.4 5.9-4.2 12.5zm44.2-38.3v20h10.1v2.1h-10.1v35c0 1.7.4 2.9 1.2 3.5s1.8.9 3 .9c1 0 2-.2 3-.6s1.8-1 2.3-1.8h1.8c-1.1 1.9-2.7 3.4-4.7 4.4s-4.1 1.5-6.2 1.5c-1.4 0-2.8-.3-4.2-.8s-2.4-1.2-3.1-2.2c-.7-.9-1-2.4-1-4.4V93.8h-7.1l.1-2.1 6.6-.1v-11c1.8-1.1 3.2-2.2 4.1-3.3 1.2-1 2.6-2.8 4.2-5.5zm26 20.6v7.4c3.1-4.9 6.3-7.4 9.5-7.4 1.5 0 2.7.4 3.7 1.2s1.5 1.7 1.5 2.8c0 .9-.3 1.7-1 2.4-.7.6-1.5 1-2.5 1-.9 0-2-.4-3.2-1.3-1.2-.8-2.1-1.3-2.6-1.3s-1 .2-1.6.7c-1.2 1-2.5 2.6-3.7 4.9v23.4c0 1.8.2 3.2.7 4.1.3.6 1 1.2 1.9 1.6s2.2.6 3.9.6v1.3h-19v-1.3c1.9 0 3.3-.2 4.2-.7.7-.4 1.1-1 1.4-1.8.1-.4.2-1.6.2-3.5v-20.3c0-3.8-.1-6.1-.2-6.9-.2-.7-.5-1.3-1-1.6-.5-.3-1.1-.5-1.8-.5-.8 0-1.8.2-2.8.6l-.4-1.3 11.2-4h1.6v-.1zm33.3 4.9c5 0 9 1.3 11.9 3.8 4.2 4.5 6.3 8.8 6.3 12.7 0 4.3-1.3 8.3-3.9 11.8-2 2.7-5.5 4.7-10.6 6.2-1.9.4-3.5.6-4.9.6-7.9 0-13.7-3.7-17.5-11.1-.8-2.2-1.2-4.4-1.2-6.7v-.5c0-5.2 2.3-9.5 7-12.9 1.9-1.1 4-1.6 6.2-1.5 1.7-1.5 3.9-2.4 6.7-2.4zm-5.6 4.1v.5c0 1.1.8 1.9 2.5 2.6 1-.4 1.8-.6 2.4-.6.9 0 1.5.5 1.8 1.5-.1.7-.5 1.2-1.4 1.4l-1.6.2c-2.5-.1-4.2-1.2-5-3.4l-.3-1.5v-.4c-1.3.4-2.5 1.2-3.6 2.6-1.8 3.1-2.6 6.7-2.6 10.5 0 6 2 10.7 5.9 14 2 1.3 4 1.9 6 1.9 4 0 7.2-1.4 9.7-4.3 2.3-3.5 3.5-7.1 3.5-10.9v-.5c-.2-4.5-1.5-8.5-4.1-11.8-2.4-2.3-5.3-3.6-8.6-3.9-3 0-4.5.5-4.5 1.4l-.1.7zM210 81.6h9.5l4.6 13.1h-1.5L210 81.6z" fill="#fffded"/></svg>