<?xml version="1.0" encoding="utf-8"?>
<svg xmlns="http://www.w3.org/2000/svg" viewBox="0 0 380 172"><path d="M362.4 148.9c-2.1.3-1.3 2.5-1.8 4.1-.9-1.3-.9-2.9 0-4.5.7-.1 1.4-.2 2-.3l-.2.7zM62.7 128c1.2-.1 1.1 1.1 2.6.7-.6-1.1-1.1-2.3-.4-3.7-1.4.4-2 1.5-2.2 3zm300.8 4.7c-1.2 2.9-2.3 6.1-1 9.7.4-.1.7-.1 1-.2v.4c-2.1.3-4.3 1.8-6.2 2.4.2 1.4.4 2.4 0 3-1.5-.3-.3-1.9-.4-3-.3.2-.5.3-.8.5-.8.6-1.6 1.3-2.3 2.1.8-.1 1.3 0 2.4.7-.9.3-1 1.2-1.9 1.5-.7-.2-.9-.7-1.7-.7l-.1.2c-.1.9.4 1.2.8 1.5-.3.3-.7.5-1 .8 0-.3 0-.8.2-1.3-.6.4-1.2 1-1.7 1.6l-.7 1c-.1.2-.2.3-.2.5 1 .7 2 1.4 3.3 1.7 1.2.3 2.5.2 3.7.4 1.1-.1 2.3-.1 3.5-.2-1.6 3.8-3.9 7.2-7 9.8-1.1.9-2.1 1.5-2.1 1.5v4.7H323c.2-.3.3-.6.4-.9.2.3.4.5.8.7 1.3-.3 2.8-.8 3.7-1.7.3-.3.6-.6.6-.9-1.5-1-2.3 0-3.9.5.1-.6.2-1.2.3-1.7-.1-.8.1-1.8.2-2.6 1.6 1 4.6.1 3.6-2-1.2-.5-2.5-.3-3.9.7v-.1c-.1-.1-.2-.3-.3-.4h-.4l-.1.1h-.1c-.1.5-.2.9-.5 1.4-.4-.9-.4-2.3-2.2-1.9-1 1.7.5 3.6 1.9 4.1-.1 1.9-.7 3.5-1.7 4.6h-4c.1-1-.2-2.1-.7-2.8-1.8-.2-2.4 1.4-2.2 2.8h-5.4c-.3-.6-.8-1.1-1-1.7-1.1 0-1.4.8-1.6 1.7h-72.7c-.5-.5-1-1.1-1.4-1.8-.5.1-.9.3-1.3.4h-.6c-.5.2-.9.4-1.3.7 0-.1 0-.2-.1-.3l-.2-.3c-.3-.4-1.1-.3-1.1.3v.4c0 .3.2.5.4.6l-.2.1h-12.3l.1-.2v-.2c.1 0 .2-.1.2-.2.1-.1.1-.2.2-.4 0-.1.1-.2.1-.3 0-.1 0-.3-.1-.4 0-.5-.6-.7-1-.4l-.2.1c-.1 0-.1.1-.2.1-.1.4-.3.7-.8.6 0-1.8-.2-3.5-1.9-3.7-2.1 1.3-.5 4.4 1.4 4.9h-3.6c0-1.9-1.7-4.1-3-1.2.1.4.1.8.2 1.2h-5.4c-.2-.4-.5-.9-.7-1.2-1 0-1.2.6-1.6 1.2H198c-.2-.4-.4-.8-.5-1.2h1.5c.1-2.2-1.4-2.8-3.7-2.6-.6 1.6 1.3 1.3.4 2.2-2.1-.4-2-2.9-4.8-2.6-.9 2.6.9 3.5 2.9 4.2H69.4l-.1-5s-1-.7-2.1-1.8c-7.2-7-10.6-17-10.6-27v-.6c.1 0 .3.1.5.1 1 .2.3-1.4 1.1-1.5.6 2 1.9 3.3 1.9 5.9.9-.1 1.8-.1 1.9.7-.6 3.2 1.8 3.3 2.2 5.6 0 .1.1.3.1.5.2.4.3.8.4 1.2.1.4.3.3.6.1-.3-4.6 1.1-5.4 2.6-8.1.3 1 1.2 1.3 2.6 1.1-.2-2.7 1-4.9-.7-6.3 2.4-1.4.3-5.7-1.5-6.3.4-.8 1.2-1.2 1.5-2.2-2.3-1.5 1.1-2.5.7-4.5-.5-.8-2-.7-2.2-1.9-.9-.2-.8.7-1.9.4-4.3-3.3-5.5 4.7-6.3 8.5 2 .1-.1-1.6 1.9-1.5-.8 2.1 3.2 3.2 4.1 3.7-.3 1.1 1.2 2.3.4 2.6-1.2-1.5-2.4-3.1-4.5-3.7.1 2.6 2.5 5 1.5 7.4-1.1-3.7-2.8-10.4-6.1-8.5 1.3-6.8 4.5-13.2 10.2-17.4 1.2-.9 2.3-1.4 2.3-1.4v-5.7c11.4-1.9 23.6-8.4 29.3-18.8 6.5-11.8 4.1-22.9 1.9-29 .2 0 .5 0 .8-.1 1-1.7-.5-3.6-1.9-4.1 0-.4.1-.7.1-1.1 1.3-1.1 3.7-2.9 6.9-5.2l1.9-1.3c1.8 0 3.6.4 5.3 1.2-1.1 1.3.4 2.4.7 3.3 1.7.1 1.4-1.8 1.9-3-2.4.2-2.2-2.3-3-3.7-.9-.2-1.5-.1-1.9.1l1.4-.9c.2.2.3.3.5.4 1.2-.2 2.1-.7 3-1.1-.1-.4-.3-.8-.5-1.2l1.2-.7c-.3.6-.4 1.4-.3 2.3 1.3-.3 1.6.4 2.2.7.8-1 1.5-2.6.7-4.1-.3 0-.6-.1-.9 0 27.4-16.3 59.5-26.1 91.2-26.1 30.8 0 57.6 8.9 77.3 18.4 0 .6.3 1.1.8 1.6.5-.1.9-.3 1.2-.6l1.4.7c-1.8.6-1.7 3.7-1.1 5.5 2-.1 2.7-2.9 2.1-5l.9.4c.5 2.1 1 4.1 1.5 5.7 1 .8 2.8 2.5 4.1 1.9.5-1.1-.9-2.9-1.1-4.5-.8-.4-1.4-1-2-1.7 9.4 5 19.3 11.1 27.3 17.7-5.7 9-9.6 22.1-4.6 32.2 5.9 12.1 19.7 18.7 32.5 19.7l.3 6.1s1.1.3 2.2 1c6.9 4.1 9.6 12.6 10.3 20.4zM122.6 49.5c-.8-.1-.1-1.6-.8-1.8-2-.1-4.2-.9-4.8 1.1 1.6 1.9 3.8 1.8 5.6.7zm-2.7-5.1c-.5.4-.4 1.3-.4 2.2 3.5 2.7 5.1-2.6.4-2.2z" fill="#fffded"/><path d="M0 0v172h380V0H0zm360.6 148.5c.7-.1 1.4-.2 2-.3l-.2.7c-2.1.3-1.3 2.5-1.8 4.1-.9-1.3-.9-2.9 0-4.5zm-259.4-77c0-.1 0-.1 0 0zm250 99.8H323c.2-.3.3-.6.4-.9.2.3.4.5.8.7 1.3-.3 2.8-.8 3.7-1.7.3-.3.6-.6.6-.9-1.5-1-2.3 0-3.9.5.1-.6.2-1.2.3-1.7-.1-.8.1-1.8.2-2.6 1.6 1 4.6.1 3.6-2-1.2-.5-2.5-.3-3.9.7v-.1c-.1-.1-.2-.3-.3-.4h-.4l-.1.1h-.1c-.1.5-.2.9-.5 1.4-.4-.9-.4-2.3-2.2-1.9-1 1.7.5 3.6 1.9 4.1-.1 1.9-.7 3.5-1.7 4.6h-4c.1-1-.2-2.1-.7-2.8-1.8-.2-2.4 1.4-2.2 2.8h-5.4c-.3-.6-.8-1.1-1-1.7-1.1 0-1.4.8-1.6 1.7h-72.7c-.5-.5-1-1.1-1.4-1.8-.5.1-.9.3-1.3.4h-.6c-.5.2-.9.4-1.3.7 0-.1 0-.2-.1-.3l-.2-.3c-.3-.4-1.1-.3-1.1.3v.4c0 .3.2.5.4.6l-.2.1h-12.3l.1-.2v-.2c.1 0 .2-.1.2-.2.1-.1.1-.2.2-.4 0-.1.1-.2.1-.3s0-.3-.1-.4c0-.5-.6-.7-1-.4l-.2.1c-.1 0-.1.1-.2.1-.1.4-.3.7-.8.6 0-1.8-.2-3.5-1.9-3.7-2.1 1.3-.5 4.4 1.4 4.9h-3.6c0-1.9-1.7-4.1-3-1.2.1.4.1.8.2 1.2h-5.4c-.2-.4-.5-.9-.7-1.2-1 0-1.2.6-1.6 1.2H198c-.2-.4-.4-.8-.5-1.2h1.5c.1-2.2-1.4-2.8-3.7-2.6-.6 1.6 1.3 1.3.4 2.2-2.1-.4-2-2.9-4.8-2.6-.9 2.6.9 3.5 2.9 4.2H69.4l-.1-5s-1-.7-2.1-1.8c-7.2-7-10.6-17-10.6-27v-.6c.1 0 .3.1.5.1 1 .2.3-1.4 1.1-1.5.6 2 1.9 3.3 1.9 5.9.9-.1 1.8-.1 1.9.7-.6 3.2 1.8 3.3 2.2 5.6 0 .1.1.3.1.5.2.4.3.8.4 1.2s.3.3.6.1c-.3-4.6 1.1-5.4 2.6-8.1.3 1 1.2 1.3 2.6 1.1-.2-2.7 1-4.9-.7-6.3 2.4-1.4.3-5.7-1.5-6.3.4-.8 1.2-1.2 1.5-2.2-2.3-1.5 1.1-2.5.7-4.5-.5-.8-2-.7-2.2-1.9-.9-.2-.8.7-1.9.4-4.3-3.3-5.5 4.7-6.3 8.5 2 .1-.1-1.6 1.9-1.5-.8 2.1 3.2 3.2 4.1 3.7-.3 1.1 1.2 2.3.4 2.6-1.2-1.5-2.4-3.1-4.5-3.7.1 2.6 2.5 5 1.5 7.4-1.1-3.7-2.8-10.4-6.1-8.5 1.3-6.8 4.5-13.2 10.2-17.4 1.2-.9 2.3-1.4 2.3-1.4v-5.7c11.4-1.9 23.6-8.4 29.3-18.8 6.5-11.8 4.1-22.9 1.9-29 .2 0 .5 0 .8-.1 1-1.7-.5-3.6-1.9-4.1 0-.4.1-.7.1-1.1 1.3-1.1 3.7-2.9 6.9-5.2l1.9-1.3c1.8 0 3.6.4 5.3 1.2-1.1 1.3.4 2.4.7 3.3 1.7.1 1.4-1.8 1.9-3-2.4.2-2.2-2.3-3-3.7-.9-.2-1.5-.1-1.9.1l1.4-.9c.2.2.3.3.5.4 1.2-.2 2.1-.7 3-1.1-.1-.4-.3-.8-.5-1.2l1.2-.7c-.3.6-.4 1.4-.3 2.3 1.3-.3 1.6.4 2.2.7.8-1 1.5-2.6.7-4.1-.3 0-.6-.1-.9 0 27.4-16.3 59.5-26.1 91.2-26.1 30.8 0 57.6 8.9 77.3 18.4 0 .6.3 1.1.8 1.6.5-.1.9-.3 1.2-.6l1.4.7c-1.8.6-1.7 3.7-1.1 5.5 2-.1 2.7-2.9 2.1-5l.9.4c.5 2.1 1 4.1 1.5 5.7 1 .8 2.8 2.5 4.1 1.9.5-1.1-.9-2.9-1.1-4.5-.8-.4-1.4-1-2-1.7 9.4 5 19.3 11.1 27.3 17.7-5.7 9-9.6 22.1-4.6 32.2 5.9 12.1 19.7 18.7 32.5 19.7l.3 6.1s1.1.3 2.2 1c6.9 4.1 9.6 12.6 10.3 20.4-1.2 2.9-2.3 6.1-1 9.7.4-.1.7-.1 1-.2v.4c-2.1.3-4.3 1.8-6.2 2.4.2 1.4.4 2.4 0 3-1.5-.3-.3-1.9-.4-3-.3.2-.5.3-.8.5-.8.6-1.6 1.3-2.3 2.1.8-.1 1.3 0 2.4.7-.9.3-1 1.2-1.9 1.5-.7-.2-.9-.7-1.7-.7l-.1.2c-.1.9.4 1.2.8 1.5-.3.3-.7.5-1 .8 0-.3 0-.8.2-1.3-.6.4-1.2 1-1.7 1.6l-.7 1c-.1.2-.2.3-.2.5 1 .7 2 1.4 3.3 1.7 1.2.3 2.5.2 3.7.4 1.1-.1 2.3-.1 3.5-.2-1.6 3.8-3.9 7.2-7 9.8-1.1.9-2.1 1.5-2.1 1.5l-.1 4.7zM64.9 125c-.7 1.4-.2 2.6.4 3.7-1.5.4-1.4-.8-2.6-.7.2-1.5.8-2.6 2.2-3zm57.7-75.5c-1.8 1.1-4 1.2-5.6-.7.6-2 2.8-1.2 4.8-1.1.7.2 0 1.7.8 1.8zm-3.1-2.9c0-.9-.1-1.8.4-2.2 4.7-.4 3.1 4.9-.4 2.2zm43 91h1.4c3.2 0 5.6-.6 7.2-1.8 1.6-1.2 2.5-2.7 2.5-4.5s-.5-3.3-1.6-4.5-2.7-1.8-4.9-1.8c-1.5.2-3 .6-4.7 1.2v11.4m15.1 16.3L166.1 139c-.8 0-1.5.1-2 .1h-.7c-.3 0-.5 0-.8-.1v9.3c0 2 .2 3.2.7 3.7.6.7 1.6 1.1 2.8 1.1h1.3v.9H153v-.9h1.3c1.4 0 2.4-.4 3-1.3.3-.5.5-1.7.5-3.5v-20.5c0-2-.2-3.2-.7-3.7-.6-.7-1.6-1-2.9-1H153v-.9h9.5v1.9c4-1.3 7.1-1.8 9.3-1.4s3.9 1.4 5.3 2.8 2.1 3 2.1 4.8c0 2-.7 3.6-2 5.1-1.4 1.4-3.4 2.5-6.2 3.1l11.6 15.4c2.1 2.7 4.1 4.3 5.8 4.9l2.1.5c-4.3.7-8-.4-11.1-3.4l-1.9-2zm8.6-22.8l13.8-3.5c-.1-1.6-.4-2.7-.7-3.3-.5-1-1.3-1.8-2.3-2.4s-2.1-.9-3.2-.9c-1.7 0-3.3.6-4.7 1.8-1.4 1.1-2.4 3.9-2.9 8.3m-.2 2.5c.3 1.4.8 3 1.6 4.8 2.6 3.9 5.9 5.6 9.9 5.3 1.9 0 3.5-.4 4.9-1.3 1.4-.9 2.5-2.4 3.5-4.6l1 .6c-.5 2.5-1.7 4.8-3.8 6.8s-4.7 3.1-7.9 3.1c-4.3-.3-7.9-2.4-10.7-6.2-1.8-2.9-2.5-6-2.2-9.4 0-4.3 1.3-7.6 3.8-10s5.7-3.6 9.5-3.6c3.2 0 5.8.7 7.8 2.2s3 3.8 3 6.9l-20.4 5.4zm30.4-28.2v13.4h6.9v1.4h-6.9v23.4c0 1.2.3 2 .8 2.4s1.2.6 2.1.6c.7 0 1.4-.1 2.1-.4.7-.3 1.2-.7 1.5-1.2h1.3c-.8 1.3-1.8 2.3-3.2 2.9-1.4.6-2.8 1-4.3 1-1 0-1.9-.2-2.9-.5-.9-.3-1.6-.8-2.1-1.4-.5-.6-.7-1.6-.7-2.9v-23.8h-4.8l.1-1.4h4.5v-7.3c1.2-.7 2.2-1.4 2.8-2.2.8-1 1.7-2.2 2.8-4m17.7 13.9v5c2.1-3.3 4.3-5 6.6-5 1 0 1.9.3 2.5.8.7.5 1 1.2 1 1.9 0 .6-.2 1.2-.7 1.6s-1.1.6-1.7.6c-.6 0-1.4-.3-2.2-.8-.8-.6-1.4-.8-1.8-.8-.3 0-.7.2-1.1.5-.8.7-1.7 1.8-2.6 3.3V142c0 1.2.2 2.1.5 2.8.2.4.7.8 1.3 1.1s1.5.4 2.6.4v.9h-13.1v-.9c1.3 0 2.3-.2 2.9-.5.5-.3.8-.7 1-1.2.1-.3.1-1.1.1-2.4v-13.6c0-2.6-.1-4.1-.2-4.6s-.3-.9-.7-1.1c-.3-.2-.7-.3-1.2-.3-.6 0-1.2.1-1.9.4l-.3-.9 7.7-2.7h1.3m14.5-7.3h6.5l3.1 8.8h-1l-8.6-8.8m4.3 13.3v.4c0 .7.6 1.3 1.7 1.7.7-.3 1.2-.4 1.6-.4.6 0 1 .3 1.2 1 0 .5-.4.8-1 .9l-1.1.1c-1.7-.1-2.8-.8-3.4-2.3l-.2-1v-.3c-.9.2-1.7.8-2.4 1.8-1.2 2.1-1.8 4.5-1.8 7.1 0 4 1.3 7.2 4 9.4 1.4.9 2.7 1.3 4.1 1.3 2.7 0 4.9-.9 6.6-2.9 1.6-2.3 2.4-4.8 2.4-7.3v-.3c-.1-3-1.1-5.7-2.8-7.9-1.7-1.5-3.6-2.4-5.8-2.6-2 0-3 .3-3 .9l-.1.4zm3.9-2.7c3.4 0 6.1.8 8.1 2.5 2.9 3 4.3 5.9 4.3 8.5 0 2.9-.9 5.5-2.7 7.9-1.3 1.8-3.7 3.2-7.2 4.1-1.3.3-2.4.4-3.3.4-5.4 0-9.3-2.5-11.9-7.4-.6-1.4-.8-2.9-.8-4.5v-.2c0-3.5 1.6-6.4 4.8-8.6 1.3-.7 2.7-1.1 4.2-1 1.1-1.2 2.6-1.7 4.5-1.7m-106-7.8c-1.9 2.3-4.3 3.8-7.3 4.5-3 .8-6.9.9-11.8.5-4.3-.6-8.4-2.2-12.2-5-4.8-3.8-7.4-9.5-7.7-17.2 0-6.5 2.2-11.9 6.6-16s9.7-6.2 15.9-6.2c4.7 0 8.3.9 11 2.8 2.6 1.9 4.2 3.9 4.7 5.9 0 1.2-.4 2.1-1.1 2.9-.7.8-1.8 1.2-3.3 1.2-1.7-.1-3.1-.7-4.1-1.8-.6-1-.9-1.9-.7-2.9.1-1.3-.4-2.4-1.5-3.3-2.3-1.1-4.5-1.7-6.6-1.7-3.5 0-6.2 1.1-8.3 3.3-2.7 3-4.6 7.1-5.6 12.4-.9 6.9 1.1 13 6.1 18.1 4.8 3.3 9.3 4.9 13.5 4.6 5.9-.3 10.1-1.5 12.5-3.7l-.1 1.6m35.1-42.8v1.7c-1.6.6-2.5 1.3-2.5 2.1v19.3c0 3.3.1 5.4.3 6.1.2.8.5 1.3.9 1.6.4.3.9.5 1.4.5.7 0 1.6-.2 2.5-.6l.5 1.1-10 3.6h-1.6v-6.2c-2.9 2.7-5.1 4.4-6.6 5.1s-3.1 1.1-4.8 1.1c-1.9 0-3.5-.5-4.9-1.4s-2.3-2.2-2.8-3.6c-.5-1.5-.8-3.6-.8-6.3v-13c0-1.4-.2-2.3-.5-2.9-.3-.5-.9-.9-1.5-1.2-.7-.3-1.9-.4-3.6-.4v-1.2h11.7v19.4c0 2.7.5 4.5 1.6 5.2 1 .7 2.3 1.1 3.9 1.1 1 0 2.2-.2 3.6-.7 1.3-.5 2.9-1.5 4.8-3.1l-.1-23.2c.6-2.2 3.4-3.6 8.5-4.1m30 21c-.8 3.7-2.3 6.6-4.7 8.6-2.3 2-4.9 3-7.7 3-3.4 0-6.3-1.4-8.8-4.1s-3.7-6.4-3.7-11c0-4.5 1.4-8.1 4.2-10.9s6.1-4.2 10-4.2c2.9 0 5.3.7 7.2 2.2s2.8 3 2.8 4.6c0 .8-.3 1.5-.8 1.9-.5.5-1.3.7-2.2.7-1.3 0-2.2-.4-2.9-1.2-.4-.4-.6-1.2-.7-2.4-.1-1.2-.5-2.1-1.3-2.8-.8-.6-1.8-.9-3.1-.9-2.1 0-3.9.8-5.2 2.3-1.7 2-2.9 4.6-3.5 7.6-.5 4.3.2 7.8 2.1 10.4 1.9 2.6 4.6 4.2 8.1 4.6 2.8-.4 4.7-1.7 5.9-3.7 1.2-1 2.3-2.7 3.5-5.2l.8.5M227 67.8c.9 0 1.6.3 2.2.8.6.5.9 1.2.9 2 0 .7-.3 1.4-.9 2-.6.6-1.4.8-2.2.8-.9 0-1.7-.3-2.3-.8-.6-.6-.9-1.2-.9-2s.3-1.4.9-2c.6-.6 1.4-.8 2.3-.8m3 8.8v20c0 1.6.1 2.6.4 3.1.3.5.6.9 1.2 1.2.5.3 1.5.4 2.8.4v1h-13.9v-1c1.4 0 2.3-.1 2.8-.4.5-.2.8-.6 1.1-1.2.3-.5.4-1.6.4-3.1V87c0-2.7-.1-4.5-.3-5.2-.2-.6-.4-1-.7-1.2s-.7-.3-1.3-.3-1.3.1-2.1.4v-1.1l8.2-2.9 1.4-.1zm17 5.4c3.9-4.1 7.6-6.1 11.2-6.1 1.8 0 3.3.4 4.7 1.2 1.3.8 2.4 2.1 3.2 3.9.5 1.3.7 3.2.7 5.8v25.9c0 1.8.2 3.1.5 3.8.3.5.7.9 1.3 1.2.6.3 1.9.6 4 1-8.1 1.4-12-.6-11.8-6V87.3c0-2.6-.4-4.5-1.2-5.7-.8-1.2-2.1-1.8-4-1.8-2.9 0-5.7 1.4-8.6 4.1v15.3c0 1.9.1 3.2.4 3.6.3.6.8 1 1.4 1.3.6.3 1.8.4 3.7.4v1.2H236v-1.2h.7c1.7 0 2.8-.4 3.4-1.1.6-.7.9-2.2.9-4.3V88.4c0-3.5-.1-5.6-.3-6.4s-.4-1.3-.8-1.6c-.4-.3-.9-.4-1.5-.4-.7 0-1.5.2-2.5.5l-.5-1.2 10.1-3.5h1.6L247 82m47.7 20.2V87c-4.3 1.5-7.1 2.5-8.3 3.2-3 1.8-4.9 3.5-5.8 5.1s-1.3 3.1-1.2 4.5c.5 1.7 1.3 3.2 2.5 4.3 1.2 1.2 2.6 1.8 4.2 1.8 2.2 0 5.1-1.2 8.6-3.7m0 2.4c-4 2.7-6.5 4.3-7.5 4.7-1.6.6-3.2.9-5 .9-2.7 0-4.9-.8-6.7-2.4-1.8-1.6-2.6-3.7-2.6-6.3-.2-2.7.5-5.1 2.1-7.3 1.6-1.9 3.7-3.5 6.5-4.9 2.7-1.4 7.2-2.9 13.2-4.7v-1.3c0-1.9-.6-3.5-1.8-4.8-1.2-1.3-3-1.9-5.4-1.9-1.8 0-3.2.4-4.3 1.3-1.1.8-1.6 1.8-1.6 2.9l.1 2.1c0 1.1-.3 2-1 2.6s-1.6 1-2.7 1-1.9-.3-2.6-1-1-1.6-1-2.7c0-2.1 1.3-4.1 3.8-5.9s6.1-2.7 10.6-2.7c3.4 0 6.3.5 8.5 1.5 1.7.8 3 2 3.8 3.7.5 1.1.8 3.2.8 6.5v11.6c0 3.3.1 5.3.2 6s.4 1.2.7 1.5c.4.3.7.4 1.1.4.5 0 .9-.1 1.2-.3.6-.3 1.7-1.2 3.4-2.7v2.1c-3.2 3.7-6.2 5.6-9.1 5.6-1.4 0-2.5-.4-3.3-1.3-.9-.7-1.3-2.1-1.4-4.2m-74.1-49.1c.8-.7 2-2 2.9-2.2.9-.3 1.7 0 2.1.5.1.6-.3 1.2-.7.9-.3-.1-.3-.6-.5-.8-.9-.6-1.7.4-2.2.8-.3.3-.7.5-1.1.8-.3.3-.7.7-1.2.7 0-.3.4-.4.7-.7zm8.1.3c.6.4 1.5.5 2.3.6-1.9.7-4.1 0-5.8-.5-.5-.2-1.1-.3-1.5-.5-.5-.2-.9-.5-1.4-.5 0 .4.5.4.7.5 3.2 1.4 7.5 2.2 11.7 1.3 1.5-.4 3-1 3.9-1.7 0 0-.1-.1-.1-.2-1 .6-2 1.2-3.5 1.2-2.3.1-3.6-1.8-5.1-2.4-.8-.3-2.1-.2-2.2.8.1.6.6 1.2 1 1.4zm-23.5-.7c0-.1-.1-.1-.1-.2-.6-.1-1.2.3-1.8.5-1.8.6-4.1 1.2-6.3 1.1.8-.2 1.5-.3 2-.7 1.2-1.2-.1-2.9-1.8-2.1-.6.3-1.3.9-2 1.4-1 .5-2 1.1-3.6.9-1.3-.1-2-.8-3-1.1 3.6 3.2 12.4 2.5 16.6.2zm94.8 6.4c-.7-.5-1.2-1.2-1.9-1.7-2-1.7-4.4-3.3-7.1-4.2-.7-.2-1.5-.5-2.2-.7-5.6-1.4-12.2-.6-17.9.5-2.9.5-5.8.9-8.7 1.4-2.9.5-5.8 1.2-8.6 1.6-6.2.8-12.8.9-19 1-5.8 0-10.8-1-15.2-2.4-.6-.2-1.4-.8-1.8-.8-.7 0-1.7.6-2 1 .5.7 1.6.7 2.2.5.5-.2.8-.6 1.3-.5 0 .4-.5.6-.9.8-1 .5-2.8.5-3.7 0-.6.3-.8 1-1.3 1.4-.2-.4-.3-1.3-.9-1.4-.3 0-.8.3-1.2.4-1.7.3-3.1-.5-4.1-1.4-9.4 3.2-22.3 3.3-33.5 1.7-.8-.1-1.6-.2-2.4-.4-5.9-1-11.5-2-17.5-2.8-1.7-.2-3.4-.5-5.1-.7-1.7-.1-3.5-.4-5.2-.3-1.8.1-3.6.4-5.2.9-4.5 1.2-8.3 3.1-11 5.9-.2.3-.4.7-.8.8.3-.8 1-1.4 1.7-2 3.3-2.9 6.9-5 11.9-6.2 7.2-1.7 15.4-.5 22.5.8 5.1.9 10.2 1.7 15.3 2.4 7.6 1.1 16.1 2.3 24 .8 1.2-.2 2.5-.6 3.6-.9.7-.2 1.5-.4 2.2-.7-.6-.3-1.2-1.1-1.9-1.7-.1 0-.2-.1-.3-.2-.5-.4-1.1-.7-1.7-.6-.6.1-.4.7-.6 1-.6.1-1.1-.6-.9-1.1.2-.4.9-.6 1.6-.5.7.1 1.4.5 2 1 .4-.2 1-.4 1.5-.5 1.1-.3 2.2-.6 3.6-.5.5.1 1.1.5 1.6.4.5 0 .7-.6 1.1-.6.4.1.7.7 1.2.7.3 0 .7-.3 1-.4 1.4-.4 3.1 0 4.2.4.6.2 1.3.3 1.5.8-.4.1-.9-.3-1.4-.5s-1.1-.3-1.7-.3c-2-.2-4.1 1-3 2.8.9-.5 3.1-.5 3.4-1.5.1-.3-.1-.5 0-.7.3 0 .4.1.7.2 0 .5-.8.9-.9 1.4 3.1 1.4 7.1 2.3 11.2 2.6 3.1.2 6.4-.1 9.6-.4 3.1-.3 6.2-.6 9.1-1.1 2.9-.5 5.9-.8 8.9-1.4 5.8-1 11.6-2.2 17.9-2.7 3.3-.2 6.3-.5 9.4 0 1.5.2 2.8.5 4.1.9 1.3.4 2.7 1 3.7 1.5 1.6.6 3.1 1.6 4.4 2.6.9 1.1 2.2 2.2 3.2 3.6zm-89.1-4.4c-.2-.3-1.4-1.1-1.9-1.1-.6 0-1.2.5-1.7.8.8.7 2.8 1.3 3.6.3zm.8-1.7c-.3-2.1-3.4-1.6-5-1.1-.3.1-.5.2-.8.3.6.6 1.2 1.2 1.7 1.6.3-.1.5-.3.8-.4-.2-.4-1-.8-.8-1.2.6-.4.5.3.6.6.2.3 1 .6 1.4.8.6.2 1.2.5 1.8.5.2-.3.3-.6.3-1.1zm2.3-1.5c-.4-.5-1.2-.5-1.6 0-.1.8.4.7.6 1.4.3 1-.5 1.5-.5 2.1.1.8 1 .6 1.2 0 0-.6-.5-.9-.5-1.5 0-.8.6-1.2.8-2z" fill="#75253f"/></svg>