<?xml version="1.0" encoding="utf-8"?>
<svg xmlns="http://www.w3.org/2000/svg" viewBox="0 0 180 62.2"><path d="M92.9 47c.1.1.1.1.2.1l.2.2c-.2-.1-.3-.2-.4-.3zm20.2 11.9c-.2 2.1-2.4 3.5-3.2 2.6.6.2 1.2-.2 1.7-.8-.2.2-.4.3-.8.3.2-.2.3-.4.4-.6-.4.6-1 .8-1.1.9 3.6-4.1-6.8-8.4-8.7-13.6l.1.6v.3c-.1-.3-.1-.6-.1-.9v-.1c0-.1-.1-.3-.1-.4.1 1 0 1.9 0 2.9v.4c.9 2 3.3 4.3 3.9 4.4h-.2c.5.2 1.1.4 1.6.6-2-1.3-4.5-4.1-5.1-6.6.6 2.2 4.4 5.8 5.7 6.8.1 0 .2.1.3.1 2.8 1.2 3.1 4.6 2.1 5.7l.1-.2c.6-1.3 0-4.3-2.6-5-2.3-.6-6.5-2.1-6.6-6.1.6-3.2-.9-8.3-2.7-4.6-.5 3.6-4.6 2.7-5.2 1.3.4.5 1.4.9 2.3.9l.2-.1c.5-.3 1.5-1.4 2.2-1.9 0-.1.1-.3.1-.4v-.1c-.9.8-2.4 1.6-3.3 2l-.3.2.5-.3c.6-.4 2.2-1.8 3.1-2.3.5-1.3 3.2-1.9 3.5.2.1.3.1.6.2 1 0-.2 0-.4.1-.6L101 44l.3 2.4c.1 2 3 5.3 6.3 7.9 1.5 1.4 3.1 2.8 3.7 4.3.2.4.2.8.2 1.1 1.1-4.6-10.9-9.1-9.8-15l-.1-1.4.2 2.5c.3 2 3 5.6 6.5 8 2.2 1.3 3.5 3.5 3.7 5.1.4-4.5-9.2-8.1-9.5-12.8v-.6c0 .5 0 1 .2 1.5.4 2.4 9 7.8 9.8 11.2.2-1.6-.4-2.8-1.3-3.1h.1c1-.2 2.4 1.8 1.8 3.8zm-16-12.5c-.6.6-1.5 1.1-2.1 1.4.9-.1 1.7-.5 2.1-1.4zm4.4 4.8c.2 1 .8 1.7 1.5 2.3-.7-.6-1.2-1.4-1.5-2.3zm10.5 8.6c0 .1-.1.1-.1.2 0 .2-.1.3-.2.5.2-.2.3-.4.3-.7zm-9.6-14.3c0-.2.1-.4.1-.6-.1.2-.1.4-.1.6zm-19.5-32c.2.1.3.2.5.3-.2-.2-.4-.2-.5-.3zM92.3 41c-1.2 1.3-2.9 2.4-5 2.1-4.8-.8-3.8-6.5-2.4-8.8 1.1-2.2 2.5-3.8 3.9-4.7l.4-.4c-.9-.1-1.5-.8-1.7-1.3l-.1.2c0-.1 0-.2.1-.2 0-.1-.1-.2-.1-.2l.1.1c0-.2.1-.4.2-.6h-.1.1c.5-1 2-1.7 3.6-2 .5-.1.9-.4 1.2-.8.5-.9.8-2.2.8-3.4 0-.5-.1-1-.3-1.5-.9-3.7-3.6-5.9-5.9-7 3.2 2.7 3.4 11.5-2.7 16.3.2.1.3.3.3.6.8 2.3-2.2 5.8-5.2 7.8-.5.9-.6 2.2-1.6 3.1-1.1.9-2.6.3-3-.7-1.2-2 .5-3.6 1.6-3.5l-.2.1c-1.2.2-2 1.8-.9 3.3 1.4 1.6 2.8-.1 3.3-2.5-.2.2-.5.5-.6.7l-.3.3.4-.6c.2-.4.7-1.1 1.4-1.8-1.3.8-2.4 1.8-2.4 3.2l-.1.7.1-1.2c-.1-1.2 1.3-2.5 2.8-3.6-.9.5-1.8 1-2.4 1.7-.3.4-.4.8-.5 1.2v-.4c-.1.2-.2.5-.2.8 0-.2-.1-.3-.1-.5-.1.4-.2.8-.1 1.3 0 .1.1.1.1.2v-.6.7l.3.6c-.1-.2-.3-.3-.4-.5v.3-.3c-.2-.3-.2-.6-.2-1-.1-.7.2-1.4.8-2.1.1-.1.1-.2.2-.3.3-.4.6-.7 1-1.1-.8.4-1.8.8-2.7 1.1h.2c-.3.1-.7.3-1.1.4-1.6.9-4.4 1.5-6.5 3.1-2 1.7-3.6 4.8-2.4 6.7-.2-.2-.3-.4-.4-.7-.5-1.3.3-4.9 2.9-6.9-.1 0-.1.1-.2.1-2.5 1.5-4.7 4.8-3.8 7.1-.1-.3-.3-.5-.3-.8-.2-1.3.8-4.6 3.3-6.5-.6.3-1.1.6-1.6 1-1.9 1.6-3 4.5-2.3 6.3l.2.6c.8.3 1.7.5 2.7.5.4 0 .8.1 1.2.2-1-1.3-1.7-4.1.2-6.5 2.3-2.7 5.5-2.9 6.8-3.5-1.1 1-4.2 1.6-6.2 3.9-1.7 2.1-1.2 4.7-.4 6.1.9.2 1.9.6 2.8 1.3.9 2.7-2.5 2.5-3.9 2.3-7.5-1.8-7.5-11-4.2-12.5-.9-.2-1.3-.4-1.9-.1 0-.2.1-.3.3-.4.3-.9 1.3-2.4 3.1-3.2-.7-.5-1.4-1.6-1.7-2.5-.8-.9-2.1-.8-2.4-.4.1 0 .2.1.3.1.4-.1 1-.2 1.5.3.6.8.4 1.6.2 2 0 .1 0 .1-.1.2v.1c-.2.5-.9 1.4-2 2-.6.3-1.2.2-1.7.1.6.3 1.2 1.3.8 2.4-.3 1.4-1.9 1.6-2.4 1.1-.2 0-.3 0-.3-.1 1-1.7-.7-2.4-3.4-3.6-2-1.6-1.2-4.1 0-4.7-1-2.1 0-5.1 2.3-6.7 4-2.7 8-1.2 10.3.8v-.1c-.3-1-.1-2.6 1.2-3.5 1.6-1.7 4.1-1.7 4.7-.8h-.1c-.2-.1-.5-.1-.7-.1.1 0 .1.1.2.2-2.6-.1-4.2 4.1-2.7 7.1 2 2.8 5.8 4.4 8.5 4l1.3-.2-2.1.7c-1.7 0-6.4-.9-8.5-4.8-1.1-2.7.2-4.9 1.5-6h-.2c-.4.2-.8.5-1.2.9l-.5.5c-.5.9-.6 2.1-.4 3.3l.1.1h-.1c0 .1 0 .2.1.3.4.6.7 1.1.8 1.6l-.1-.2c-.1-.2-.2-.5-.4-.7.3.7.7 1.3 1.2 1.9 2.4 2.6 6.3 4.7 9.1 3.7l1.3-.4c-.8.3-1.6.6-2.4.7-1.9.5-6.6-1-9.2-4.5-.2-.3-.4-.5-.5-.8-.1 0-.2-.1-.3-.2.1 0 .2.1.3.1-.4-.6-.6-1.2-.6-1.8-2.2-1.9-6.1-3.2-9.9-.7-2.1 1.4-3 4.1-2.2 5.9.2 0 .3 0 .5.2H54c.1.1.1.3.2.4 1.4 1.7 3.8 1.4 5.1 1.5-1.2 0-3.6.7-5.5-1.2-.2-.2-.3-.4-.4-.5-.2.1-.3.3-.4.5l.8.8c.8 1.1 4.1.5 6.3.5l.2-.2c-.8-.2-1.7-.2-2.4-.1h-.3l.5-.1c.3-.2 1.2-.3 2-.2 0 0 .1-.1.2-.1-.8-.2-1.7-.4-2.4-.2h-.3l.5-.1c.2-.1.5-.2.8-.2v-.2c-.5 0-1 0-1.4.1l-.3.1.4-.1c.1-.1.2-.1.4-.2H57.1l.5-.1c.2-.1.7-.2 1.2-.2h-1v0c-.3 0-.6.1-.9.2l.1.3.2-.1.2-.1c.1-.2.4-.3.7-.4v-.5.5c.2-.1.4-.1.7-.2.1 0 .2-.1.3-.1v-.2c.1-1.2 2.8-1.6 4.5-.2l-.3-.3c-1.3-1.6-4.6-1.8-5.1 0 0-.1 0-.1.1-.2.2-1.5 4.1-1.9 5.8.4 1.2 1.7 2.8 2.5 3.7 2.9 1-.1 1.9 0 2.6.1-2-.6-4.2-2.5-6-4.2-2.1-2.1-6.3-2.7-7.4-.5.5-2.4 5.8-1.8 8.4.9 2.7 3.1 6.2 4.1 7 3.9-.5.1-1 .1-1.5 0-1.1.3-3.1.3-5.3.8-2.1.5-3.4 1.8-4.1 2.7.6-.3 1.7-.2 2.3 0 1.3.2 2.2-.1 2.8-.2-.1.1-.4.3-.6.4h.6c.2-.1.5-.1.7-.2.1-.1.2-.1.3-.1h-.3l-1 .2 1.7-.4c1.2-.5 2.4-.7 3.2-.8.4-.1.7-.2 1.1-.3 1.8-.6 3.8-1.4 5.5-2-4.3 1.4-9.6 1.9-12.8 2.5l-1.3.5 2.3-1c1.7 0 5-.7 8.4-1.8-3.7.6-7.6.8-10 1.7l-1.4.9 2.3-1.2c1.6-.7 5.3-.8 8.9-1.6-3.1-.1-6.5-3.3-9.6-5.9-2.8-2.9-9.3-2.1-9.5 1.2-.5-3.3 7.3-4.6 10.9-.6 3.2 3.3 6.9 5 8.8 5.2l1.2-.3c2.6-.6 4.7-1.8 6.1-2.8-2.1.9-5.1 1-7.7.4-4.4-.9-6.5-6.3-4.3-8.8l.5-.4c-.4.4-.8.8-1 1.4-1.3 1.9 1.3 7.2 6.1 7.3 3.1.4 5.9-.3 7.5-1.1-.2 0-.3.1-.5.1-3.3 1.4-7.2.8-9.5-1-2.7-2.4-3.1-6.4-1.1-7.6-1.8 1.3-1.2 4.8 1.3 7 2.3.5 6.5-.9 7.5-5.4 1.3-4.3-.9-8-3-9.1.1.4 0 .9-.4 1.4-1.1 1.1-2.5 1.2-3.2 1 .6-.3 1.7-.7 2.6-1.5.9-.9-.2-1.8-.6-2.3.3-.1 1.2.5 1.5 1.3 2.1.6 4.8 4.2 4 8.5.3-1.5.4-3.2-.2-4.8-1.3-3.8-4.8-5.7-5.5-5.9 2.4.3 5.3 3.2 6.1 6.8.4 2.3-.2 4.6-1.2 6.3-.7 1.5-1.7 2.6-2.9 3.3l-.3.2.2-.2c-1.5.9-3.2 1.1-4.4.7.2.1.4.3.7.4.8.1 1.6.2 2.4.2l.2-.1c-.2 0-.3.1-.4.1.2 0 .3-.1.5-.1l1.5-.7c.3-.1.6-.2.9-.4-.7.5-1.4.9-2.1 1.1h-.1c.2-.1.5-.1.7-.2-.3.1-.5.1-.8.2l-.3.1h.2-.1.7c.6-.1 1.2-.3 1.7-.5.8-.5 1.8-1.1 2.7-1.9 2.2-2.6 3.2-7 1.9-10.6-1.7-3.8-5-5.8-8.6-6.7 2.3.7 4.5 1.9 6.3 3.7 3.4 3.8 2.6 9.2.2 12.7 2-3.3 3.4-10.1-1.9-13.6-4-3.1-8.6-3.3-11.4-2.9-.7.1-1.4.3-2 .5h-.1c-.5.2-1 .4-1.5.7l.9-.3c.1-.1.3-.2.5-.3-.2.1-.3.2-.5.3 3.8-1.1 9.5.3 9.7 4.3l-.1.4c.1-.4 0-.8-.1-1.3-.3-1.4-3.4-4.2-6.8-3.5-2.8.2-5.1 1.3-5.9 2.1.2-.3.4-.7.7-.9l-1.7 1.1h.9l.1-.1v.1c.2 0 .4 0 .5.1 1.5-.9 3.7-2.2 6.7-2.1 3.8.6 6.4 4.8 4 5.9l.1-.1c1.7-1.4-1.1-4.3-4.2-5-2.4-.2-4.4.8-6 1.4 4.1.7 5 6 2.8 6.4-.1.2-.3.3-.5.4 1.4-2.6-4.1-4.1-6.7-2.4-3.4 1.4-6.2 4.2-8.7 7.5-5.2 6.5-13.2 10.2-19 11.4-.9.2-1.7.4-2.6.5-5.2 1.8-10.3 1.2-12.7.1 4.2 1.4 14.3 1.3 21-6.6 5.9-7.7 3.6-17.8-1.3-19.3 5.4 1 8 11.9 1.9 19.8-1.2 1.5-2.6 2.7-4 3.6.4-.2.8-.5 1.2-.7 3.8-1.4 12.4-13.3 4.6-21.8-3.4-3.5-9.8-3.7-11.9-.4-1.9 2.7-2 5.4-2.1 6.7.2-.2.5-.4.8-.6 0-.7 0-1.6.1-2.6-.5 1.3-.6 2.4-.7 2.7-.2-2.3 1.3-7.2 5.6-7.8 1.3 0 2.4.3 3.4.9.2 0 .3.1.4.2.2 0 .3.1.5.1h-.3c.4.2.8.5 1.1.9 2.5 1.2 3.7 6.2 3.4 8.6v.7-1.3c.2-1-.4-3-1.3-4.8.5 1.1.8 2.3.9 3.2l.1.6-.3-1.1c0-.8-.5-1.9-1.2-3.1.3.7.6 1.3.7 1.9l.4 1.4c-.2-.8-.5-1.6-.8-2.4-.1-.3-.2-.6-.4-1-.6-.9-1.3-1.8-1.9-2.5-1.4-1.4-3.4-2.4-5.8-1.7-.1 0-.1.1-.2.1 2.4-.2 4.7.9 6 2.4-1.3-1.5-4.3-2.8-6.8-1.8-.1.1-.2.2-.3.2.1 0 .2-.1.4-.1 4.2-.8 7.3 2.3 7.5 4.3.7.7 1 1.5 1 2v-.1c-.2-.4-.5-.8-1-1.2.3.4.7.8.9 1.2 1.4 1.2 2.4 3.1 1.8 5.1-.2 4.9-4.2 8.1-6.4 10.4l-1.3 1c.8-.6 1.6-1.1 2.2-1.9 1.4-1.6 5.6-5.7 4.9-10.7-.2-2.6-1.9-3.9-3.5-4.4 1.6 1.1 3.2 3.3 2.7 5.2-.1 4-2.4 7.5-4.4 9.1l.1-.1c-2.2 3.8-6.6 5.6-9.5 5.7L23 37l2.7-.4c1.8-.3 5.7-2.2 7.7-5.7-.3.4-.6.7-.9.9l-.3.2.2-.2.1-.3c-2.5 3.2-6.4 4.9-9.2 5.1l-1.6.2 2.9-.4c2-.5 7.1-3.1 8.7-7.7.6-2.1.2-4.5-1-5.6h-.6c0 .1 0 .1.1.2.9.6 1.9 2 1.7 3.1.2 2.3-1.2 4.7-3.1 6.2-3.9 3-8.9 4.3-12.4 3.9l-1.7-.1 3.1.1c2.3 0 8-1.5 11.6-5.3 2.5-2.3 2-5.3 1.1-6.9.5 1 .6 2.7 0 3.7-1.1 2.4-3.2 4.6-6 6.3-6.1 2.8-12.6 2.3-14.4-.3l.2.2c2.2 2.2 8.1 1.9 13.5-.5 2.7-1.6 4.7-3.7 5.9-5.8.9-1.4.5-4.2-.5-4.2-.1.3-.3.6-.6.8 0 0 0 .1.1.1l-.1-.1c-.1-.2-.2-.4-.2-.5v-.2c0-.6.7-1.2 1.4-1.4.9-.4 2.2-.3 3.1.8.9.7 1.3 1.6 1.3 2.4.4-1.2.7-2.8.5-4.7 0-2.9-2.4-3.5-3.6-3 0-.1.1-.1.1-.1 0-.1-.1-.2-.1-.3l-.1.1v-.2-.2c-.3-.8.2-3.2 2.5-3 .8.1 1.5.4 2 .8-.8-1.8-3.7-4-7.1-3.4-2 .2-2.1 2.1-2.2 3.7.2.5.3 1.2.1 1.9-.5 1.1-1.3 1.4-1.9 1.4-.1.2-.3.3-.6.3h-.1c-.2-.3-.1-.5.1-.7-.2-.1-.3-.4-.5-.6-.1 1.8-3.1 1.8-3.8.2-1.9-3.5 1-6.3 2.3-6.7 1.3-1.2 2.9-1.3 3.9-1.2-3.4-.5-7.7 5.7-4.2 8.2l.4.2c.5-.1.9-.4.9-1 0-.7-.4-1.3-.9-1.3v.4c-.1 0-.3-.2-.4-.4-.1.1-.2.1-.2.3 0-.2.1-.3.1-.4-.2-.3-.3-.7-.2-1.1.3-.8.9-1.2 1.3-1.2-.1.4-.4.8-.5 1.4-.1.3-.1.5-.1.7.4 0 .9.2 1.2.7.3 0 .6.3.8.7.1.4.1.7 0 1l.2-.2c-.2-1.6-.1-3.6.7-5.5-.4.3-1 .7-1.5 1.3-.5.9-.3 1.8-.4 2.4-.3-.4-.9-1.5-.3-2.7.4-.6 1-1 1.5-1.1h.2-.2c-.4.2-.8.3-1.1.5l-.1.1.2-.2c0-.1.1-.2.2-.3-.6.3-1.3.8-1.5 1.3l-.2.2.2-.4c0-.2.1-.4.3-.6-.4.4-.8.8-1 1.1l-.2.3.4-.5c.2-.7 2.4-2.8 3.4-2.6.3-.1.6-.1.7-.1.2-.4.5-.7.8-1 .2-.1-.1-.2-.3-.2.3.1.6.1.7.2.2-.3.5-.5.8-.7-1.2.1-3.7-.6-4.7.6l-.3.2.5-.4c.5-1.1 4.2-1 4.6-.4l.9-.6c-1.7-.3-5.8-1.1-6.8 1.1l-.2.5.3-.9c.7-1.8 6.2-1.6 6.8-.8 0 0 .1 0 .1-.1 1-.4 2.2-.6 3.3-.6-.2 0-.3-.1-.5-.1-1.1-.1-2.4-.3-3.5-.5h-.3.2c-.2 0-.4-.1-.6-.1.1 0 .1.1.2.1-.2-.1-.5-.1-.7-.2-.6 0-1.4 0-2.2-.3-1 0-2.1.1-3.2.7-2.7 1.5-1 4.6.5 3.3-.3.6-1.8 1-2.4-.4-.5-1.2.2-2.8 1.5-3.6.9-.5 1.8-.7 2.6-.7-.3-.3-.6-.6-.9-1.1-.5-2.1 1.1-3.7.7-4.2-.2-.1-.4-.1-.5-.2h-.2.1c.6-.2.9-.1 1 .1 1.2.1 2.8.2 4 1.7 1.4 1.8 3 3.6 5.8 4.2 3.4.8 6.8 2.7 8.2 4.8-.3-.6-.3-1.3-.3-2.1 1.4-1.6 3.2-1.9 3.8-2.6 0-.9-.1-1.5-.3-1.8 2.6 2.5.2 8.9-1.9 11.1l-.5.7.8-1.2c1.3-1.3 2-5.5 2-8.3-.4.4-.9.7-1.3 1 .7 1.5-.3 4.4-.9 5.9l-.1.4.1-.7c.3-1 .1-4.6.7-5.4-.4.2-.7.4-1 .6.6.8.2 2.6-.2 3.3l-.1.2v-.4c.2-.6-.3-1.9-.3-2.7l-.2.2c-.2 1.8 1.1 4.7-.5 5.3.1-.1.2-.2.2-.3v-.2c.9-2.7-2.8-5.1-7.1-6.6.1 0 .1.1.2.2l.1.1-.2-.1c.4.2.7.4 1 .6l.1.1h.6l-.3-.1.1.1-.1-.1h-.2c3.1 1.3 6 3.2 5.7 4.5-1.1-2-4.3-3.8-7.4-4.9-.1 0-.1 0-.2.1 2.7.7 5.2 2.5 6.5 5 4.6 8.9-2.3 18.5-8.4 21-.4.3-.8.5-1.2.7.6-.1 1.2-.3 1.8-.5l-.6.3-1.3.2c-1.1.6-2.1 1.1-3.2 1.4 1.7-.2 3.2-.8 4.8-1.2 3.9-1 12.6-5.5 17.8-13 1.8-2.3 4.1-4.3 6.5-5.4l1-.8c.9-.4 3.2-1.3 5.5-.8 2.9.2 3 3.6 2.1 3.6 1-3.3-5.8-4-8.1-2.4l-.6.4c1.3-.6 2.5-1 3.8-1.1 3.2-.2 5.2 2.3 4.7 3.4.8-.5.9-1.7.4-2.9v.3c-1.4-2.7-7.1-1.8-9.4.2l-.6.5 1-.9c.8-.6 2.8-2 5.1-2.2-.9-.2-1.8-.2-2.6 0-.2.1-.3.1-.5.2s-.4.2-.5.3l-.4.2.7-.4c-.7.3-1.4.7-1.8 1.2l-.5.5.8-.9c.4-.4 1.4-1.2 2.6-1.7-2.3.4-4 1.8-4.5 3l.1-.1c.2-1.5 2.4-3.4 5.3-3.7.7-.5 1.4-.9 2.2-1.4.2-.1.4-.2.6-.4.6-.3 1.1-.6 1.7-.8 2.4-1.7 11.5-2.2 16.2 3.2.1 0 .2.1.2.1-.1 0-.1-.1-.2-.1 1.1 1.3 2 3 2.5 5.1 0 .2 0 .5.1.7 0-2.2-.5-4.3-1.8-5.4.3.2.5.4.7.7.1.2.3.4.4.7l1 1.3c.4 1.3 1.1 4.9-.4 8-.1.5-.4 1-.8 1.5 0-.1.1-.1.1-.2l.2-.2-.2.4c-.1.2-.3.5-.6.9.3-.2.5-.4.7-.6l.2-.2-.3.4c-.1.2-.3.4-.6.7.5-.5 1-1 1.5-1.6 2-3.7 2.2-8.8.3-11.5.3.3.5.7.7 1 .8 1.9 1.7 7.7-1.5 11.7l-.3.3c.2-.2.5-.3.7-.5l.3-.2-.4.4c0 .1-.1.1-.2.2l.2-.1-.5.1-.1.1.2-.1-.2.2c-.3.3-.7.7-1.2 1.1 1-.6 2-1.3 2.8-2.3 2.3-3.2 2.7-7.8 1.7-10.5l-.6-1.5 1.1 2.4c.1 1.8.5 6.8-2.4 10.2l.1-.1c4.1-5 3.6-12.2.7-14.2-.7-.3-1.3-.5-1.7-.6h.4c.4 0 .8.1 1.1.3 1 .3 2.1.8 3.2 1.6-2.7-2.2-5.9-2.6-6.5-2.5 2.9-.5 7.5 1.6 9.5 5.7.4.6.7 1.3.9 1.9.1.2.2.5.2.7 0 .1 0 .2.1.3-.1-1.9-.8-3.8-2.4-5.4-3.4-4.1-8.8-3.6-9.7-4 2.9-.2 8.1.7 10.7 4.8 1.4 1.7 1.8 3.7 1.6 5.6v.7c.1-.7.2-1.4.1-2.1-.2-1.8-.8-3.3-1.4-4.4-.3-.4-.6-.8-.9-1.1-3.8-4.1-9.5-4-10.4-4.2 1.7-.1 4.1.1 6.5 1-6.2-3-13.4-4-19.3-2.7-.2 0-.4.1-.5.1-1.6.4-3.1 1-4.4 1.8.3-.2.6-.4 1-.6.4-.3 1-.5 1.6-.8h-.2l.4-.1c.1-.1.3-.1.4-.2l.6-.3h-.3c-.2 0-.3.1-.5.1-3.3 1.5-6.8 4-8.9 5.9l-.8.7 1.4-1.2c.6-.7 1.8-1.8 3.4-2.8-.9.5-1.6 1-2.3 1.5l-.5.4.9-.7c.2-.2.6-.5 1.1-.9-1.4 1-2.8 2.1-3.7 3l-.6.5 1-.9c.4-.6 1.5-1.6 2.8-2.6-1.1.8-2.2 1.6-2.8 2.5l-.5.5.8-.9c.2-.4.7-.9 1.3-1.4-.6.4-1.2.9-1.7 1.3.5-.8 1.8-1.7 3.4-2.6.6-.4 1.3-.9 1.9-1.3-2.4 1-4.6 2.4-5.9 4.1l-.7 1 1.2-1.8c1.2-1.1 4.3-3.5 7.8-4.7.4-.1.7-.2 1.1-.3h.1c-3.2.7-6 1.9-8.1 3.6 1.4-1.5 4.5-3 8.3-3.9H66.2h.3c.1 0 .4-.1.7-.1.1 0 .3-.1.5-.1.1.3.3.3.5.4.2-.1.4-.1.6-.1-3.1.1-6 .7-8.2 2.1 1.6-1.6 5.6-2.3 9.9-2.4 1.4-.1 2.8-.2 4.3-.1 1.2.1 2.3.3 3.5.4 2.2.1 4.3.2 6 .1 2.3-.4 2.1-2.2 1.6-2.9h-.2-.1l.1.1v-.1.1C87.1 5.7 84.3 7 82.6 7c-2 .2-4.2-.3-6.4-.5-2.9-.3-5.9-.7-8.4-.6-.8.1-1.6.3-2.3.6-2.5.6-4.3 1.9-5.9 3.4.3-.3.7-.6 1.1-.9l-.2.2c-.4.3-.7.6-1.1.9-.6.6-1.2 1.3-1.8 1.9.1-.1.3-.3.5-.4-.3.2-.5.5-.7.7 0-.1.1-.1.1-.2l-.2.2.1-.1c-.1.2-.3.3-.4.5l.1-.1c-.5.6-1.1 1.2-1.6 1.7-1.1.2-1.6 0-1.8-.5-.1.2-.2.4-.3.7 0 .3-.1.5-.1.8l.2.1c.5.3 1.6-.3 2-.1-.4.6-1.7.5-2.1.1h-.1l-.3 1.2c.6.3 2-.2 2.4 0-.5.6-1.7.4-2.4 0l-.6 1.8h.1c.3.2 1-.2 1.2.2-.3.5-1.1.1-1.3-.2-.2.5-.4.9-.6 1.3-.1.1-.1.2-.2.4.4-.1 1.2-.4 1.4-.1-.3.4-1 .2-1.5.2-.2.3-.3.7-.5 1 .4 0 1.1-.5 1.4-.3-.1.6-1.1.5-1.4.4l-.3.6c.3-.1.8-.4 1.1-.1-.1.3-.8.2-1.1.2l-.3.6c.3-.1.9-.4 1.1-.1-.2.4-.8.2-1.2.2-.2.3-.3.6-.5.8.4-.1.8-.5 1.1-.3-.1.5-.8.5-1.2.4l-.3.6c.3-.1.8-.3 1 0-.1.3-.7.2-1.1.2-.1.1-.1.2-.2.2.2-.1.5-.2.6.1-.1.3-.4.2-.7 0 0 .1-.1.1-.1.2.2-.1.4-.1.4.2 0 .1-.1.1-.2.2-.1.3-.3.3-.5.2 0 .1-.1.2-.2.1-1.1 1.5-2.2 2.8-3.4 3.6l-1.2 1 2.1-1.8c.7-.4 1.5-1.5 2.4-3 0 0-.1 0-.1-.1-3.4 4.4-8.5 7-12.5 8.8.4-.2.8-.5 1.3-.7l2.1-1.5c.5-.4 1.3-1 2.2-1.7-.3.1-.6.1-.8.1h-.1l.2-.1c.3-.1.9-.6 1.3-.5.1-.1.3-.2.5-.4-.4 0-.8 0-1.1-.1h-.2.3c.4.1 1-.2 1.5-.4.2-.2.5-.4.7-.6-.5 0-1 0-1.3-.2h-.2l.4.1c.4.2 1.1-.1 1.7-.3.4-.3.7-.7 1.1-1.1-.7.3-1.5.3-1.9 0h-.2.4c.5.2 1.3-.2 1.9-.6l-.2.1.3-.2s.1 0 .1-.1c.2-.2.4-.3.5-.4.1-.1.2-.3.3-.4 0 0 .1-.1.1-.2-.6.5-1.2.8-1.8.9l-.1.1s-.1 0-.1-.1h-.4H44.5c-.9-.7.3-2.2 1.4-4.1-.7.5-1.4 1-1.8 1.3l-.3.2.4-.4c.8-.6 2-2.7 2.7-3.3v-.1c-.6.8-1.8 1.5-2.4 1.7L44 21l.4-.3c.6-.4 1.4-1.7 2-2.6l.1-.1c0-.1.1-.1.1-.2-.6.7-1.7 1.3-2.1 1.8l-.2.2.3-.4c.7-.7 1.7-2.5 2.2-3.1v-.1-.3c-.5.8-1.1 1.5-1.7 2l-.6.6 1-1.1c.5-.4 1-1.1 1.3-2 0-.2.1-.5.1-.7-.6 1-1.4 1.8-2.1 2.3l-.4.4.7-.8c.9-.6 1.7-2.9 2.4-4.8.2-.8.4-1.7.5-2.5.1-1.4 0-2.5-.2-3-.2-.3-.3-.5-.5-.8.7.8 2 2.1 2.1 4.3.3 2.3-2.3 4-1.9 6.3 1.5 4.8-4.7 8.9-3 9.5 1.9-.3 3.8-3.5 4.5-7 .4-1.8-.7-3.9.4-5.5.9-1.1 1.8-2.2 1.1-2.8l-.6.3.3-.2c.1 0 .1-.1.2-.1h-.1.1c-.1 0-.1-.1-.3-.1.1 0 .3 0 .4.1h.1c.1-.1.2-.1.4-.2h-.1.1c.6-.2 1.4-.3 2 0-.8-.5-1.8-.3-2.4 0 .2-.7 2.6-1.7 3.7.4.2 1.1-.1 1.9-.4 2.5 0 .9.1 1.5 1.4.8 2.2-2.6 5.1-6.8 9.9-7.9 8.8-3.1 19 2.7 20.4-1.4 0-.1 0-.1-.1-.2h-.1l.1-.1-.1-.1s.1 0 .1.1c.5-.3 1.7-.4 2.3.7.7 1.3-.3 2.4-.8 2.5.3-.5.5-1.3.1-2.1-.2-.4-.6-.7-.9-.8 1.4 2-1.5 4.9-4.3 3.6-1.2-.2-2.4-.4-3.7-.6h-.6c2 .2 4.1.6 6.2 1.3.4-.1 1-.1 1.7 0h-1.6c3.3 1.1 6.5 2.8 9.2 5.3l.1.1c.6.5 1.1 1.1 1.6 1.7.2.4.4.7.6 1.1v-.3c.4.9.7 2 1 3.3.6 1.6.7 4 .3 6.3l-.3 2.1v.2c0 .2-.1.4-.2.6.3-.7.7-1.4 1.3-1.3.3-.2.6-.2.9-.1-.2 0-.5 0-.7.1.2.1.5.3.8.7.8 1.5 1.3 3.2 1 5-.5 3.6-2.9 6.5-5.1 8.1-1 1.1-.4 2.4-.7 3.5-.6.5-1.3 1.3-1 1.8-.6-.5.6-1.6 1-2.1-.4-1-.4-2.6.6-3.7 2.2-1.7 4.2-4.4 4.7-7.7.3-1.7-.2-3.4-.9-4.7-1.1-1.8-1.6 1-1.9 2 .4 3.1-2.1 3.9-3.7 4.1l-.1.2.1-.2h-.1-.4.2c-.4-.1-.9-.8-.7-1.5-.7.7-1.7 1.4-2.7 2-2.3 1.1-2.6 3.1-1.8 4.2v-.1c-1.2-.7-.8-3.5 1.6-4.5 1.4-.9 2.8-1.6 3.4-2.5.3-.6.5-1.1.4-1.5.1.1.2.3.2.5.3-.5.6-1.3.9-2-.9 1-1.9 1.8-2.9 2.3-2.6 1.7-4.3 4.4-4.7 6-.4-2.4 2.6-5.2 5.3-7.5l.3-.3h-.1l-.3.2.4-.3c.1-.1.1-.2.2-.2-.2.1-.4.3-.5.4-.6.5-1.2 1-1.7 1.3l-.5.3 1-.7c.2-.1.5-.4.8-.7-.1.1-.2.1-.3.2l-.4.2.7-.4.1-.1c.5-.5 1.1-1.1 1.6-1.8-1.5 1.3-3.1 2.7-4.1 3.8l-.4.4.7-.8c.3-.4.8-.9 1.4-1.6-1.7 1.4-3.3 2.8-3.8 4.4l-.3.9.6-1.6c.9-2.4 7.8-7.2 8.8-9.2-.1.2-.2.4-.3.7l.2-.2c.1-.4.3-.8.3-1.2-.6 1.1-1.8 2.2-3.1 3.3-.2.2-.4.3-.6.5-.3.3-.6.6-1 .8-1.5 1.3-3 2.6-3.9 3.9.5-1 1.6-2.2 2.9-3.4h-.1c-1.4 1.3-3.3 2.9-3.9 4.4l-.3.5.4-.8c.1-.5.6-1.3 1.3-2.1-.4.3-.7.7-1 1-.2.3-.4.7-.6 1v.1l-.2.3c0-.1 0-.1.1-.2-.1.2-.2.5-.4.7l.3-.5c0 .1-.1.1-.1.2l-.3.5c0 .1-.1.2-.1.3-1.3 2.4-2 7.5 2.1 8.1 1.1.2 2.2-.1 3.1-.7-1 .3-2.2.3-3 .3h-.3l.5-.1c.1 0 .3 0 .5-.1-.5 0-1-.1-1.3-.3l-.3-.1.6.1c.5.2 1.7 0 2.7-.2l.2-.1c-1.3.3-2.7.3-3.5.1l-.3.1.8.1c.7.3 1.8 0 3-.4h-.1l.2-.1c.1 0 .1 0 .2-.1-1.1.3-2.4.3-3.2.2h-.4.8c.4.1 1 0 1.6-.2-1.1.2-2.2.1-2.9-.3l-.4-.1.8.2c1.4.9 5.3-1.2 5.5-2-.1.6-.4 1-.9 1.4.7-.4 1.3-.9 1.4-1.2-.1-.5-.4-.9-1.2-1.1 0 .1.1.2.1.3 0-.1 0-.2-.1-.3-.2 0-.3-.1-.5-.1-.3 1.7-3.6 2.9-4.9 1.9l-.4-.1.7.2c1.2.8 3.7-1 4.4-2h-.3c-1.3.4-2 2.4-3.5 2-1.4-.2-1.9-1.4-1.8-2.2l.1.3c.2 1.4 1.1 1.8 2.3 1.5 1-.2 2.1-.9 3.1-2 1.4-.3 3.6 1.9 1.9 3.5zM48.5 8.1c0 .1 0 .2.1.4 0-.2-.1-.3-.1-.4zm1.2 9.9c.5-2.3.5-4.2.5-5.2-.1.2-.3.4-.4.5-.7 1.2.1 2.8-.1 4.7zm-1.3 6.9l-.3.3s.1 0 .1-.1c.1 0 .2-.1.2-.2zm.1 0s-.1 0 0 0zm.2.2c0-.1 0-.1 0 0zm1.9-14.9c.6.4.3 1.5-.3 2.4 1.1 2.9.2 7.9-2.5 11.6-.9 1.3-1.9 2.3-3 3.3-.1.2-.2.3-.4.4-.4.3-.7.6-1.1.9-.1.2-.3.3-.5.4-1.8 1.4-3.6 2.5-5 3.5l-.8.6c3.3-1.8 9.3-4.9 11.9-10.4 3.4-4.9 3.3-12.2 1.7-12.7zm2.6.3c-.5-.5-1.2-.6-1.9-.5h.2-.2c-.2 0-.3.1-.5.1 1.1.1 1.6 2.1 1.7 3.9.3-2 .1-3.5-.8-4 .9.3 1.4 1.1 1.6 2.1 0-.5 0-1.1-.1-1.6zm32.4-6.1c-1.1 3.9-9.1.5-16.5 1.3 6.6.2 17.9 2.4 16.5-1.3zM83 7.7c.4 0 .8.1 1.2.1 2.6-.4 2.5-2.8 2.1-3.5-.1 0-.3-.1-.4-.1 1.5 1.3-.7 3.7-2.9 3.5zm-1.4-.2c.4.1.8.1 1.2.2-.2 0-.3-.1-.5-.1-.2-.1-.5-.1-.7-.1zm-10-.1c-.4 0-.8.1-1.3.1 0 0-.1 0-.1.1.4-.1.9-.1 1.4-.2zm.5-.4h-.3c-.6 0-1.2 0-1.8.1h-.1c.6 0 1.1-.1 1.5 0 .2-.1.5-.1.7-.1zm2.8.3c-.3 0-.6 0-.9-.1h-.3c-.4.1-.9.1-1.4.2.9-.1 1.8-.2 2.6-.1zM35.5 8c.1 0 .1 0 0 0 .6.2 1.3.4 1.9.7h.2l-.3-.2c-.3-.1-.9-.3-1.6-.5h-.2zm-10.1 3.9zm-1.8 6.4l-1-.5c-.8-.8-1.4-4 .5-6.2.1-.2.3-.3.4-.4-1.2.9-3.1 3.6-1.6 6.1.4.7 1.1 1 1.7 1zm7.6 5.2c-.1 0-.1-.1-.2-.1v.1h.2zm1.8 7.4c-.1.2-.3.4-.4.5l-.2.3.2-.2c.1 0 .3-.3.4-.6zm1.4-15.7h1c-.4-.1-.7-.1-1 0zm.6 9.7c0 .1 0 .1.1.2 0-.1 0-.2-.1-.2zm-1-8.4c-.4.2-.7.4-.9.7 0 .1-.1.3-.1.5 1-.9 4.4 0 4.2 3.1.2 2.3-.5 4.3-1.3 5.3 0 .5-.2.9-.4 1.1 0 1.3-.4 2.6-1.3 3.6l-.1.1.9-.7c1.1-1.3 3.6-5.4 2.9-9.4-.5-2.6-2.5-4.1-3.9-4.3zm-7.1.7c.4-.3.6-.8.4-1.5v-1.2c-.3 1.1-.3 2.2-.4 2.7zm-.1-5.1h-.2.2zm0-.2s0 .1 0 0c0 .1 0 .1 0 0 0 .1 0 .1 0 0zm-1.5-9.7l.2.1c.6.3 2.7.5 3.5.8 0-.1-.1-.1-.1-.2-.2-.3-.4-.5-.6-.7-.8.1-2-.3-2.7-.5h-.2.4c.4 0 1.4 0 2.1.2-.9-.5-1.8-.7-2.6-.9.1.3.1.7 0 1.2zm-.2.7l.4.1c.7.4 3.2.9 4.4 1.3-.3-.4-.6-.7-.8-1.1-1.1.2-2.9-.6-3.8-1.1-.1.3-.2.5-.2.8zm.8 2.8l1 .3c1.1.2 4.5.6 6.7 1.1l-.6-.3c-1.9-.4-4-.8-5.7-1.2 1.1.1 3 .3 4.8.7-.3-.2-.5-.4-.8-.6-1.6-.3-4.5-.7-5.7-1.8l-.4-.2.7.4c.7.6 3.5.9 5 1.3-.3-.2-.5-.5-.8-.8-1.4 0-3.7-1-4.9-1.7l-.1-.1c-.2.8-.4 1.6-.1 2 0 .1.1.2.2.3.1.1.2.2.4.3 0 .1.1.2.3.3-.1 0 0 0 0 0zm6.7 1.6c-.2 0-.3-.1-.5-.1h-.2.3c-2-.4-4.3-.8-5.8-1.3l-.6-.1c1.8 1 4.8 1.2 6.8 1.5zm-1.3.1c-.2 0-.4 0-.7-.1.2 0 .3.1.5.1h.2zm.9.1c-.2 0-.4 0-.6-.1h.3c.1.1.2.1.3.1zm1.6.3c-.1 0-.1 0-.2-.1-.4-.1-.8-.1-1.1-.2h-.1c.4.2.9.2 1.4.3zm32.1 6.9c.3.2.6.5.8.7-.1-.2-.3-.4-.5-.6-.1-.1-.2-.1-.2-.2 0 .1 0 .1-.1.1zM82 29.6h-.2c-.2.1-.5.1-.7.2-.3.1-.8.2-1.3.3.7-.1 1.5-.2 2.2-.5zm-24.5 2.7c-.1 0-.2.1-.3.1l-.2.1.4-.1c.1 0 .1-.1.1-.1zm11.6-10.5c.1 0 .1-.1.2-.1-.1 0-.2 0-.2.1zm-6.8 12.8c.1 0 .1-.1 0 0 .1-.1.1-.1 0 0 .1-.1 0 0 0 0zm-.2-.7V33.6v.3zm-.1.5c.1 0 .1 0 0 0 .1-.1 0-.1 0 0 0-.1 0 0 0 0zm-.1.2c0 .1.1.1 0 0 .1 0 .1-.1.1-.1h-.1c.1 0 .1 0 0 .1.1 0 .1 0 0 0 .1 0 0 0 0 0zm-.3-1.6c.1 0 .1.1.2.1V33v-.1c-.1.1-.1.1-.2.1zm-.1.4v.1l.1-.1h-.1zm-.1 0zm-.3-.1zm-1.1.8h.2s.1 0 .1-.1h-.2c0 .1-.1.1-.1.1zm-.6.3c.2 0 .4 0 .6.1h.1c-.2-.1-.5-.1-.7-.1zm-1-.3h1.5l.1-.1c-.6.1-1.1.1-1.6.1zm.4 4c-.5-.6-1.3-1.2-2.1-1.6.8.4 1.6 1.2 2.1 2v-.4zm-2.7-2.7h-.2l.4.1s.1 0 .2.1c-.1 0-.1-.1-.2-.1s-.2-.1-.2-.1zm.5 0h.1-.1c-.1-.1-.3-.1-.4-.1.1 0 .2.1.4.1zm-.8 0h-.3l.5.1c.1 0 .2.1.4.1-.1-.1-.3-.1-.4-.2h-.2zm-.3 0h.1c.3.2 1 .4 1.8.6-.6-.1-1.2-.3-1.7-.5l-.2-.1zm2.7 1.7c-.1-.1-.2-.1-.2-.1.3.2.6.4.8.6-.2-.2-.4-.4-.6-.5zm.4-.2c0-.1-.1-.1-.1-.2h-.2c.1.1.2.2.3.2zm1.8-1.3h-.2c-.1 0-.1 0-.2.1h.2c.1 0 .1 0 .2-.1zm.4-.6h-.9c-1.3.1-2.9-.1-4-.1h-.4.6c.4 0 1.4-.1 2.3-.2-1.5-.1-3-.2-4.1-.2h-.5.9c.3 0 .9-.1 1.6-.1-.9-.1-1.8-.2-2.4-.4l-.5-.1 1 .2c.4.1 1.1.2 2 .2-1.2-.1-2.3-.3-3-1.3l-.4-.4c-.5.9-.4 2.4.8 3.4.4.3.8.5 1.2.7h.3-.2c.6.3 1.2.5 1.7 1 1 1 .1 2-.1 2.5 2.1 0 .5-3.1-1.1-3.4.6.1 1.8.5 2.3 1.7.5.9 0 1.5-.5 1.7.5-.1.9-.4 1.2-1-.2-1.2-2-2.5-3.2-2.7l-.4-.2.7.1h.1-.3.6c.3-.1.7 0 1.1.2-.3-.2-.7-.3-1-.2H56h.3c.1 0 .1 0 .2-.1-.1 0-.2-.1-.3-.1h-.7.6-.1.1c.1 0 .2-.1.4 0-.4-.2-.8-.3-1.1-.5l-.4-.3.7.2c.2.1.5.2.8.3-.4-.2-.8-.4-1.1-.6l-.4-.1.5.2h.5c-.1 0-.2-.1-.3-.1l-.2-.1h-.4.3-.1.5c-.1-.1-.2-.1-.3-.2l-.2-.1.4.2c.1 0 .2.1.3.1h.3c-.1-.1-.3-.1-.4-.2l-.3-.1.6.2c.1.1.3.1.4.2h1.8c-.5-.1-1-.1-1.4-.2h-.3.6c.6.1 2.5-.1 3.5-.1zm-5 .2h-.4l.5.1h.1c-.1 0-.1 0-.2-.1zm5-1.6c-.1 0-.1.1-.2.1h.1c.1 0 .1-.1.1-.1zm-.3-.4h.1l.1-.1c-.1.1-.1.1-.2.1zm4.7-.4c.5.6 1 1.1 1.3 1.4.2 0 .5-.1.7-.1-.7-.2-1.3-.7-2-1.3zm-6.1-.6h.2-.2zm1.2.6c-.2 0-.3-.1-.4-.1h-.1H60.1c-.3-.1-.7-.1-1-.1v.2c.4-.1.8-.1 1.2 0zm4.7 1.8c.2-.1.3-.1.5-.2.3-.1.5-.1.8-.1-1-.7-1.9-2-3.1-2.9-1.2-1.1-3.8-1.1-4 .3.4-.1.8-.1 1 0 .5-.8 2.2-1.4 3.2 0 .7 1.4 1.1 2.4 1.6 2.9zm-2.7 10.8l.6.6-.4-.9c-.3-.9-.2-3.2 1.2-4.9-1.5 1.3-2.5 3-1.7 4.7l.3.5zm-.4-.7c.1.2.2.4.4.6l-.4-.6zm-.5-2c0-.7.3-2.6 1.6-3.7.2-.2.4-.4.6-.5-.2 0-.4-.1-.5-.1-1.1.7-1.8 2.4-1.7 4.3zm.3 1.5c-.3-.8 0-2.6 1-4-.8.8-1.3 1.7-1.3 2.8 0 .7.2 1.5.5 2.2 1.2 2.2 5 4.3 7.7 3.9l.7-.1-1.3.2c-.9.1-3.2.1-5.1-.9-.1 0-.1-.1-.2-.1.9.9 2.1 1.6 3.7 2 1.2.2 4.1-.2 3-1.2-1.1-.8-2.7-1.3-4-1.4-2.5-.1-4.7-1.8-4.7-3.4zm3.3-4.3c-1.8 1.5-3.1 3.6-2.2 5.7l.2.4c.3.2.7.4 1.1.6l-.5-1.4c-.2-1 0-3.4 1.4-5.3zM81.3 33l-1.2.6c.3-.1.5-.2.7-.3.2-.1.3-.2.5-.3zm2.2-6.8c.1-.1.2-.1.2-.2 2.1-2.9 3.1-7.5 1.3-10.2l-.5-.6c.8 1.9 1.4 5.6.1 8.9-.3.6-.6 1.2-1 1.7.1.1 0 .3-.1.4zm-.5 5c-.2.1-.4.3-.6.4.2-.1.4-.2.6-.4 0 .1 0 0 0 0zm.1-4.4c.2-.2.4-.5.6-.7l-.1.1-.3.3c-.1.1-.1.2-.2.3zm1.5 4.2c.1-.3.1-.5.1-.8v.1c0 .3 0 .5-.1.7zm-.8-2.4l-.4.2-.1.1h.1c.2-.1.3-.2.4-.3zm.8 2.5c-.1.3-.3.6-.5.9l.1.1c.1-.3.3-.6.4-1zm.1-3.3c-.4.3-.8.6-1.1.8.1 0 .1-.1.2-.1l.1-.1c.1-.1.2-.1.3-.2.2 0 .3-.2.5-.4zm1.2-1.2l-.2.2c-.1.1-.1.2-.2.2l.1-.1.3-.3zm9.5.2c0 .2 0 .4-.1.6.2-.2.3-.7.4-1.2l-.3.6zm-.5-.6l.2-.2c.1-.2.2-.5.3-.7-.1.1-.2.3-.2.5-.1.1-.2.2-.3.4zm-2.2 8.6l.4-.8c.6-.9 1.5-3.1 2.2-5.2-.2.4-.5.8-.7 1.1l-.2.3.3-.5c.2-.2.3-.6.5-1.1-.1.2-.3.5-.4.6l-.2.3.2-.5c.1-.2.2-.4.3-.8-.1.1-.2.3-.3.4l.2.1.1-.3c.1-.2.2-.7.4-1.1-.1.1-.1.2-.2.3-.4 1.9-1.9 4.4-2.7 5.9l-.2.5.4-.8c.5-.9 1.5-3.6 2.2-5.3l-.6.9c-.2 1-1 2.1-1.6 3 0 .5-.2 1-.4 1.5-.5.9-.2 1.3.2 1.7 0-.2 0-.2.1-.2zm3.1-2c0 .1-.1.1-.2.2 0 .1-.1.1-.1.1v.1c-.2.3-.4.5-.6.6l-.1.1.1-.2c.1-.1.2-.2.2-.4-.1 0-.2.1-.2.1-.1.1-.2.2-.3.2l-.1.1.2-.2.1-.1v-.1c.1-.1.2-.3.2-.4 0 0-.1 0-.1.1l-.1.1-.1.1-.1.2.2-.3c.1-.1.2-.3.3-.5-.3.4-.7.8-1 1.1l-.2.2.2-.3c.2-.1.3-.4.5-.7l-.1.1.1-.2c.1-.1.1-.3.2-.5-.3.5-.6.9-1 1.3l-.7 1 1.1-1.8c.1-.1.2-.3.3-.5-.1.2-.3.3-.4.4l-.1.2.2-.3c.2-.2.3-.5.5-.9-.3.3-.5.6-.8.8l-.2.2.3-.4c.2-.2.4-.5.6-.9 0-.1.1-.2.1-.3l-.1.1-.4.7.7-1.2c.1-.1.1-.2.2-.4-.3.5-.6.9-.7 1.3l-.1.3.2-.5c.1-.2.2-.6.4-1-.2.3-.3.7-.5 1l-.1.3.1-.2c-.6 1.2-1.2 2.3-1.7 3.1l-.2.3c1.4-.4 2.8-.8 3.3-2.1zm.8-9.7V24c0 .2.1.4.1.7v-1.4c0-.2 0-.4-.1-.6v.4zm-.3 4.5s.1 0 0 0c.1 0 0 .1 0 .1.1-.6.2-1.4.2-2.1 0 .3-.1.5-.1.8 0 .2 0 .4-.1.6.1.2.1.4 0 .6zm-.4 4.6c.1 0 .1 0 0 0 .1 0 .1-.1.1-.2 0 .1 0 .1-.1.2zm-1.2-9.6c.5-1.2.8-2.5.8-3.5-.1-.6-.3-1.2-.6-1.8.4 1.7.3 3.6-.2 5.3zm-.3-3c.1 2.5-.4 5-1.7 6.7.2-.1.4-.3.5-.5.3-.5.6-1 .8-1.6.9-2.4.8-6.1.2-8.4-.5-.9-1.1-1.7-1.8-2.4-.7-.5-1.4-1-2.2-1.5.5.4 1 .8 1.5 1.3-.1-.1-.1-.3-.2-.3 1.1.7 1.9 2.1 2.4 3.7.4 1.1.5 2 .5 3zM88 27.2c.8-.2 1.7-.4 2.5-.8h.1c.3-.2.6-.4.9-.7h-.1c-1.7.1-2.8.7-3.4 1.5zm.5 1.4l1.9-.8c1.4-.5 3.8-3.3 3.8-6.6l-.3 1.2c-.2 1.1-.6 2.1-1.4 2.7-.1.1-.2.2-.2.3.1-.1.1-.2.2-.3-.2.1-.4.3-.6.4-.2.2-.4.4-.7.5.2-.2.4-.3.6-.5h-.1c-.3.3-.6.5-.9.7.2-.1.3-.1.5-.2-.4.3-.9.6-1.4.7l-.9.5c.3-.2.6-.3.9-.5-.2 0-.3.1-.5.1l-1.4.4c-.2.2-.3.4-.4.7.2.2.5.5.9.7zm1.5.1c1-.7 1.8-1.3 2.3-1.7l.3-.3-.2.2c.1-.1.2-.1.3-.2.1-.1.3-.2.4-.3 1.4-1.6 2.7-3.5 2.7-4.5.1 1-.3 2-.9 2.9.4-.4.7-.7.8-.9.2-1.1.2-2.3.1-3.4-.3 2.2-1.8 4.6-3.3 6.2.2-.3.4-.5.6-.9-.3.3-.5.6-.8.8-.3.3-.6.6-1 .8l-.3.5.3-.3c-.5.3-1.1.5-1.7.7l-1.1.4c.4.1.9.2 1.5 0zm1.5 12.2c-.2.2-.4.3-.7.4.2-.1.3-.1.4-.2.2 0 .3-.1.3-.2zm.7-1.8c0 .4-.2.7-.5 1 .1-.1.2-.2.4-.2.1-.2.2-.5.1-.8zm-36.7-4.2zm-28-25zm3 14.7l-.1-.1.1.1zm27.6 6.8V31v.4zm63 17.8c.4 6.9-7.1 7.3-8.9 6.2 1.3.3 4.1.2 6-1.2l.1-.1c.1-.1.2-.2.2-.3-.1 0-.1.1-.2.1l-.1.1.2-.2c.2-.1.3-.4.4-.6 0 0 0-.1.1-.1l-.3.3-.4.7.7-1.2c.5-.9.2-3.6-1.7-5.1-1.5-1.5-2.9-.8-3.6-.2l-.3.6c.9-.7 2.7-.5 3.8.5 1.2 1.2 1.3 3 1.2 4.3-.1-1-.2-3.4-1.8-4.3-1.5-.9-2.7-.4-3.3.1v.1c1-.8 3.5-.4 4.5 1.7 1.5 3-1.8 4.7-2.7 4.7l.1-.1c.8-.5 2.4-1.6 2.2-3.3-1 1.3-4.4 1.5-6.7-.3-2.8-1.9-4-5-3.9-6.7-.2-.2-.4-.5-.4-.7.5.2 1.2.6 2.1.8 1 .1 1.6 0 2.1-.2-.2.5-1.1 1.1-2.3.9-.6-.1-1-.4-1.4-.7.3 1.7 1.6 4.1 4.2 5.9 2.2 1.6 5.3 1.8 6.1.5-.1-.2-.1-.4-.2-.7-.9-1.8-3-2.4-3.9-1.6 0 .3-.1.5-.1.7v-.2-.3c-.1.1-.2.2-.2.3 0-.3.1-.5.2-.7v-.1c-.1.1-.2.2-.2.3 0-.3.1-.5.3-.7.1-.8.5-1.7 1.3-2.4.3-.3.6-.5.9-.5.1 0 .1-.1.2-.1 2.3-.9 5.7.7 5.7 3.8zm-1.9-2.5c.1.1.1.2.2.3.1 0 .1 0 .2.1-.1-.1-.1-.2-.2-.3-.1 0-.2 0-.2-.1zm-.1 1.3c.1.2.2.4.2.6l.1.1v-.1c.2.4.3.8.4 1.1-.2-.5-.4-1.1-.7-1.7zm-1.4-2.1l.6.3c0-.1-.1-.1-.1-.2-.1 0-.3 0-.5-.1zm.2 1.1c.1 0 0 0 0 0zm-2.6-.6c-.2-.1-.3-.1-.5-.1-.2.1-.3.2-.4.3.2-.2.6-.2.9-.2zm.5-.3h-.4.4c-.1 0-.1 0 0 0zm3.6 5.8l.1-.9c0-.7-.4-2.2-1.2-3.5l-.1-.1c.2.3.4.6.5.8l.1.2-.2-.3c-.1-.2-.3-.4-.5-.6 0 .1.1.2.1.3l.1.2-.2-.3c0-.1-.1-.2-.2-.3-.3-.2-.5-.4-.8-.6.8.6 1.4 1.3 1.5 2l.2.3-.3-.6c-.1-.6-.9-1.2-1.7-1.6 1.5 1.1 2.8 3.3 2.6 5zm.1-.4l-.1.5c.1-.2.1-.3.2-.5v-.4c0 .1 0 .3-.1.4zm-.5 2.1c.1-.1.1-.2.2-.4-.1.1-.1.2-.2.3-.2.2-.4.5-.5.6l.5-.5zm.7-1.2c-.2.3-.4.7-.5.9.1-.1.2-.3.3-.4.1-.1.2-.3.2-.5zm.3-1.7c0-.3 0-.7-.1-1 0 .2 0 .3-.1.4v.2-.4-.4V49.8v-.3c0-.1-.1-.4-.1-.6.2.9.2 1.7.1 2.4v.2c.1-.2.1-.3.2-.4-.1-.2-.1-.3 0-.4zm.1-1.8c0-.2-.1-.4-.1-.6 0 .2 0 .5.1.6l-.1.2-.1-.2v.1c.1.5.1 1 .1 1.5v-.1c.1-.7.1-1.3.1-1.5zm-19.6-28.3l-.2-.2.2.2zm0 0c2 2.1 3.1 7.1 2.6 13 .4 6.1 4.3 11.2 7.4 10.8-3-.1-6.2-5.1-6.7-10.8.6-5.8-.8-11.2-3.3-13zm1.2-.6c-.7.1-1.3 0-1.8 0 .2.4.9.9 1.9.7 1.1-.3 1.2-1.4 1.1-1.7-.4.4-.6.8-1.2 1zM86.3 7.7c1.7.6 5.1 1.4 7.8 4.1l-.3-.3c-2.9-2.6-6.9-3.6-9.4-3.3.8.2 4.9.2 8.3 2.9 3.5 2.4 5.7 6.5 7 7.9.2.3.5.4.8.5-1.1-.8-2-2.2-3-3.7 1.9 2 3.9 3.4 5.4 2.4-2.3.8-4.8-2.6-7.4-6.1-2.9-3.6-7.1-4.3-9.1-4.4h-.1zm-62.9 3.2s.1-.1 0 0zm-.4 5.4l-.1.1.1-.1zm25.6 26.2v.3c-.1-.1-.1-.2 0-.3-.2-2.6-3.9-1.9-6.9-.6-3.4 1.1-7.7 1.8-12.3 1.6-3.8-.4-7.1-1.5-9.9-2.9-4-1.5-7.1-3.6-9.2-5.4-.1 0-.1-.1-.2-.1l.2.1c-.5-.4-.9-.8-1.3-1.1l.4.3c.5.3 1.1.7 1.7 1.2 2.3.9 5.3 2.8 9 4.4 3.6 1.2 7.7 1.8 12.2 1.2 5.2-.9 9.8-3 14-4.3 5.7-1.8 5.1 7.9 2.3 5.6zm-19.2-.2h-1.1 1.1zm17.1-4.8c-3.8 1.3-8.3 3.4-13.5 4.5 1.9-.3 3.9-.7 5.9-1.3 2.5-.9 6.3-2.6 8.8-2.2-2.5-.2-6.5 1.9-10 2.9-1.9.6-3.7.9-5.3 1h1c.7 0 1.3-.1 2-.1 1.3-.1 2.6-.4 3.9-.8 2.3-.7 5.2-2.4 7.3-2.2-1.7 0-4 1.3-6.5 2.3l1.5-.3c.3-.1.7-.3 1-.4 1.6-.6 3.4-1.3 4.8-.7-.6-.3-1.5-.1-2.5.2 2.2-.2 4.1.4 3.9 2.2 2.4 1.7 2.3-7-2.3-5.1zm19.9 8.8s-.1 0 0 0c-.1 0-.1 0 0 0zm0 0c.2.3.5.5.8.7l-.8-.7zm-.8.5l-.8-.8c.2.3.5.6.8.8zm-.8-.8c0-.1 0-.1 0 0 0-.1 0-.1 0 0zm12.5-7.4V38v1.4-.8zm0-.7v-.2.3-.1zm-.1.5v-.2.4-.2zm-41.6-4.3c-.5.2-.9.4-1.3.6.4-.1.7-.3 1.1-.5 0 0 .1-.1.2-.1zm14.7-23.9c-.2 0-.3.1-.5.3.1-.1.3-.2.5-.3zm36.5 29c-.4-.5-.7-.9-.8-1.4-.1.8.1 1.4.8 1.4zM63 10.4c-1.7 1.1-3.2 2.4-4.8 3.5l3.5-2.6c.5-.3.9-.6 1.3-.9zM37.3 14c.1.3.2.6.4.9-.1-.5-.3-1-.5-1.5.1.2.1.4.1.6zm.4.9zm-13.8-3.2c-1.3 1.4-1.5 3.6-1.3 4.4l.4 1-.2-.6c-1-2.6 2.4-6.7 4.8-5.7-.2-.3-2.4-.8-3.7.9zm2.4-6.3s.1 0 0 0l-.7-.4.7.4zm.6.2h.5c-.3-.1-.6-.1-.9-.2l.4.2zm27.6 11.9c-.4-.2-1.2.4-1.7.1l-.2-.1.1.1c.4.3 1.6.5 1.8-.1zm-1.3 1.8c-.3-.4-.9.1-1.1.1H52h.1c.2 0 .9.2 1.1-.1zm-3.3 21.5c.1-.4 0-.7-.3-1.1-.4-.8-1.1-1.2-2-1.3 1.2.3 2 .9 2.3 2.4zm0 .2v-.1c-.1.3-.2.6-.4.9.2-.3.3-.5.4-.8zm-.5.7c-.2.2-.4.4-.6.5.3-.1.5-.3.6-.5zm-1.1-1.6c-.2-.2-.5-.4-.7-.5.1.1.2.1.3.2.1 0 .3.1.4.3zm.4 1.2c0 .2-.1.3-.1.5.1-.2.1-.4.1-.5zm-2.3-2.1zm2 1c.2.3.4.6.4 1 0-.2 0-.5-.1-.7-.2-.1-.2-.2-.3-.3zm-1 0c.1.1.2.1.3.2l.8.7-.5-.4c-.2-.2-.4-.4-.6-.5zm19.2-30.1c.6-.1 6.9-.4 8.8 1.6-1.9-2.2-6.9-2.4-8.8-1.6zm9.5 3.3c0-.4-.2-.7-.3-1 .1.2.1.3.1.5l.4 1.3-.2-.8zm5.7 12.7c-.4.6-.9 1.1-1.4 1.6.5-.4 1-.9 1.4-1.6zm-1.4 1.6c-.1.1-.2.1-.3.2-.7.6-1.6 1-2.4 1.3.3-.1.6-.1.9-.2.7-.4 1.3-.8 1.8-1.3zm-.2-.4l-.4.4c.2-.1.3-.3.4-.4zm2.8-9.1c-1.3-5-6.3-7.9-9.4-7.7.9 0 6.4 1.4 8.7 6.5 1.7 3.8 0 8.1-2 10.3 2-2.2 3.4-5.7 2.7-9.1zm-26.1-5.4c-.4.6-.8 1.2-1.1 1.8l1.1-1.8zm1.5-1.6l-.4.4.3-.3c.1 0 .1 0 .1-.1zm-.8 2.1l.1-.1c-.2.1-.3.3-.4.4l.3-.3zm-.6.6c.1-.1.2-.2.2-.3l-1.1 1 .9-.7zm27.3-1c.3.2.6.4.9.7-.3-.3-.6-.5-.9-.7zm1.2 1s.1 0 0 0c.1 0 .1 0 0 0 .1 0 0 0 0 0zm-2.1-.1zm3.1 26.8h-.8.4c1.4.3 5.4-.2 5-2.4 0 1.3-3.3 2.8-4.6 2.4zM55.1 30.1c-.1-.1-.1-.3-.1-.4 0 .5.1 1 .4 1.6l-.3-1.2zm.4 1.3s0-.1-.1-.1l.6 1.8-.5-1.7zm-1.6-.8c0 .1 0 .1.1.2-.7-2.3 1.9-5.7 5-5.5 2.3-.4 4 .7 5.5 1.7-1.1-.6-2.6-1.2-4.2-1.3-3.7-1.1-6.8 2.7-6.1 4.4-.2-2.2 2.4-4.8 5.1-4.1 3.1.2 5.9 1.5 7.4 2.8-.1-.2-.5-.6-1.1-1.1.2.1.5.3.7.4-1.1-.8-3.1-3.3-6.4-3.2-4.3-.8-6.9 4.1-6 5.7zm.4.9s-.1-.2-.1-.3c0 .1 0 .2.1.3zm.8.9l-.8-.9c.3.4.5.6.8.9zm-.6-1.3l.6.9-.6-.9zm0 0c-.2-.3-.3-.6-.3-.9 0 .2.1.5.3.9zm2.5-1.3v-.3c-.1.3-.2.7-.2 1.1.1-.3.1-.6.2-.8zm-.2 1v-.2c-.1.5-.1 1-.1 1.6l.1-1.4zm12.4 3.1h-.3.3zm-.4 0c-1.7-.4-6.8-5.8-9.2-5l-1.3.5.8-.3c3.4-1.3 6.7 4.7 9.7 4.8zm-13.3 2.7h.1-.3.2zm33.4-8.7l1.5-1c.7-.4 1.3-.9 1.9-1.5-.3.3-.5.5-.8.6-.8.8-1.7 1.4-2.6 1.9zm6.9-6c0-.2 0-.3-.1-.5.1.2.1.4.1.5zm-.3 2.9c.1-.2.1-.3.1-.5 0 .2-.1.3-.1.5zM86.9 33c0-.1.1-.3.2-.4-.2.3-.4.6-.5.9l.3-.5zm-.4.6s0-.1.1-.1l-.6.8.5-.7zm30 19.4c-.4.5-.9.8-1.5 1 .6-.2 1.1-.5 1.5-1zm-6.9.3c.2.1.3.1.5.2-1.2-.5-2.4-1.1-3.4-2 1.1.8 2.1 1.4 2.9 1.8zM85.7 8.7c.7.1 1.5.2 2.2.4-.2-.1-.3-.2-.4-.3 4.4 1.5 10.8 6 13.2 13.1 2.4 6.3 1.1 13.7 3.8 18.3-.1-.2-.3-.4-.4-.6-2.2-2.9-1.2-11.1-3.9-18 .6 2.1.8 4.7 1 7.3.3 1.9.5 3.8.6 5.7.4 2.8 1.2 5.4 2.7 7.3-1.3-1.1-2.1-3.2-2.6-5.9.1 1.6.2 3.3.4 4.9 1.1 4.3 3.8 9.8 7.8 11.9-2.3-1-4.8-2.8-5.9-5.9-.7-1.4-1.2-2.8-1.6-4.1.1.8.3 1.6.5 2.3.2 1 .5 1.9.9 2.7-.7-1.3-1.2-2.7-1.4-4.4-.2-.8-.3-1.7-.4-2.6-.3-1.6-.4-2.8-.3-3.4l-.3-3.9c-.3-1.7-.5-3.6-.7-5.3-.2-.8-.3-1.6-.6-2.4C98.9 15 90 9.6 85.7 8.7zm7.9 3.9c2.9 2.7 5.3 6.5 6.6 10.8-.2-1.2-.3-2.2-.6-3.1 0-.1 0-.1-.1-.2-.3-.7-.6-1.4-1-2-.1-.2-.2-.3-.4-.5 0 0 .1 0 .1.1-1.2-2.1-2.9-3.8-4.6-5.1zm10.9 36.2c.5.8 1.1 1.6 1.8 2.2-.6-.6-1.3-1.3-1.8-2.2zm8.2 5.3c-.2 0-.4-.1-.6-.1.8.2 1.6.2 2.4.1-.6.1-1.2 0-1.8 0zm-.6-.1c-.7-.1-1.3-.3-1.9-.5.6.2 1.3.4 1.9.5zm-11.2-34.3c.4.1.7.1 1.1.1l-1.1-.1zm0 0c-.1 0-.3-.1-.4-.1l.1.1h.3zm4.9 22.2c.4.5.9.9 1.5 1.3-.5-.5-1-.8-1.5-1.3zm-.5-.5l.1.1c-.1-.2-.3-.4-.4-.5.1.1.2.2.3.4zm-.5.6l-.2-.2.6.6c-.2-.1-.3-.2-.4-.4zm8.4 11.5c-.7 0-1.9-.3-3.2-.8 1.1.6 2.4.9 3.7.8h-.5zm2.8-.3l-1.5.3c.5 0 1-.1 1.5-.3zm-1.6.3h-.2.2zm-4-1.3c-.2-.1-.3-.1-.4-.2l1.3.7-.9-.5zm-.8-.4s.2.1.3.1l-.3-.1zm0 0c-3.8-2.2-5.5-9-6.8-12-.3 1.2 3.4 11 6.8 12zm-1.9-2.6l.7.7-.4-.5c-.1 0-.2-.1-.3-.2zm-.1-.1c0 .1 0 .1 0 0zm0 0c-1.8-1.8-2.9-5.6-3.4-7.5-.6.8 1.8 6.6 3.4 7.5zm-2.4-6.4c-.6.5.9 3.6 1.6 4.2l.3.5-.2-.3c-.7-1.1-1.4-3.2-1.7-4.4zm.8.5c.4.3.9.6 1.3.9l-1.3-.9c-.1-.2-.2-.4-.3-.5 0 0-.1.1-.1.2-.1.5.7 1.6.9 1.9l.1.3-.1-.2c-.2-.4-.3-1.1-.5-1.7zm12.3 10.4v-.2l-.3.8.3-.6zm.1-.5v-.3c0 .2-.1.4-.1.6l.1-.3zm-18.3-18.8c-.5 3.9-4.4 6.7-4.9 8.4-.1.1-.1.2-.2.4 1.2-2.3 4.1-4.4 5.2-7.7.4-2.5.6-7.5-1.6-7.6 1.1.5 2 3.5 1.5 6.5zm-5.4 9.4c.1-.2.2-.5.3-.7l-.3.6v.1zm-.5 1.2l-.7 1.7.4-.9c.1-.3.3-.5.5-.8 1.6-2.4 4.7-5.3 6-8.3 0 .2.1.3.1.5v-.6c.5-1.2.6-2.4.2-3.6-.2.6-.1 3.5-1.9 6-1.4 2.1-3.4 4-4.2 5.4l.1-.5c-.1.2-.1.3-.1.5-.1.1-.3.4-.4.6zm.2 0c.1-.1.1-.1 0 0 .1-.1 0 0 0 0zM93.3 47l.4-.8c1.4-2.6 7.1-5.8 6.8-9.3-.3 2.3-5.2 7.1-6.5 8.7l-.7 1.4zm1.3-1.5l-.6 1 .3-.6c1.2-2 5.9-3.9 5.8-6.7-.1 1.6-4.5 5-5.5 6.3zm5.6-6.6v0zM94 46.7l.3-.3c1.4-.9 3.9-2.7 4.7-4-.6.1-3.5 3.2-4.5 3.8l-.5.5z" fill="#fffded"/></svg>