<?xml version="1.0" encoding="utf-8"?>
<svg xmlns="http://www.w3.org/2000/svg" viewBox="0 0 215.2 14.2"><path d="M90.9 5.5s.1 0 0 0c.1 0 .1 0 0 0zm-.1 0h0zm33.5-4.2s-.1 0 0 0c-.1 0-.1 0 0 0zm.1 0h-.1.1zm4.7 3.3c-.2 1.1-1.1 2-2 2.7-1 .7-2.1 1.2-3.3 1.6-1.2.3-2.6.5-3.9.5-.4 0-.9 0-1.3-.1.1.1.3.1.4.2 1.1.5 2 1.2 2.6 2.1.3.6.7 2.2-.1 2.5-.2.1-.4.1-.7 0 .4.1.8-.8.8-1.1.1-.5-.1-1-.4-1.4-.5-.9-1.4-1.4-2.4-1.8-1-.4-2.2-.7-3.4-.6-1.2 0-2.5.1-3.8.4-2.6.5-5.2 1.4-8 2.4-2.6.9-5.5 1.6-8.3 1.6-1.4 0-2.7-.1-3.9-.5-1.2-.3-2.4-.9-3.3-1.6-1-.7-1.8-1.6-2-2.7-.1-.6-.1-1.1.1-1.6.1-.2.2-.5.3-.7.1-.2.3-.4.5-.6.4-.3.8-.6 1.2-.7.1-.1.3-.2.5-.2.2-.1.4-.1.6-.1.4 0 .8-.1 1.2.1.2.1.3.2.4.3 0 .1.1.2.1.2v.1-.1c0-.1 0-.2-.1-.2-.1-.2-.2-.3-.4-.3-.2-.1-.3-.1-.5-.1-3.7 0-4.1 4.8-1.4 6.5 1.7 1 3.7 1.6 6 1.6-.2 0-.3 0-.5-.1-.9-.1-1.9-.5-2.9-1.2-.5-.3-.9-.8-1.1-1.2-.3-.5-.4-1-.5-1.4-.1-.7 0-1.4.2-2.1 0 1.2 0 2.3.8 3.2 1.3 1.4 3.3 2.2 5.1 2.6 1.9.4 3.7-.3 5.6-.8H99.9c-.3 0-.6 0-.9-.1-1.1-.2-2-.7-3-1.1-.4-.1-.7-.1-1.1-.1-.9-.1-1-.4-1.5-1.1-.1-.2-.7-.1-.9-.2-.4-.2-.7-.5-.8-.9-.3-1.1-.1-2.6.7-3.5.5-.6 1.8-1.1 2.4-.3.9 1.3-1.2.7-.4.4 0-.5-1.2-.2-.8.7.1.3.3.5.6.7.6-.6 1.3-1.1 2.1-1.5 1.1-.5 2.3-.7 3.6-.7 1.3 0 2.6.1 3.9.4 2.6.5 5.3 1.4 8 2.3 1.6.6 3.7.5 5.4-.1.7-.2 1-.5 1.4-1.1.4-.6.4-1.4.7-2 .1-.2.2-.3.3-.4.6-.7 1.7-1 2.1-1.9.4-.9-.9-1.2-.8-.7.8.3-1.3.9-.4-.4.5-.8 1.9-.3 2.4.3.7.9 1 2.4.7 3.5-.1.4-.4.7-.8.9-.2.1-.7 0-.9.2-.5.7-.6 1.1-1.5 1.1-.4 0-.7 0-1.1.1-1 .4-1.9.9-3 1.1-.3.1-.6.1-.9.1H114c1.8.5 3.7 1.1 5.6.8 1.9-.4 3.9-1.2 5.1-2.6.8-.9.8-2 .8-3.2.2.7.3 1.4.2 2.1-.1.5-.2 1-.5 1.4-.3.5-.7.9-1.1 1.2-.9.7-2 1-2.9 1.2-.2 0-.4 0-.5.1 2.2 0 4.3-.6 6-1.6 2.8-1.7 2.4-6.5-1.4-6.5-.2 0-.4 0-.5.1-.2.1-.3.1-.4.3 0 .1-.1.1-.1.2v0c0-.1 0-.2.1-.2.1-.2.3-.3.4-.3.4-.1.8-.1 1.2-.1.2 0 .4.1.6.1.2.1.4.1.6.2.4.2.8.4 1.2.7.2.2.3.4.5.6.1.2.2.4.3.7 0 .6 0 1.1-.1 1.7zm-13.9 4.1c-1.2-.3-2.4-.6-3.6-1-2.7-.9-5.4-1.9-8-2.4-1.3-.3-2.6-.4-3.8-.4-1.2 0-2.4.2-3.4.6-.8.3-1.5.7-2 1.3.4.3.9.6 1.3 1 .1.1.2.3.3.4.3.6.3 1.5.7 2 .4.5.7.8 1.4 1.1 1.6.6 3.7.7 5.4.1 2.7-.9 5.4-1.9 8-2.3 1.2-.3 2.5-.4 3.7-.4z" fill="#75253f"/></svg>