<?xml version="1.0" encoding="utf-8"?>
<svg xmlns="http://www.w3.org/2000/svg" viewBox="0 0 180 62.2"><path fill="#fffded" d="M71.3 21.9c.1 0 .2.1.3.1l-.3-.1zm-46.7-7.3c-.3-.1-.5-.1-.8-.2.2.1.5.1.8.2zm97.2 20.1l-.2-.3-.3-.3c.1.2.2.4.5.6zM45 26.5l-.2-.1v.1c.1-.1.2-.1.2 0zm-10.1 3.4c.6 1.2 2.4 2.2 4.1 2.5-.1-.1-.2-.2-.3-.2-1.3-.3-3-1.3-3.8-2.3zm34.2 22.6c0 .3 0 .6-.1.8 0-.3.1-.5.1-.8zM40 32.2zm5.5-4.6l-.2-.5-.1-.1c0 .1 0 .2.1.3 0 .1.1.2.2.3l-.2-.2.3.7.1.1.1.2c.1-.1 0-.3 0-.4v-.1l-.1-.1-.2-.2zM33 14.8l-.4.3c.1 0 .1-.1.2-.1l.2-.2zm11.9 12c.1.1.1.2.2.4l.2.2v-.1c-.2-.2-.3-.3-.4-.5zm-19-9.8c-2.6-.6-9.2-1.2-14.9.8-1.3.3-2.4.8-3.4 1.4 6.1-3.1 15.1-3.6 19.9-1.4l1.4.5-.3-.3h.1c.2.1.4.2.7.3-.2-.1-.4-.3-.6-.4l-2.9-.9zm18.5 12.6l.1-.3-.1.3c0-.1 0 0 0 0zm33-9.1l-1 .1h-.1l1.1-.1zm-7.7 1.7c-.2 0-.3-.1-.5-.1.2.1.3.1.5.1zm-1.1-1.6h-.1l-1.1-.2 1.2.2zm20.5 1.6c.4-.1.9-.1 1.4 0-.6-.2-1.3-.3-1.8-.4l-.4.4h.8zM77 21.5c-.3.1-.7.2-1.3.2 1.4 0 3 0 4.7-.2-1.1.1-2.3 0-3.4 0zm-32.6 8.1l-.2.4c.1-.2.2-.3.2-.4zm-1.8-14.2c-1.8.1-3.5.3-4.9.7-.3.1-.6.3-.9.5 1.6-.6 3.6-1 5.8-1.2zm0 0c5.2-.5 11.7 0 18.4 1.8 10.9 3.5 23 2.8 24.2-3.9-.4 5.1-7 7.1-14.7 6.6 3.3.4 6.6.5 9.4-.5-.6.3-1.4.5-2.2.8-.5.2-.8.3-1.3.4H76c-.2 0-.3.1-.5.1 1.2.1 2.4.1 3.4.1h.7c3-.5 6.3-1.2 9.3-2.6 1.7-.8 2.9-1.9 3.7-3l.1-.3c.2-.2.2-.5.3-.8 0 .1-.1.1-.1.2l-.2.4.2-.6c-.6 1.1-1.4 2-2.1 2.5l-.4.4.7-.8c.3-.2.5-.6.7-1.1l-.3.3c-1.5 1.8-3.6 2.9-5.1 3.4l-1 .3 1.8-.7c1.2-.6 4.2-2.9 4.9-5.9.1-.2.1-.3.1-.5-.1.2-.3.5-.5.7-1.4 2.1-3.4 3.4-4.7 3.5 1.2-.5 2.8-1.9 4-3.8 1.5-1.9 1.1-3.8 0-4.5-.1.1-.3.1-.5.2-.1.1-.1.1-.2.1-.6.3-1.1.7-1.3 1.1v1c.1.3.4.6.8.9l-.2-.1c-.1-.1-.2-.1-.3-.2l.1.1c-.2.1-.4.2-.6.2h.8c-.5.4-2.3 1.1-3.5-.5-.3-.5-.4-.9-.3-1.3-.8.4-2 .5-2.9.3-1.4.6-1.7 1.6-1.3 2.4.2.1.4.2.5.2h-.4c.6.3.8.3 1-.3.1-.1.1-.2.1-.3.5 0 .7.4.7.9 0 .1 0 .3-.1.5-.2.6-.7 1.2-1.4 1.3-.7.4-1.5.7-2 .5-3-.4-3.8-3.2-3.7-5.4.1-2.6 1.5-3.9 3.2-4.5-1.3-.4-2.7-1.2-2-3.1 0-.6.4-1.2.8-1.2 2.1-1.6 5.9.2 6.5 2.2C91.1.3 96.5 6.5 97.2 8.7l-.1-.2c-.5-.9-1.9-2.6-3.8-3.8l-1-.1c-1.1-.1-3.8-.1-6.1-.3H86c1.6.3 3.1.5 4.1.4h.9l-1.6.1c-.3.2-1.1.2-2 .2h-.6c-.1 0-.3.1-.6.1.1.1.3.1.4.1h.4c2.7-.1 5.3.2 7.1.9l1.3.4-2.3-.7c-1.1-.3-3.4-.3-5.8 0h-.1c-.3 0-.5.1-.7.1.1.1.2.2.3.2l.2.1h-.3s0 .1-.1.1c.7-.1 1.6-.1 2.2 0 .5 0 .9-.1 1.3 0 1.4-.3 3.3.4 4.2.5l.4.1h-.6c2.3.5 4.8 2.7 3.9 5.8-1.7 5.3-6.1 8.2-9.3 9.1h-.3c-3.8 4-13.1 2-18.7.4 4.3 1.1 14 1.3 18.1-.4h-.4c.2 0 .4-.1.7-.1.3-.2.6-.3.8-.5-.9.2-1.7.4-2.3.3.7 0 1.6-.2 2.6-.6v-.1c-.2.1-.4.2-.6.2-5.8 1.6-12.2 1.6-16.8.4 2.2.4 6.6.6 11.3-.1-.9.1-1.8.2-2.7.2 2.5-.3 5.2-.9 7.8-2-.2.1-.5.1-.7.2-3.4 1.1-7 1.6-10.3 1.7-.1 0-.1.1-.2.1-1.2-.1-2.3-.1-3.4-.3-1.1 0-2.2-.1-3.2-.3h-.2l1.1.4c-.4-.1-.8-.3-1.2-.4H69.8l-.2-.1c-.3 0-.6-.1-.8-.2h-.3l-.6-.3c-1.2-.2-2.2-.4-2.8-.8-2.1-.5-4-1.1-5.3-1.8-6.7-1.1-20.4-.8-24.1 1.1 5.2-3.9 16.2-3.1 23.8-1.2-.5-.2-.9-.5-1.2-.8-5.8-1.3-11.2-1.7-15.7-1.4zM86.8 3h.2c1.3 0 2.5.4 3.5.8.2.1.5.2.7.3.7.2 1.3.3 1.8.4l.3.1c-1.8-1.2-4-2-6.5-1.6zm-1.4 3.3c-.1 0-.3.1-.4.1.3-.1.6-.1.9-.1h-.5zM80.1.6c.9.9 2.7 1.7 4.1 2.4h.3C83.1 1.2 81.6.4 80.1.6zm-.9.8l.3-.3c-.1.7 1.3 1.5 3.1 2.2.1-.1.3-.1.4-.1.1-.1.3-.1.4-.1-1.4-.2-4-1.2-3.7-2.3-.2 0-.4.1-.5.3v.3zm2 3.8s-.1.1-.2.1c.1 0 .2 0 .2-.1zm-1.3-.4c-.3-.1-.7-.3-1.1-.5.4.2.7.4 1.1.5zm3.8.9c-.5 0-.9-.1-1.4-.2h-.2c-.4 0-.8.1-1.1.3.3 0 .5-.1.7-.1l.6-.2L81 6c-1.1.4-2.1 2.9-1.2 4.7-.4-1.9 1.1-4.9 3.9-5zm0 1.1c-.1 0-.2.1-.3.1-3.3.9-3.1 3.2-2.4 4.5-.1-.7.2-1.5 1-2.1 0-1.3.7-2 1.7-2.5zm2.5 1.9c.1-.1.2-.3.3-.4 0-.2.2-.4.4-.6l.2-.2c.1-.2.3-.4.8-.8-2.6.5-5.6 1.6-5.7 2.5l.6-.3c1.8.1 2.8.2 3.4-.2zm2.5 2.5c-.6-.1-1.2-.6-1.5-1.3-.3-.1-.4-.3-.5-.6l-.2-.2c-.1.4-.1.8.2 1.2.5.7 1.3.9 2 .9zm1.2-3.1c-.3.2-.6.5-.8.8v.2c.2-.4.4-.7.8-1zm3.2 7.9c1.3-1.3 2.3-2.8 2.6-4.2.6-2.1-.7-3.4-1.3-4.2-.3-.1-.6-.1-.9-.1 2 2 1.6 5.6-.4 8.5zm-4.9 4.6c-.7.3-1.5.5-2.2.7 1.3-.3 2.7-.8 4-1.3 6-2.5 7.7-7.7 7.1-10.4-.4-.8-1.1-1.4-1.9-1.7 3.8 3.2-1.3 10.9-7 12.7zm-11.7.6c.9-.1 2-.2 3-.4l-1.1.1c-.4.1-1.1.2-1.9.3zm12.1 1.2c.2-.1.3-.1.5-.2 2.4.2 5.7 1.5 7.2 5.1 3 5.2-2.7 9-4.8 7.7-1.4.8-3.2.7-4.2-.9-2.4-2.5-.5-5.4.3-6.5l-.1.3c-.8 1.3-1.9 4.2.4 6 2.1 2.7 6.5-.4 4.3-3.8-.3-.5-.7-.9-1.1-1.3.2 1.1.5 2.3 1 3.2l-.3-.4c-.5-.1-1.5-1.6-1.7-2.8-.1 0-.1.1-.1.1 0 1.2.4 3.1.9 3.8l.3.4-.5-.6c-.7 0-2.3-4.5-1.3-4.9-1.6.2-1.7 5.1.4 6.4l.4.4-.8-.7c-.6-.5-2.3-2-2.1-4.2-.2-1.5.7-2.3 1.5-2.5-3.9-2.2-8.6-1.8-11.1-1.5.1 0 .2.1.3.1 1 0 2.2.4 3.1 1.7.2.5.4.9.6 1.4.2.2.2.5.2.7.1.3.2.6.2.9.2.3.4.6.5.9.1.1.1.1.2.1h-.2c.1.3.1.5 0 .8-.1-.2-.3-.3-.4-.5v.4c-.1-.2-.1-.4-.2-.6l-.2-.2C79 31 73.9 30.9 70 27c-4.4-4.5-9.8-3.9-12.5-3.9 2.5-.4 8.5-1.3 13 3.1 1.9 1.9 4 2.9 6 3.5-1.8-.8-3.6-2-4.6-2.9l-.6-.4 1.1.7c.4.4 1.1.8 2 1.1-.4-.2-.8-.4-1.1-.6l-.4-.2.8.3c.3.2 1 .3 1.8.5-1.3-.6-2.5-1.3-3.5-1.7l-.7-.3 1.2.5c.9.3 2.9.9 4.8 1.5-2.3-1.2-4.8-2.3-6.7-3.1l-.9-.4 1.6.6c.8.1 2.5.7 4.4 1.4-.1-.1-.2-.2-.3-.2l-.3-.2.6.3c.1 0 .2.1.4.1l-.1-.1.4.1c.1 0 .3.1.4.1.1.1.3.1.6.2-.5-.3-1-.7-1.5-.9-.8-.4-1.7-.7-2.4-.9l-.7-.2 1.1.2c.6-.1 1.9.2 3.3.7l-.2-.2c-.1 0-.2-.1-.3-.1h.2c-.1-.1-.3-.1-.4-.2l-.2-.1.4.1c.2 0 .5 0 .9.1 3.1-.8 10.6-2 15.2 4.2.8 1.1.9 2.2.6 3.2l-.2.1c-.4.6-.9 1-1.4 1.3.4.1.9.1 1.4 0l.6-.7.2-.2-.8.9c2.2-.6 4.8-3.5 2.8-7.2.6 1.3.8 2.7.4 3.8l-.2.8.3-1.5c.6-3.2-6.5-8.2-7.9-7.8zm-7.6 7c.2.1.3.2.4.3-.1-.1-.2-.3-.3-.4l-.1.1zm-.3 1.5c.3.1.6.1.9.2-.1-.1-.3-.2-.4-.3-.1 0-.3.1-.5.1zm9-3.3h-.1.1zm79.4 26l-.9.4c.4-.1.7-.2.9-.4zM34.2 28c0-.1 0-.2.1-.3-.1 0-.1.1-.1.3zm48.5-16c-.1 0-.2-.1-.3-.1.1.1.2.1.3.1zm11 20.6l-.1.1-.2.2c-.1.3-.2.6-.4.8l.7-1.1zm-8.5-19.2c.6.5 1.4 1 1.2 2.3-.3 1.2-1.2 1.6-1.8 2.1.5-.1 1.8-.3 2.4-1.6 0-.1.1-.2.1-.3.3-1.8-1.3-2.5-1.9-2.5zM32.4 39.3v.3c.1.4.1.8.1 1.2 0-.5-.1-1-.1-1.5zm33.5-18.2l1.5.5c.5.2 1.1.3 1.8.5-.2-.1-.4-.1-.6-.2-.9-.2-1.8-.5-2.7-.8zm-2.7 36.8c.5-.2 1-.4 1.1-.9.1-.1.1-.2.1-.4-.3.6-.7 1-1.2 1.3zm52.4-9.3s.1 0 .1-.1c0 0-.1 0-.1.1zm12.7-19.2l.7 1.1h.1c-.1-.2-.2-.4-.4-.5l-.4-.6zm-18.7 18.3h1.2-1.1-.1zm57.4 6.1c0 .3 0 .4.1.6-.1-.2-.1-.4-.1-.6zM4.2 22.6c4.7-2.9 14.7-4.6 21.5-3.8-7.4-1.5-16.9-.4-21.5 3.8zm27.2-1.9c-1.3-1-3.3-1.6-5.7-1.9 2.1.4 4.1 1.1 5.7 1.9zm87.9 11.8v-.3V32.5zM24.7 14.7c.2.1.4.1.6.2l1.8.7-1-.4c-.4-.2-.9-.4-1.4-.5zm38.5 43.2c-.4.1-.7.3-1 .5.3-.1.7-.3 1-.5zM42.5 32.4c.6-.2 1-.7 1.4-1.3-.3.4-.8.9-1.4 1.3zM179 55c-2.2 5.9-9.1 8.4-14 6.5-5.6-2-5.8-9.5-1.5-11.4 3.6-3 8.1 1.8 5.5 3.4 2.5-2.9-3.4-5.7-6-2.4-3.3 2.6-1.5 8.6 3.2 9.6 1.1.2 2.2.3 3.4.1h-.7c-2.8.2-6.5-1.8-6-4.7.1-2.7 2.6-3 3.1-2.6.5-.3 1-.3 1.1.1-.1.1-.1.1-.2.1v.1c-.2.1-.3.2-.4.3-1.7 1.2 3.5 5 6.5 2.4 3.5-1.5 5.5-5.9 5.2-9-.3-1.2-.9-2.4-1.6-3.5 2.1 5.4-1.1 12.1-5.9 12.5-1.5.2-3.2-.6-3.6-2.1 1 2.8 5.3 2.1 7.1.2 2.2-1.6 4.2-7.8.9-12.3-.9-.9-2-1.6-3.3-2.1-3.6-1.4-7.2-1.9-10.7-1.8-3.8.4-7.6 1.3-11.2 2.4-15.4 4.4-29.5 10.6-33 9.6 3.9-.8 8.6-2.5 13.8-4.4-4 1.1-7.7 1.8-10.9 2.1-.7.2-1.2.3-1.7.4l.3-.1c.2 0 .3-.1.5-.2-.6.1-1.3.1-1.9.1-.5.1-.9.2-1.3.2h-1.4c1.1 1.3-.8 4.3-2.9 5.2 2.1-.8 3.8-1.8 4.8-3.2l-.3.5c-1.9 2.7-6.3 4.5-11.8 4.8-.1 0-.2.1-.3.1 7.5 0 17.5-1.7 27.6-6.3 14.9-6.6 28.8-10.8 36.3-10.1l-.7.1c-.5 0-1.1 0-1.7.1 4.8.3 9 3.7 9.3 7.8.2 4.2-3.7 9.8-6.6 6.5l.9.6c3.2 1.1 5.9-4.5 4.8-8.2-1.1-4.4-6.7-6.6-11.9-5.4-2.6.6-5.3 1.5-8 2.6 3.2-1 7.1-.9 8.5 3.5 1.6 5.8-7.8 10.2-9.3 3.7.2-2.2 1.8-4.2 3.8-3.3 1.6 1.5-.2 2.5-.4 2.5 1.3-4.3-4 1.2-.5 1.8 2.9 1.4 6-3.5 3.9-6-6.3-3.3-14.9 3.7-20.4 4.6-3.8 1.8-7.8 3.4-12.1 4.6-13.4 3.7-27.4 4.6-37.8-.4-10.2-4.6-17-11.1-21.9-15 1.5 2.5 2.8 5.4 3.4 8.8 1.4 5-1.5 10.5-5.6 11.7-3.5 1.1-6.8.7-8.6-.5-.3-.1-.6-.3-.8-.5-2 .5-5.7-2.2-5.1-6.5.6-4.8 5.6-5.1 6.1-7 0 .3-.1.5-.3.8 1.8 1.7-1.5 4.1-2.8 5-1.1 1.7-.3 4.1 1.1 5.2-.1-.4-.1-.7 0-1-.1-.2-.2-.3-.2-.5l-.1.2V55l-.1-.1c-1.4-2.3 3.8-6.7 2.8-8.1.7.5.9 1.1.8 1.7.1-.1.2-.1.3-.1 0-.5.1-1-.3-1.5-.5-.6-1.1-1.1-1.3-1.5.4 0 1.2.3 1.8 1.1.5.7.3 1.4 0 1.8h.3c2 .1 3.4 1 4 1.6h-.1c-.1 0-.3-.1-.4-.1v.1c.1.1.2.1.3.2-.1.1-.2.1-.3.2 0 .1 0 .3-.1.4.2-.3.4-.5.6-.7-.2.2-.4.5-.6.8v.2c0 .1.1.1.1.1-.1.2-.2.4-.3.5-.2.3-.5.7-.8 1 0 .1 0 .2-.1.3 0 .6-.4 1-.9 1.3h-.1c-.7.4-1.6.5-2.2.4-1.2.1-2.1.3-1.4 2.3 3.5 4.1 7.9-5 6.3-9.7-2-9.8-9.3-15.5-14.8-18.2 2.3 2.9-1.4 9.2-6.6 9.1-6.3.4-8-6.2-9.7-8.8l-.8-1.1c-1.1-1-2.8-2.1-5-3.1 1.8 1.2 3.4 3.3 4.3 5.8 1.4 2 2.1 5.2 1.8 8 .1.2.1.5.2.7 0 .1-.1.3-.1.4 0 .6 0 1.2-.1 1.7v1.4l-.1-1.3c0 2.1-.8 4.8-1.9 6.2l-.2.5.3-.8c-.7 1-1.4 1.8-2.2 2.3-2 2.3-4.8 4.2-8.5 4.6-10.4 2.2-11.8-10.9-8.8-11.5-2.8 0-2.7 5.4-1.2 8.3 1.8 3.8 7.2 5.2 11.7 4 7.6-1.2 11.1-8.5 11.2-14.6.1 3.9-1.7 9.6-6.2 12.9 3.6-2.6 6.1-6.5 7-10.2 1.7-6.5-1.1-11.8-3.2-14.9l.4.6c2.6 2.8 5.3 8.5 3.6 15.2-1.4 6.5-7.9 13.6-16.7 13.8C8 58.9 1.5 48 6.5 41.8c1.6-2.5 4.9-4 7.3-3.1-2.4-2.1-1.7-6.5.9-7.5 2.3-1.3 5.6-.8 6 1.7-.2 2.5-2.5 1.9-2.7 1.6 2.3.2 2.1-2.5.2-2.5-1.8 0-3.9 1.1-3.9 3 .1 4.4 7.8 4.2 8.7-1.1.6-11-18.3-12-21.4-4.3-.6 1.2-.8 2.5-.8 3.9-.1-2.4.8-4.9 2.6-6.5 1.9-2 6.6-3.8 12-3 5.1 0 12.7 6.9 7.9 13.4-1.6 2.4-5.1 3.5-7.7 2.3 1.7 2-.3 5.4-2.2 4.2 2.2 1.1 3.7-3 1.3-4.3-2.1-1.5-5.6-.1-7.1 2.6-4.3 5.7 1.7 14.9 10 14.5 2.4-.1 4.6-.7 6.6-1.7-1.6.7-3.5 1.2-5.6 1.2C5.1 58 7.2 38 12.1 43.6h.4l-.2.2c.1 0 .1 0 .2.1-.1-.1-.2-.1-.3-.1-3.9 2.9 2.2 10.5 8.4 8.6 1.1-.2 2.1-.5 3-1h-.2l-.9.3 1.6-.7h.1c1.1-.7 2.1-1.6 3-2.7-2.2 2-4.8 3.2-7.2 2.9l-1.4.2 2.4-.5c1.1-.2 3.1-1 5-2.4h-.4c-.8.5-1.7.9-2.5 1-5.7 2.7-12.4-2.5-10-6-1.8 3.6 4.9 7.9 10 4.9 5.4-2.1 8.9-10.1 6-16.8C21 19.2 4.4 23.1.7 29.2c-.1.4-.2.8-.1 1.3 0-.2-.1-.4-.1-.6v.1l-.3.5c0-.3.2-.6.3-.8-.2-1.1.2-2.1 1-3.1-.8-3.3 2.4-9.7 9.1-11.8 6.5-2.5 12.7-2 15.7-.8 0-1.5 1.2-3.8 4-3.9 2.8-.2 4.9-.9 5.4-2.3h-.5c.2-.1.4-.1.6-.1.1-.1.1-.1.1-.2v.2c1.3.1 2.9 1.9 2.6 4.3-.1 1.3-.9 2.1-1.7 2.6.7.1 1.2.5 1.5.9.5-.1.9-.1 1.2 0-.3 0-.6.1-1 .2v.1c0-.1-.1-.1-.1-.1-.2.1-.5.2-.7.3-.5.1-.9.2-1.4.4-.6.4-1.3.9-2 1.5-1.8 1.6-3.7 1.2-4.9.4 1.2.5 3 .8 4.6-.6l.1-.1c1.3-1.1 2.7-1.9 3.9-2.2-.4-.2-.8-.3-1.4-.4-.9 0-1.7.2-2.2.3l.3-.3h-.5c1-.4 3.5-.8 3.7-3.3.2-2-.8-3.6-1.9-3.9 0 1.4-2 2.4-4.2 2.8 1.4-.2 2.7-.3 3.7-.8l.8-.4-1.4.7c-.1 0-.4.1-.6.2.3 0 .7 0 .9.1h.7l-1.3.2c-1.5 0-3.7 1.5-4.9 3.1 1.2-1.4 4.3-2.1 5.3-2.2l.5-.1-.9.3c-1.2.4-3.6 2-4.6 3.3.2 0 .3 0 .5.2.6-1.4 3.1-2.1 4.1-1.5h-.3c-1.1-.2-2.1 1-3 1.8.4-.1.9-.1 1.3-.4-.2.6-1.7 1.3-2.7 1.2h-.1c.2.1.4.2 1 .1h.2l-.3.2c0 .1-.1.1-.1.2l-.1.1c1.3-.1 2.8-.2 3.7-1.2l.3-.3-.5.6c-.1 1.2-3.3 2.2-4.7 1.7-.5 0-1.1-.5-1.4-1-.9-.6-1.6-2.8-.7-4.3-.3.5-.5 1.1-.6 1.7 0 .2-.1.5-.1.7-.1-.2-.2-.4-.2-.7-1.4-.2-3.5-.3-5.8-.1 1.2.1 2.3.3 3.3.5-1.9-.3-4.8-.2-7.4.1l-2.4.6c-.2.1-.4.1-.6.2-.2.1-.3.2-.5.2-.7.2-1.3.4-1.9.6-.3.1-.7.3-1 .4 5.3-1.9 11.7-2.1 15.3-.6l1.9.6-3.3-1c-2.6-.5-9-.6-14.4 1.5C6 18.4 3.7 21 2.6 23c0 .1 0 .2-.1.3-.2.4-.4.8-.5 1.2 1-2.2 3-4 5.6-5.3-1.6 1-2.9 2.1-3.8 3.3.1-.1.3-.2.4-.3-1 1-1.8 2-2.3 3.3 2.6-2.6 7.9-4.4 13-4.3 8.4-.5 14.9 3.9 16.9 6.9l-.3-.2c.5.5.9 1.1 1.4 1.8-.2-.5-.2-.9-.2-1.4.1.5.2 1 .3 1.6l.1.1c.2.4.5.9.9 1.5-.3-.5-.6-1-.8-1.5 2.2 3.6 10.3 7.2 13 .2.1-.6 0-1.2-.1-1.7 0 .1-.1.2-.1.3v1c0-.6 0-1.2-.1-1.7l-.1-.2c0-.1 0-.3-.1-.3-.1-.2-.2-.3-.4-.5l-.3-.6c.1 0 .1.1.2.1-.4-.5-.7-1-1.1-1.4.3.4.6.8.8 1.1l-.5-.2c.2.2.4.4.5.7-.3-.3-.6-.6-1-.9-1.1-.2-2.5 0-3.6 1.1-2.4 1.8-1.2 3.3-.4 4.1.2-.8.3-2.7 2.4-3.2 1.2-.2 2 .3 2.4 1 .4.7.5 1.5.2 1.8v-.1c.1-.4-.1-.9-.4-1.3-.4-.6-1.1-1-2.1-.8-1.4.2-1.9 1.9-2.4 2.6l.3.3c-.3.1-.5.1-.8 0 .2.1.3.2.5.2l.2.1h.2l.3.1h-.6s-.1.1-.2.1c.3 0 .6 0 .9-.1l.6-.1-1 .3c-.1.1-.3.2-.4.2l-.4-.1c.1 0 .2.1.4.1-.3.1-.8.1-1.2 0-.2-.1-.3-.2-.5-.4-1.3.2-3.8-1.9-3.3-2.9h-.3c0 .4 0 .7.2 1-.5-.6-.7-1.2-.4-1.6-.1 0-.2-.1-.3-.1 0 3.4 5.3 5.5 8.4 3.8-1.3 1-3.3 1.6-5.3.8-2.6-.8-3.1-3.1-3.1-4.5-.6-.3-1-.7-1.3-1.1v.3c-.1.2-.1.3-.1.4v-.7c-.4-.5-.5-1.1-.5-1.6-.1-.2 0-.4 0-.7v-.1l.2.2c-.2-.4-.1-.8.4-1.1 0 .3.2.7.4 1h1c.1-.1.3-.2.4-.3-1.6-1.5-4.7-3.4-8.6-4.3-4.4-1.1-8.3-.5-10.2.3 1.7-1.2 5.9-2.1 10.4-1 4.1 1 7.1 3.2 8.5 4.9 1.1-1 2.4-2.3 4.5-2.1 2.9-.2 6 2 7.1 5.3.4.2.8.3 1.3.5v-.1c.1 0 .2.1.3.2 5.3 2.3 13.4 8.1 15.6 18.6-.6-3.5-2-7.5-4.8-10.5-4.7-6.1-10.9-9.6-12.4-9.9 1.7.1 3.5.7 5.2 1.7-2.3-1.4-4.1-2.3-4.8-2.5 4.9.4 11.3 5.3 15.2 11.7 3 5.4 4.4 12.1 3.3 17 .5-3.8-.4-12.4-5.2-18.3-1.8-2.5-3.9-4.5-6-6.1 7.4 6.1 13.4 18.5 8.5 25.9-.3.4-.6.6-.9.9.7-.8 1.3-1.7 1.7-2.7.4-1 .6-2.7.5-4.6-.1 3.5-2 7.9-4.5 8.6.5 0 .9-.1 1.4-.2 2-.9 3.3-3.2 3.9-4.7l.4-.9-.6 1.7c-.2.5-.5 1.4-1.1 2.3-.1.1-.2.3-.3.5l-.1.1c0 .1-.1.1-.1.2-.6.9-1.5 1.7-2.8 2h.4l.4.1h-.7c-.1 0-.3.1-.5.1 1.5.1 3.2-.3 4.1-1.5l.7-.5-1.1 1c-.6.5-2.5 1.9-4.7 1.8 1.7.2 3.9-.1 5.9-1l1.6-3.6c1-2.9.9-10.2-2.6-16-3-6-8.1-9.6-8.8-10.9 7.8 3 16.2 20 10.7 28.5l-.9 2c1.2-.6 2.4-1.4 3.3-2.4l.7-2c.1-.3.2-.7.3-1-.1.8-.4 1.6-.7 2.3l-.2.6c1.6-1.9 2.4-4.5 1.5-8.1-.5-3.1-1.6-5.7-2.9-8.1 1.8 3.9 2.8 8.3 2.5 12.1.3-6.8-7.7-19.6-9.4-20.7.1.1.3.2.5.3-.9-.8-1.6-1.6-2.2-2.2 2.3 1.7 6.4 4.8 9.5 9.7 1.2.8 2.4 1.7 3.9 2.8-4.6-4.1-7.8-8.1-10.1-10.5-.2-.1-.3-.3-.5-.4.1.1.2.1.3.2 4.3 2.9 9.7 6.8 15.8 10.4-1.2-.7-2.4-1.5-3.6-2.3-6.6-4.2-12.2-9-16.2-11.5 4.9 2.1 10.2 5.9 15.9 9.8-9.6-8.8-20.5-13-23.3-12.7 8.3-1 18 7.1 26.9 14.4C83.9 45 92.4 49 99.9 50.4h.9l2.6-.1c-.7.1-1.5.2-2.3.2 1.8.3 3.5.4 5.2.3-1.1.1-2.2.1-3.3 0-1 .1-2.3-.1-3.7-.3-1.7-.1-3.3-.4-5-.9 1.3.3 2.5.5 3.6.7-3.8-.8-8.6-2.5-13.5-4.9 2.8 1.5 5.7 2.9 8.5 3.8-4.7-1.4-10.4-3.8-15.8-7 7 4.1 14.7 7.8 21.8 8.8-5.7-.6-14.3-2.8-21.4-7.4-5.9-2.8-10.6-6.8-13.9-9.7 4.9 4.5 12.4 12 22.9 16.6 5.9 2.9 12.1 4.1 17.4 4.1.2-.5.5-.3.8 0 1.5 0 2.8-.2 4.1-.4-2.4.3-4.7 0-6.4-.1l-1.1-.1h2c1.4-.1 5.2 0 7.9-1.6s3.1-3.4 2.5-4.3c-.2 0-.4-.1-.5-.2h.4c0-.1-.1-.1-.2-.2h-.7c3.2 1.2-1.8 4.9-4.1 5.4-2.9.6-5.8.6-8 .1 1.5.1 5.5.1 8.4-1.3 3.3-1.6 4.7-3.5 3.5-4.2h-1.7c2.9-.1 6.5-.4 9.8-2.3-1.5-1.9-5.5-1-9.1 1.3-.6.5-1.1.8-1.8 1-.3 0-.6 0-.9-.1-3.1.9-6.1-.3-7.3-1.3-2.4.4-5 .3-7.8-.9-7.7-2.6-14.4-6.4-16.5-8.6-.9-.5-1.7-1-2.6-1.5.1.1.3.2.4.3 8 5.6 16.5 11.4 23.9 12.5 1.2.2 2.4.1 3.6.2-2.2.1-4.3-.2-6.4-.7-9.7-.4-33-21.7-41.7-23.2.8 0 1.6 0 2.4.2l-.9-.3c.3 0 .6.1 1 .3 2.7.6 5.6 2 8.4 3.8 4.7 2.6 9.7 5.9 14.9 9 8.5 4.2 20.5 12 26.1 4.3-.4 1-1 1.8-2 2.3-2.8 1.6-6.7 1.4-11.1.1l3 .9c3.1 1.2 5.9.8 8.5-.2h-.6l.8-.1c.3-.1.6-.3.9-.4 0-.1-.1-.1-.1-.1.5-.3 1.2-.8 1.7-1.5.1-.5.4-.9.8-1.3.3-.7.6-1.5.5-2.2v-.5l.1.8c.1 0 .1.1.1.1 0-1.2-.3-2.4-1.3-3.1.1 0 .2.1.3.1.8 1 1.1 2.1 1.1 3.1.2-1.4.7-2.9 2.8-3.7 3.2-.1 5.8.6 7.4.1-2.2-.3-5-2.7-3-6.2 2.9-3.8 8.5-3.3 8.9-.9l-.1-.1c-.6-1.2-2.5-1.6-4.5-1 1.8-.2 3.5.5 4.3 1.4l.4.4c.6.2 1.3.6 1.9 1.2 1.5 1.7 2.2 4.1 2 6.5.4-2.6.1-5.2-1.4-6.8l-.7-.6 1.3 1.1c.8.4 1.3 1.5 1.5 2.8 0-.3.1-.5.1-.7-.2-1-.4-1.9-.8-2.7.8.4 1.2 1.7 1.5 3.2v-.2c-.1-1.5-.4-2.9-1.3-3.9l-.3-.5.7.9c.5.2 1 .8 1.3 1.7v-.4l.2.3c.1 0 .1.1.2.1-.2-.7-.5-1.3-1-1.8-1.7-1.7-5.5-2.8-4.3-.4-2-2.5 3.1-2.3 4.9-.4 2.5 2.2 2.1 6.5.6 9.7-1.8 3.6-4.4 5.9-7 7.3 4.3-1.5 9.3-2.8 13.8-5.6 4-2.5 8.1-6.2 10.5-10.7.4-1 .9-2 1.1-3.1 1.4-2.3-.2-10.6-7.2-9.9-6.6-.1-5.5 7.8-3.4 6.9-1.8 1-3.4-2.5-2.3-4.6 1.3-2.7 4.6-3.7 7.4-3 5.3.7 6.6 5.8 6 9.5.2-1 .4-1.9.4-2.9.2-3.3-1.7-5.7-4.3-6.9 1.6 1 2.8 2.5 3.3 3.8l.8 1.5c-.5-.8-1-1.7-1.6-2.5-.8-2.2-6.7-5.3-10.7-1.8-3.3 2.4-2.1 6.9-.7 7.5-1.9.3-2.8-2.2-2.3-4.7 0 .1-.1.2-.1.3-1.9 3.3.2 7.9 3.9 8.2 3.4.4 6.9-4.3 3.7-6.5-.1-.2-.3-.3-.4-.4 1.8.8 2.3 3.2 1.2 4.7-1.2 1.6-4.2 3.7-7.3 1.6-3.2-1.8-3.3-7-.6-10.2 2.4-3.6 8.1-4.9 12.2-2.3 4.6 2.3 5.4 8.5 3.9 12.8-3 7.5-8.1 12.1-13.3 14.9.1 0 .2-.1.3-.1 9.2-2.7 21.1-8.6 33.6-3.6 6.6 2.5 8.9 10.5 6.5 16zm-47.9-23.1s.1.1.1.2c0-.1 0-.3-.1-.5v.3zm-14.6-.3c-.1-.1-.1-.1-.1-.2v.8c0-.2 0-.4.1-.6zM35.1 25c1.2-.3 2.5-1.1 4.2-1.5 1.1-.2 2.2.1 3.1.5-1-.5-2-.8-3-.8-1.7-.4-3.1.9-4.3 1.8zm-.1 0c-.1.1 0 .1 0 0zm2.4 3.2c.2-.3.3-.5.5-.7v-.2c-.4.2-.9.3-1.5.3-.4.1-1 0-1.5-.2-.2 0-.4-.1-.6-.1-.5 0-.9-.1-1.2-.2.2.4.6.7 1.1.9.2.1.4.1.7.2.9.2 1.8.2 2.5 0zm-.3 1.4c-.2 0-.2-.1-.3-.1.1.1.2.3.3.4-.1-.1-.1-.2 0-.3zm0-.8c-.1 0-.2.1-.4.1v.1c.2 0 .3.1.3.2v-.1c.1-.1.1-.2.1-.3zm1 2.9c-.3-.2-.5-.5-.7-.9 0 0-.1-.1-.1-.2l-.1-.1c-.1-.1-.4-.2-.7-.4.1.1.3.3.5.4l.1.2-.3-.2c-.4.1-1.4-.9-1.4-1.5h-.1c.2 1.1 1.5 2.3 2.8 2.7zm2.4-5.4h-.2v.1s.1-.1.2-.1zm3.5-.4l-.6-.3c-.5-.3-1.2-.4-2.1-.3.4.1.7.2 1.1.3.5-.1 1.1 0 1.6.3zm.6.2l.1.1-.1-.1zm-5.9-1.6c-.9.7-2 1.1-3.1 1.3 0 .1.1.1.1.1.1 0 .3 0 .6-.1 2.6-.6 5.7-1.9 7.7 0l.5.2c-.9-1.2-3.4-2.5-5.8-1.5zm-9.8-8.9c-.1-.1-.1 0 0 0zm.5-1.6c-.2.3-.4.7-.5 1 .1 0 .2-.1.3-.1 0-.3.1-.6.2-.9zm2.1-2.8c-.9.3-1.8.6-2.6 1.1-1.6 1-1 2.6-.8 3.6.1-.1.1-.2.2-.3-.8-1.6 1.1-3.4 3.2-4.4zm-3.7.6c.3-.2.7-.5 1.2-.6.9-.3 1.7-.4 2.4-.6-.2 0-.5.1-.8.1-1.3 0-2.2.5-2.8 1.1zM1.9 24.7v0zm-.2.6s0-.1.1-.1v-.1c0 .1 0 .2-.1.2zm-.2 1.1c0-.1.1-.2.2-.3v-.4c-.1.1-.1.2-.2.3v.4zm1.4-.4c-1.2.8-2 1.9-2.3 3 .4-1 1.2-2.1 2.3-3zm23.7 22.1c-.3.1-.6.2-.8.3l-.1.1.4-.1h.1c.2-.1.3-.2.4-.3zm-14.9-4.8c.1.1.1.1.2.1 0 0-.1 0-.2-.1zm13.5 7.2c1-.5 1.9-1.6 2.7-2.8l-.2.2c-.7 1-1.5 1.9-2.5 2.6zm4.5-2.5c-.3.5-.6.9-1 1.4.4-.3.7-.8 1-1.4zm.6-2.1c-1.3 2.4-3.4 4.5-5.6 5.2-1.6 1.2-3.5 1.9-5.9 1.9-7.6.7-9.3-7.8-7.4-9.3-2.3.3-1.9 5.2-.2 7.4 2.1 3.1 6.9 3.8 10.8 2.7 3.7-1.3 6.5-4.1 8.2-7.3 0-.1.1-.2.1-.3v-.3zm17.6-17.4c-.5-.2-.9-.4-1.3-.6.3.9.5 1.8.4 2.7-.8 5.4-7.3 5.2-10 3.6-1.3-.5-2.2-1.3-2.9-2.2 1.6 2.4 4.8 5.8 8.8 4 4.9-1.7 5.1-5.7 5-7.5zm13.7 21.4h.5c.1-.1.2-.1.3-.1-.2 0-.3 0-.5-.1-.1.1-.2.2-.3.2zm-6.9 3.7c-.2.4-.2.8 0 1.2v-1.2zm3.3-4.1c.2-.1.3-.1.4-.2-.2 0-.3.1-.4.2zm-2.6 6c0-.1.1-.1 0 0v-.2.2zm.5 3.6c-.6-.6-.9-1.4-.9-2.1-.1-.1-.1-.2-.1-.3l-.2-.2c-.9-.5-3.3-3.5-1.1-6.2 2.4-1.6 3-2.9 2.9-3.8-1.3 1.5-4.8 2.7-5 6.1-.5 4 2.4 6.3 4.4 6.5zm.1-3.8c.4-.9 1.6-1 2.8-1.1 0 0 .1 0 .2-.1-.4.1-.7.1-1 .1l-.3.1.4-.2c.4 0 .8-.4 1.2-.8H58l.4-.1c.1-.1.1-.1.2-.1l.1-.1c.3-.2.8-.6 1.3-1 0-.2.1-.4.2-.7-1.5.5-3.2.9-4.1 1.9l-.2.2.4-.5c.3-.5 1.2-1.2 2.2-1.8-.7.3-1.3.7-1.8 1.2l-.3.3-.3.3c-.1.2-.2.4-.2.5-.3.7-.4 1.3-.2 1.9H56zm.9 2.4c-.3-.1-.5-.3-.8-.6v.1c.2.1.3.3.5.4.1 0 .2.1.3.1zm43-1.9c1.1.1 2.3.1 3.5.1-.1 0-.1 0-.2-.1h-3.3zm50.5-10.5c-2.5 1.2-5.2 2.5-7.9 3.8 1.9-.8 4.6-1.9 7.6-3.6.1-.1.2-.1.3-.2zm-54.9 9.9c-2.4-.5-4.8-1.1-7.1-2.1.5.2.9.4 1.4.6 10.2 4.7 23.8 3.6 37.1 0 9.6-2.6 18-7.7 26.2-11-6.3 2-13.5 4.8-21.2 8.2-14.5 6.5-29.3 6.8-36.4 4.3zm28.3-26.5c.3.2.5.4.7.7l.2.1c.2 0 .3.1.5.1l-.9-.7c-.2-.1-.4-.1-.5-.2zm-2.6.3c.9 0 1.7.1 2.3.4l.1.1c.3 0 .7 0 1 .1l-.6-.4c-.1-.1-.3-.2-.4-.3l-.7-.2h-.6l.1.1.8.4-1.1-.5c-.2.1-.4.1-.6.2h.2l-.3.1c-.1-.1-.1 0-.2 0zm-2.3 5.4c.2.1.4.2.5.3.1 0 .3.1.4.1h.4c-.5-.2-.8-.7-.9-1.2.1.5.6.9 1 1.2.3.1.6.2.8.4-.1.2-.2.3-.3.4.2-.1.4-.3.5-.5-.1.5-.6.8-1.2.9.2 1 .5 2.6.2 4.5-.1.4-.3.7-.5 1 .6.2 1.4.6 1.4 1.7 0 .5.1 1 .1 1.4.9-.6 1.7-1.3 2.5-2.2 2.3-3.2 3.2-7.5 1.8-10.3-1.9-2.8-5.1 0-4.4 1.7-1.2-1.6 1.8-4.5 4-2.7.3.2.7.4 1 .7l-.8-.6c.3.2.5.5.7.9 1 2.2.9 4.9-.1 7.5 1.4-2.5 1.8-5.4.1-8 .3.3.6.7.8 1.1 1.2 1.8.8 7.3-2.5 10.8 1.5-1.2 2.8-2.7 3.6-4.8.9-2.8.2-6.4-2-8.2-.6-.6-1.4-.8-2.1-.9l.3.2-.5-.2c-1.9 0-3.8 1.2-4.4 2.6.1-.6.4-1.2 1-1.4.5-.5 1.7-1.2 3.1-1.3l-.5-.2c-.9-.2-4.2.4-4.6 2.5-.2 1.3.1 2.1.6 2.6zm.6 1c0-.1-.1-.1-.1-.1-.2 0-.5-.2-.7-.3-.3-.1-.7-.3-1-.5.5.4 1.2.7 1.8.9zm-4.5.9c-1 .5-2.3 1.1-3.3 2l-.1.1s-.1.1-.1.2c1.1-.9 2.7-1.8 4-2.3h-.5zm-3 2.6v.2l.2-.2.1-.1c-.1 0-.2.1-.3.1zm-2 .1c.1 0 .1-.1.1-.1l.1-.2-.1.4v.1c0-.1.1-.2.2-.3.5-.9 1.6-2 2.7-2.6h-.8c-1.3.2-1.8 1.1-2.2 2v.7zm-3.7 5.7c2.7.1 11.3-7 12.5-3.1.4-.2.7-.6.9-1.3.3-1.6.2-3.3.3-4.2h-.5c-.4.3-1 .5-1.7.6l.1.1c-.3.1-.7.2-1 .3l-.4.4c.1-.1.2-.1.4-.2l1.5-.1c-.7.1-1.5.3-2.2.6-1.2.9-3 1.6-4.5 2.5-.1.2-.2.3-.3.5 0 .1-.1.1-.1.2 1.2-.8 2.3-1.6 3.4-2.3-.7.5-1.8 1.5-3.2 2.6 3.6-2.1 7.6-3.7 8-.8-2.6-2.1-8.1 2-12.3 3.8-.3.2-.5.3-.8.3 0 .1-.1.1-.1.1zm5.2.8c-.5.3-1.1.6-1.6 1 0 0-.1 0-.1.1.4-.2.9-.5 1.3-.8.1-.1.3-.2.4-.3zm9.4-.6c-.2-.4-.3-1-.3-1.6-.1-.9-.5-1.2-.9-1.6-1.1 1.2-3.1.2-3.4-.2h.1c.5.1 1.4.4 2.2.1-3-1.6-8.6 3.8-12.8 3.3-1.3.6-2.8 1.1-4.3 1.4h.1c.9.5 2.3 1.1 3.9 1.1-1.3-.3-2.3-1-2.2-1.4 3.4 2.6 9.4-3.2 13.8-2.9-1.1 0-2.9.9-4.9 2 3.3-1.8 7.3-2 8.4 0 .1-.1.2-.1.3-.2zm-3.5 2.5c-1.2.3-2.5.5-3.7.6.2 0 .4.1.5.2 1-.1 2.1-.3 3.2-.8zm9.8-4.7c.5-.6.9-1.4 1.3-2.4l-.3.6c-2.2 3.8-5.7 5.5-8.4 6.4-.7.4-1.4.6-2.1.8.6 0 1.3-.1 2-.2 2.1-1 5.1-2.5 7.5-5.2zm49.4 14.1c-1.7 1.6-4.3 3-7.3 3-2.4.2-5.4-1.5-5.1-3.8-.1-.3 0-.6 0-.8-.3.8-.3 1.8.1 2.7 1.1 1.8 3.8 2.3 6.3 2.2 2.7 0 4.6-1.4 6-3.3zm.4-1c.8-1.5 1.3-3.2 1.5-4.6 0-.9 0-1.9-.2-2.8.1 1.9-1.1 7.9-6.2 9.4-2.2 1-5.3.2-6.2-1.6-.6-.8-.7-1.4-.4-1.9-1.8 1.1.9 5.8 4.8 4.5 2.6-.1 5.1-1.3 6.7-3zm1.5-4.4v.8c.1-.2.1-.5 0-.8zM31.4 20.7c.1.1.3.2.4.4l3.7 2.1-2.1-1.2c-.6-.5-1.3-.9-2-1.3zm12.5 10.5c.1-.1.1-.3.2-.4-.1.1-.1.3-.2.4zm.2-.5v.1c0-.1.1-.2.1-.3l-.1.2zm21 24.4c0-.2.1-.5.1-.7-.2.8-.4 1.6-.8 2.2.4-.4.6-.9.7-1.5zm-5-35.7c-7.1-1.6-18.2-2.3-23.2 1.5 3-1.6 17.4-2.4 23.2-1.5zm-25.3.5c.3-.3.6-.5.9-.7-.4.2-.7.5-.9.7zm27.9.2l-.9-.3 2.6.9-1.7-.6zm-2.6-.7c.1 0 .2.1.3.1-.1 0-.2-.1-.3-.1zm.4 1.1l2.6.5-1.5-.4C56 19.2 44.4 18.2 40 22.2c1.6-1.1 16.4-3 20.5-1.7zm.8-.8c-.1 0-.1 0-.2-.1.2.1.4.1.6.2l-.4-.1zm-.2-.1c-.2-.1-.5-.1-.7-.2.3.1.5.2.7.2zM94 33c.2-.3.3-.7.3-1-.1.5-.3.9-.7 1.3l.4-.3zm.3-1c.7-3.6-6.1-8.7-9-7.6.8 0 9.1 4.2 9 7.6zM58.2 21.5h1.7l-1-.1c-3.7-.4-11.1-.9-13.8 1.8.6 0 2.5-.4 4.8-.8-.9.2-1.8.6-2.2 1.4.4.1 1.8-.2 3.3-.6-.4.2-.6.5-.7.9.8.5 3-.9 4-.8h.2c-.6-.1-1.6-.4-2.6-.3 1.5-.4 2.9-.7 3.8-.6h.4c-1.2-.2-3.1-.4-4.9-.2 2.7-.5 5.6-.9 7-.7zm29.6 2.2c1 .3 9.7 6.1 6.5 9.4l-.3.3c3.8-3.3-2.7-10.6-6.2-9.7zm18.7 27.2c.3 0 .5 0 .8-.1-.3 0-.6 0-.8.1zm-12.2-1.3c-.5-.1-.9-.3-1.4-.4.5.2.9.3 1.4.4zM52.2 24.4c.8-.2 1.5-.3 2.3-.3-.9-.1-1.7-.1-2.3.3zm8.6 7.1c-.8-.7-1.4-1.1-1.8-1.3.6.4 1.2.8 1.8 1.3zm45.5 6.1c.2.6.3 1.3.4 1.9 0-.6-.1-1.3-.4-1.9zM52.2 26.7c1.5.3 3.2.9 4.8 1.6-2.1-1.3-3.7-2-4.8-1.6zm53.7 24.4c-.3 0-.5.1-.8.1.6 0 1.3-.1 1.9-.2-.3 0-.7.1-1.1.1zm2.4-.4l-1.2.3c.4-.1.8-.1 1.2-.3zm-3.2.5h-2c-1.1.1-2.6 0-4.2-.2 2.2.3 4.2.4 6.2.2zm-1.7-.8l4.3.2-3.9-.2h-.4zm5.8-.1h.2s.1 0 .1-.1c-.1 0-.2.1-.3.1zm8-7.2l1.8.4-1-.3c-.3-.1-.5-.1-.8-.1zm-8 7.2h-.1c-.4.1-.7.2-1.1.3.2 0 .4-.1.6-.1-.1 0-.2.1-.2.1.1 0 .3-.1.4-.1.6-.1 1.3-.3 1.9-.6-.4.1-.9.2-1.3.4h-.2zM55.7 23.8c.6 0 1.3.1 2 .2-.8-.3-1.5-.4-2-.2zm51 15.7c0 .6-.1 1.3-.3 1.9.3-.6.3-1.2.3-1.9zM43.9 42c-.6-.3-1.3-.5-1.9-.7l1.9.7zm.5.3zm-.2-.2c.1 0 .2.1.2.1-.1 0-.2 0-.2-.1zm11.7-29.9h.8-.8zm8.8 2.9c2.9 1.3 7.2-.4 7.9-4.3 1.1-4.6-5.2-6.5-7.7-4.1-4.1 2.4 1.1 8.3 2.4 4.7-.8.9-2.4-.1-2.2-2 .2-1.6 4.7-2.5 5.5 0 .9 2.4-2 5.9-4.9 5.2-2.9-.4-5.4-1.5-6.9-2-.7-.2-1.5-.4-2.2-.4.2 0 .3 0 .5.1 2.4.4 4.7 2 7.6 2.8zm-8.8-2.9c-.4 0-.8.1-1.3.2.4 0 .9-.1 1.3-.2zM43.9 42c.1 0 .2.1.2.1s0-.1-.2-.1zm6.3-2.9zm92.4-17.7c-.1-.1-.2-.1-.3-.2 0 0 0 .1.1.1s.1.1.2.1zM44.4 42.3c4 3-1.3 11.5-5.7 7.3-2-1.7-1.6-4.4.2-4.7 2.1-.3 4.3.8 2.1 2.3.3 0 1.1.2 1.9-.7 1.1-1.2-.6-3-1.8-3.2-2.8-2.1-7.9 3-4.7 6.4 2.1 3.4 7.4 3 9 .2 1.8-2.7.9-5.5 0-6.7-.3-.4-.6-.7-1-.9zm3.6-.2c-.1-.1-.2-.1-.2-.1-.9-.4-1.5-1.2-1.6-1.9v-.9l.2 1c1.7 2.1 5.1-.4 3.8-1.2v.1c-.2-.1-.3-.2-.6-.2 0-.1.1-.1.1-.2-.3.2-.2.4.5.4-.2.7-2 .9-1.9-.6 0-1.4 1.1-1.8 1.9-2.5 1.9-.9 5.2 0 5.4 3-.8 4.5-5.1 4.4-7.6 3.1zm2.8-4.1c.6 0 1.2.3 1.6 1.2.3 1-.1 2.1-.9 2.7 1.6-.6 2.9-1.8 2.1-3.3-.8-.8-1.9-.8-2.8-.6zm89-14.3c.2.2.4.3.7.4-.3-.2-.5-.3-.7-.4zm-57.4-5.8l1.3-.7-1.3.7zm-.6.4l-.4.2c.2-.1.3-.1.4-.2zm-2 1c.6-.2 1.1-.5 1.6-.7-.4.1-.9.4-1.6.7zm1.9-1c.3-.1.5-.2.6-.3l-.6.3zm90.5 36.3c-.4.1-.8.2-1.1.3.4 0 .8-.1 1.1-.3zm-65.3-18.3c.2 0 .4.1.6.2-.1-.1-.2-.1-.3-.2h-.3zm67.9 15.9c2.7-4.5-.8-12.1-7.4-13.2-6.5-1-13.4.7-19.9 2.7-13.3 3.4-24.7 11.2-33.6 11.7 3.4 1.8 16.2-4.6 30.2-9.6 7-2.4 14.5-5 21.1-4.6 7-.2 10.6 6.2 10.4 9.3 0 2.4-1.1 5.2-3.4 6.1 1.2-.4 2.1-1.3 2.6-2.4zm-35-28.5c.1 0 .1-.1.2-.1-.1 0-.2 0-.2.1zm2.4-2.5c-1.1-.7-2.6.3-2.9 1.3.3-.9 1.9-1.7 2.9-1.3zM104.1 42c-1.5 1.2-3.7 1.5-5.9 1.2-.5-.1-1.1-.2-1.6-.3-3.6-.9-7.4-3.1-10.8-4.9-2.3-1.1-4.5-2.3-6.7-3.6-4.4-2.7-8.7-5.5-12.8-7.5-4.4-2.4-8.2-3.9-11.4-3.4 1.8-.1 3.8.3 6 1.3-1.1-.3-2.2-.6-3.3-.7 6 1.7 21.4 12.1 31.7 16.7 5.1 2.6 10.5 4.7 14.9 1.8 2.8-1.9.1-6 2.7-6.3-2.5-.3-1.2 4.5-2.8 5.7zm35.3-18.7c0 .1.2.3.4.4-.2-.1-.3-.3-.4-.4zm-.1-.7c-.1.1-.1.3 0 .5v-.5zm-39 30.9c.1.1.2.1.2.1l-.2-.1zm-.7-.1c.2.1.4.1.7.1l-1.8-.5 1.1.4zm39.1-29.2c-.3.2-.7.3-.9.3.3.1.6.1.9-.3zm-38.5 12.2c-.9.4-1.8-.1-1.5-1.6.2-1.1 3.2-1.9 3.6.1.8 5.4-7.6 5.6-9.2 4.1-1-.4-1.9-1-2.8-1.6l1.4 1.1c2.4 1.8 10 4.4 12.3-2.2 1.4-3.5-3.7-6.2-5.9-3.8-3.3 2.1.9 6.9 2.1 3.9z"/></svg>