<?xml version="1.0" encoding="utf-8"?>
<svg xmlns="http://www.w3.org/2000/svg" viewBox="0 0 180 180"><path d="M105.4 79.1l-1.3-.5c.5.2 1 .4 1.3.5zM75.5 44.9c.3.2.6.5.8.6-1.6-5-2.1-11.4.9-18C81.3 16.9 96.9 9 110.4 15.4c7.2 3.1 10 11.3 8.8 17.9-1.3 7.1-8.1 11-13.9 10.9-4.1.1-7.7-2.1-9.8-4.9-1.4-1.3-3.2-3.9-2.1-7.3.1-.1.1-.1.1-.2.2-1.5 1-3.5 2.8-4.7 1.5-1.6 5.3-1.3 6.4.5.4.3.6.6.7 1l.1.1-.1-.1c.1.3.1.6-.1 1-1.5 2-2.6-.5-2-1-.3.1-.6.2-1 .4-1 .6-1.1 1.7-.9 2.8.5 1.8 2.2 3.3 4.4 4.1.6.2 1.3.3 2 .3.4.1.6.1.9.1.9-.1 1.8-.3 2.5-.8 2.5-.9 3.9-3 4.4-5.3 0-2.2-.6-4.5-1.9-6.6.4 3.9-4.7 6.2-6 5.4.6-.1 1.4-.5 2.3-1 2.3-2.7-.8-9.7-7.8-9.3-6.6-.4-11.4 3.7-14.2 6.4 2.4-1.3 5-1.1 6-.3h-.6.2c-11.2 9.2 1.5 31.8 16.6 38.4-3.3-1-6.8-2.7-9.9-5.2l.1.1c-.1.1-.1 0-.1 0 4.9 4.1 9.9 6.3 13.3 6.4l-.5-.1c-.3.1-.6.1-.9.1 1 .1 2 .2 3 .1-1.6-.3-3.3-.8-4.9-1.5 4.4 1.3 8.5 1.5 10.8.7h.9c2.3-.6 4.5-1.3 6.6-2.4 1.3-.9 3.6-2 4.7-3.9 1.5-2.4-2.1-2.8-2.4-1.6.6.1 1.2.5 1 1.5-.5 1.4-2.4 1-3.3.5-1.3-.2-2.4-1.5-2.9-3.1-.9-2.4.5-5.5 3.2-6.6 2.1-1.4 6.2-1.4 7.7 1.2 3.8 3.3 3.6 14.1-5.2 19.2-8.2 6.4-17.9 6.1-22 4.9l.4-.1c4.2.5 12.1-.4 19.2-5.1-1.3.7-2.7 1.2-4.2 1.6-11.3 3.6-23.2 2.9-26.5-2.1l.4.4c4 3.9 15 3.5 25.6.4 8-2.2 12.4-8.4 13-13.7-.1.1-.2.1-.2.1 0-.1.1-.2.1-.3-.6 1.9-1.8 3.7-3.5 5-.5.5-1.1.9-1.7 1.2l-.1.1c-6.1 4.1-14.4 6-22.7 4.5 7.1 2 14.6.8 19.8-2-.4.2-.8.5-1.2.7-3.8 2.5-15.2 4.8-24.7 0-1.6-.6-3.5-1.6-5.5-3l-.9-.6c1.4 1.1 2.8 2.1 4.4 2.9 7.3 4.5 16.6 5.3 22.6 3.1l3-.9c-1.8.6-3.6 1.2-5.4 1.6-4.1 1.5-14.7 1.2-23-4.1-3.5-2.1-6.1-4.8-8.1-7.4-.7-.8-1.5-1.8-2.1-2.8-.3-.4-.6-.7-.8-1.1-1-1.2-1.7-2.3-2.2-3.3-.1-.1-.2-.3-.4-.5-4.7-8.8-3.8-20.7 3.6-26.8 1.5-1.8 3.3-3.1 5.2-4 3.9-2.2 9.2-2.6 14.4-1.2 1.1.5 2.1 1.2 3.1 1.9 4.8 2.9 7.1 8.1 6.6 11.6.1 3-1.2 6.2-5.3 8.4-4.6 1.9-9.9.5-12.1-3.1-.6-.9-.8-1.8-.8-2.7l-.3.6c.6 3.3 3.2 7.3 7.5 7.3 6.4.9 13.1-5.3 12.8-10.5.1.6.1 1.1 0 1.8-.1 3.1-6.4 12-15 9.3-3.2-.8-4.9-3-5.8-5.4 1 3.5 4.1 6.7 7.8 6.3h1.3l-2.3.2c-1.6 0-6.2-1.4-7.9-5.4-.5-1.1-.7-2.2-.6-3.1-.2-.2-.3-.4-.3-.6-.5 1.6-.2 3.1.3 4.3 1.7 3.3 5.7 6.2 10.1 5.9 5.4-.2 11.4-3.8 12.5-10 1.2-5.8-1.8-13.6-8-16.2-8.6-4-18.2-2-24.8 3-6 6.1-10.1 19.6-5.6 27.3l1.1 2-2-3.6c-1.2-2.8-2.4-10.3-.3-16.9.2-.7.5-1.4.8-2.1-.4.8-.8 1.6-1.1 2.4C75 35 75.3 41.1 76.8 46c1 .9 1.9 1.9 2.6 2.9.8.9 1.5 1.9 2.2 3.1 1.1 4.1.8 7.1 1.4 8.9l-.1-.1c-1.1-1-1.6-3.1-2.2-5.6-.5-1.8-1.7-4.2-3.9-6.2-.2-.2-.4-.3-.6-.5s-.4-.3-.5-.4c-.1-.1-.3-.2-.4-.3-.7-.5-1.3-.9-2.1-1.3-.9-.5-1.9-.9-2.8-1.2 1.8.8 3.6 2 5 3.5 3.8 3.8 4.3 9.3 5.3 12.8l.5 1.8-.9-3.2c-.7-2.3-2.2-8.3-6.6-11.6-1.9-1.5-3.8-2.4-5.5-3-.2.1-.3.2-.4.2 6.4.8 10.4 11.5 11 16.7l.7 1.4-1.2-2.5c-.8-1.9-1.4-6.9-4.4-10.2-1.7-2.3-3.8-3.5-5.4-4.4.6.7 1 1.4 1.3 2.4 5.2.9 5.2 10.8 6.8 14.3l.5 1-1-1.9c-.8-2.8-3.8-11.1-6.3-13 .2.7.4 1.6.4 2.5v.8c3.4.9 2.9 7.4 4.2 9.6l.4.7-.8-1.1c-.8-1.7-2.5-6.3-3.8-8.2.1 1 .1 1.9.3 2.7 1.4.7 2.1 3.2 2 4.3l.1.4-.2-.6c-.1-.7-.8-1.4-1.4-2.2.3 1.2.6 2.2 1 3.1 3.9 4.3 14.7 5.5 18.7 10.1l1 1.1-1.9-2c-1.8-1.5-8.8-3.2-13.7-5.4 2.3 1.2 4.8 2.3 6.6 3l.8.4-1.5-.3c-.4-.1-1.1-.2-2-.5.2.2.3.2.5.4 2.4 2.4-1 5.8-3.1 5.5-.3.1-.5.1-.7.1 2.7.1 7.5.4 6.7-3.3l-.2-.7.4 1.3c1 2.4-2.1 3.7-4.8 3.9 2.9.3 8.6.7 7.4-3.8l-.3-.8.5 1.3c.6.9-.2 3.2-2.2 4.2.1 0 .3.1.4.1-.1-.1-.1-.2-.1-.2 1.5-.4 4.6-.6 4.2-3.1l.1-.5.1.8c.8.9-.1 2-1.1 2.8.3-.1.7-.2 1.1-.2.1 0 .3-.1.4 0 1.3 0 2.7.1 3.2-1.1l.3-.4-.3.7c0 .4-.4.8-.8 1.1 1.4.1 3.1.3 3.9-.8l.3-.3-.5.7c-.2.6-.9 1-1.9 1.3 3.5.3 6.6.6 9.3 1.1l1.6.6c-1.3-.5-2.6-.8-4-.9-4.1-.8-14 .2-23.1-1.8-1.8-.5-3.5-1.1-5.2-1.5-7.2-.3-13.7-4.5-15.7-10.3-2.8-6.9 1.2-14 5.6-14l-.8.1c-4 1-6.5 8.1-3.6 13.9 1.2 2.8 3.6 5 6.4 6.4 1.7.7 3.7 1.3 5.7 1.8 2.3.4 4.7.3 7.2-.2 5.8-1.2 1-4.8-2.9-5.8-.2-.1-.3-.2-.4-.3-2.1-1-4.2-2.6-5-5.5-.6-2.4-.6-4.7-.4-6.4-.2-2.5-.9-4.7-2-6.4-.4-.5-.8-.9-1.3-1.3-1.6-1-3.2-1.6-4.5-2h-.1l.1-.1c-.8-.2-1.6-.4-2.2-.4.6-.4 1.6-.6 2.7-.6.4 0 .8 0 1.4.1 1.8-.3 4-.6 6.5-.3 1.9.2 4.2.4 6.7 1.7zm-9.1.3l-.1-.1.1.1zm69.5 10c-.3 3.8-2.4 8.2-6.3 11.3 4.4-3.2 6.2-7.6 6.3-11.3zm-6.7 2zm.1-.3c0 .1 0 .2-.1.3v.1c.2-.2.2-.3.1-.4zm3.9-.3c.2-.4.4-.8.6-1.3-1-1.2-2.9-2.8-4.8-1.7l-.5.2.7-.4c.3-.7 1.3-.9 2.3-.7-.1-.1-.1-.2-.2-.3-2.2-.6-4.6-.2-4.5 2.4l.2.8-.4-1.3c-.4-1.1 1.7-3.6 4.3-3.1.5 0 1 .2 1.4.3 0 0 .1-.1.1 0-2.6-1.1-6.3-.9-6.6 2.1l-.1 1-.1-1.9c.1-1.5 3.3-3.5 6.4-2.6.3 0 .6.1.9.2-1.2-1-3.1-1.4-5.6.1-4.1 2.1-1.8 5.9.3 6.6 0 0 .1.1.1 0 .6.2 1.1.2 1.4-.3-.2-.2-.4-.4-.9-.7.1-.1.2-.1.3-.1-1-1.9 4.8-2.8 4.7.7zm-29.7 6.2c.8.4 1.5.7 2.2 1l1.2.3c-1-.4-2.2-.8-3.4-1.3zm-9.9-9.7c0 .1 0 .1-.1.3l-.1.1c.2.2.4.3.6.5.1-.4-.2-.7-.4-.9zm-4.9-27.3c-3.6 4-4.9 14.9 1.2 23 1 1.5 2.1 2.8 3.1 4.1.2-.1.3-.2.3-.2-.6-.9-1.3-1.9-1.8-2.9-9-10.3-4.2-24.6-.4-25.1-.3 0-.7.1-1 .1-.4.2-.9.6-1.4 1zm-3.2 17.9l.1.2c.1.2.2.3.2.4-1-2.8-1.3-5.7-1.2-8.2-.2 1.3-.3 2.6-.2 4 .2 1.1.6 2.4 1.1 3.8-.1-.2-.1-.2 0-.2zm-.3-16.2c-1.6 1.6-2.5 3.5-3.1 4.9-.4 1.8-.8 3.3-1 4.8 0 3.4.8 6.9 3 10.3l.9 1.2-.2-.5c-1.2-2.2-2.1-4.7-2.2-7.8-.4-6.7 2.4-12.9 5.7-15.2-1 .6-2.1 1.2-3.1 2.3zm0-2.1c.3-.4.5-.8.9-1.3l-1.2 1.5c.1 0 .2-.1.3-.2zm23.9-4c-.6-.8-1.2-1.3-2-1.9 1.1 1 1.9 2.1 2.3 3.3.6 1.5.4 2.8-.2 3.8 1.2-1.2 1.7-3.1-.1-5.2zm4.2 11.8c-.1.1-.2.2-.2.3h.1c0-.2 0-.3.1-.3zm-13.7-.6c.1.3.1.4.2.7.3.4.6.7.9 1-.5-.6-.9-1.2-1.1-1.7zm1.9-4c.3 2.1 1.4-.2 0 0zm-2.6-.3l.4-.4c-.1.1-.2.1-.3.2 0 .1-.1.1-.1.2zm51.4 63.2c.1.1.1.1 0 0zM97.6 85c4.8-1.2 9.3-2.4 13.4-3.2-3 .5-6.1 1.2-9.2 2-1.4.4-2.7.8-4.2 1.2zm-46.9.6l.6.7c-.2-.3-.4-.5-.6-.7zm47.2-61.9c-.2.4-.1 1.5 1.5 1.2 1.6-2.2-.3-2.9-1-3.3-2.1-.7-3.6.9-4 1.4l-.5.9.4-.5c1.3-1.2 2.9-.2 3.6.3zm19.4 36.5l.6.3c.9.9 5.1.8 4.6-3.1-.1-1.4-2.5-3.2-4.1-1.4-1.8 1.9 1.5 3.7 1.8 2.1-1.3-2.9 2.4 1.8-1.8 2.4l-1.1-.3zM61 57.1c-1.4.2.3 3.8 3.7 2.3 3-3.1-1.8-8-5.3-5.5-5.8 5.7.3 12.5 1.9 13.6.9.8 1.9 1.3 2.9 1.8l-1.7-1c-2.9-2.1-5.8-8.4-2.8-11.8 1.5-1.6 3.1-.9 3.6.7 1.3.9-2.2 1.3-2.3-.1zm-8.8 26.7c.6.7 1 1.5 1.5 2.3l-.8-1.3c-3.7-5-13.3-11.8-19.2-12.1 1.7.8 15.7 7.5 18.5 11.1zM35.8 71.2c2 .1 14.6 7.9 18.1 12.2-3.9-5.5-12.3-12.5-18.1-12.2zm18.1 12.3l.6.9-.1-.2c-.2-.2-.3-.5-.5-.7zm3.1.7c-.1-.2-.3-.4-.4-.6l1.1 2.2-.7-1.6zm-.7-1.2c-.2-.3-.5-.7-.9-1.1.5.6.8 1.1 1.2 1.7.1 0-.3-.6-.3-.6zM41.4 67.6c.3-.1.6-.1.9-.1-.4 0-.7 0-.9.1zm87.2-5.2c-.5.3-.9.6-1.4.9.3-.2.7-.4 1-.6.1-.1.3-.1.4-.3zm0 0c.9-.6 1.7-1.2 2.5-1.9-.8.7-1.6 1.4-2.5 1.9zm-11.2-32.9c-.2-.8-.5-1.5-.9-2.3l.9 2.3zm0 0c.1.2.1.3.1.4 0-.1 0-.2-.1-.3v-.1zM98 80.9l-4.1-.6c-8.3-.7-20.3-1.3-30.5-6.3-10.5-5.6-10.8-20.4-3.2-23.8-.9.5-4.9 2.1-6.1 7.2-1.3 4.9 1 11.6 6 15.7 11.1 7 25.1 6.5 30.5 7.1 2.5 0 4.9.4 7.4.7zm-39.8-6.4c.3 1.5 8 6.9 8.4 9.8l.7 1.5-.3-.9c-.6-3.8-5.3-9.4-8.8-10.4zM70 86.9l-.4-.8c-1.3-2.7-3.2-9-6.7-9.5.5 1.1 5.4 6.7 6.3 9l.8 1.3zm1.7-1.4c-.2-1.8-1.3-6.5-4.1-6 .4.9 3.6 3.8 4 5.6l.3.9-.2-.5zm11.9-24c.9.6 2.8-2.4.7-2.3-.5.9.3 1.4-.6 2.2l-.3.2.2-.1zm2-1.2c-.9.8-.1 1.3-.7 2.2l-.2.3.1-.1c.8 0 2.4-2 .8-2.4zm1.8 1.7c-1.3-.1-.6.6-.8 1.1l-.1.2.1-.1c.2 0 1.7-.7.8-1.2zm.9 1c-1 .8-.1.5-.3 1.1l-.1.2h.1c.4.3 1.7-1.3.3-1.3zm1.1.9c-1.1.9-.4.1-.2.6v.1c.2.4 1.2-1.2.2-.7zM73.9 85v-.2c.5-.7.2-3.3-1.4-2.8-.4 1.3 1.2 1.6 1.3 2.7 0-.1.1.3.1.3zm2.3-.3v-.2c.4-.7.3-3-1.2-2.7-.6 1.2 1.1 1.6 1.1 2.5l.1.4zm1.9-.8l.1.3.1-.2c.7-.6.1-2.9-1.3-1.9 0 1.2 1 .7 1.1 1.8zm1.8-.3l.1.2v-.2c.1-.4.6-1.9-.5-1.5-.9.9.2 1.1.4 1.5zm26.2 81.6c-13.8 5.6-28.9-3-32.6-13.9-2.6-6.7-1.9-13.1.1-18-.3.2-.5.4-.9.6-2.6 1.1-4.8 1.2-6.9 1-2.5.2-4.7-.2-6.5-.6-.5.1-.9 0-1.3 0-1.1 0-2.1-.3-2.7-.7.6 0 1.4-.1 2.2-.3l-.1-.1c.1.1.1 0 .1 0 1.4-.3 3-.8 4.7-1.7.5-.4.9-.7 1.3-1.2 1.2-1.6 2.1-3.8 2.4-6.4-.1-1.8 0-4 .7-6.4 1-2.8 3.2-4.3 5.3-5.2.2-.1.3-.2.4-.3 3.9-.8 8.9-4.2 3.1-5.6-2.4-.6-4.8-.8-7.1-.5-2.1.5-4.1 1-5.8 1.5-2.9 1.4-5.3 3.5-6.7 6.1-3.2 5.7-1.1 12.9 2.9 14.1l.7.3c-4.3-.2-7.9-7.5-4.8-14.3 2.3-5.6 9-9.5 16.2-9.5 1.7-.5 3.5-.9 5.2-1.3 9.3-1.5 19.1-.1 23.2-.6 1.4-.1 2.7-.3 4-.7l-1.6.5c-2.7.4-5.9.5-9.3.7.9.3 1.6.8 1.8 1.4l.4.7-.3-.4c-.8-1.2-2.4-1-3.8-1 .4.3.7.7.7 1.1l.3.7-.2-.4c-.4-1.3-1.8-1.2-3.1-1.3-.2.1-.3.1-.4-.1-.4 0-.7-.1-1.1-.3 1.1.8 1.9 2 1 2.9l-.1.8v-.5c.5-2.5-2.6-2.9-4.1-3.3 0-.1.1-.2.1-.2H83c1.9 1.1 2.6 3.5 1.9 4.3l-.6 1.3.3-.8c1.4-4.4-4.3-4.4-7.2-4.2 2.6.4 5.7 1.8 4.6 4.1l-.4 1.2.2-.7c1-3.7-3.8-3.5-6.5-3.7.3.1.5.1.7.2 2.2-.1 5.4 3.4 2.8 5.7-.2.2-.3.2-.5.3.9-.2 1.5-.3 2-.4l1.5-.5-.9.4c-1.9.7-4.4 1.6-6.7 2.7 5-1.9 12.1-3.3 13.9-4.7l2-1.9-1.1 1.1c-4.3 4.5-15.1 5.2-19.2 9.2-.4.9-.8 2-1.1 3.1.7-.7 1.4-1.4 1.5-2.1l.2-.6-.1.4c.1 1.1-.8 3.6-2.2 4.2-.2.9-.3 1.8-.4 2.7 1.5-1.9 3.4-6.4 4.2-8l.9-1.2-.5.7c-1.4 2.1-1.3 8.6-4.7 9.3-.1.3 0 .5-.1.8-.1.9-.3 1.7-.5 2.5 2.6-1.8 6-10 6.9-12.7l1.1-1.8-.6 1.1c-1.8 3.3-2.3 13.3-7.6 13.8-.4.9-.8 1.6-1.4 2.3 1.6-.7 3.8-1.9 5.6-4.1 3.1-3.1 4.1-8.1 4.9-10l1.3-2.4-.7 1.3c-.8 5.2-5.4 15.7-11.7 16.2.2.1.3.2.4.2 1.8-.5 3.8-1.3 5.6-2.7 4.6-3 6.4-9 7.2-11.3l1.1-3.1-.5 1.8c-1.1 3.4-1.9 8.9-5.9 12.5-1.5 1.4-3.3 2.5-5.2 3.2 1-.3 1.9-.6 2.9-1 .8-.3 1.5-.7 2.2-1.1.1-.1.3-.2.4-.3.2-.1.4-.3.6-.4.2-.2.4-.3.6-.5 2.2-1.9 3.7-4.3 4.5-6.1.7-2.4 1.3-4.5 2.5-5.5l.1-.1c-.6 1.8-.6 4.8-1.9 8.9-.7 1.2-1.5 2.2-2.4 3-.8 1-1.6 2-2.8 2.8-1.8 4.8-2.4 10.8-.1 17.2.3.9.6 1.7 1 2.5-.3-.7-.5-1.4-.7-2.2-1.8-6.7-.3-14.2 1.1-16.9l2.2-3.5-1.2 2c-5 7.4-1.4 21.1 4.2 27.5 6.3 5.2 15.9 7.8 24.6 4.2 6.3-2.3 9.6-9.9 8.8-15.8-.8-6.3-6.5-10.3-12-10.7-4.5-.5-8.5 2.1-10.5 5.4-.5 1.2-.9 2.7-.5 4.3.1-.3.2-.5.3-.6-.1-1 .2-2 .7-3.1 1.9-4 6.5-5 8.1-5l2.3.3-1.3-.1c-3.8-.7-7 2.5-8.1 5.9.9-2.4 2.8-4.5 6.1-5 8.7-2.2 14.6 7 14.5 10 .1.6-.1 1.2-.1 1.8.6-5.2-5.8-11.6-12.2-11.1-4.3-.2-7.2 3.6-7.9 6.9l.3.6c.1-.9.4-1.8.9-2.7 2.3-3.4 7.7-4.6 12.2-2.4 3.9 2.5 5 5.7 4.8 8.7.3 3.5-2.2 8.7-7.2 11.3-1 .7-2 1.3-3.1 1.7-5.3 1.2-10.6.5-14.3-1.9-1.9-1-3.6-2.4-5-4.2-7.1-6.4-7.4-18.5-2.2-27 .2-.2.3-.3.4-.5.5-1 1.3-2.1 2.4-3.2.3-.4.5-.7.8-1 .7-1 1.5-2 2.3-2.7 2.1-2.4 4.9-5 8.4-6.9 8.5-4.9 19.2-4.6 23.2-2.9 1.8.6 3.6 1.3 5.3 1.9l-3-1c-5.9-2.4-15.2-2.2-22.8 2-1.6.8-3.1 1.8-4.5 2.8.3-.2.6-.4 1-.6 2-1.2 3.9-2.2 5.6-2.7 9.7-4.3 21-1.4 24.7 1.2.4.2.7.5 1.1.7-4.9-3-12.5-4.5-19.6-2.9 8.3-1 16.6 1.2 22.4 5.7l.1.1c.5.3 1.1.8 1.6 1.3 1.5 1.4 2.7 3.2 3.2 5.2 0-.1 0-.2-.1-.3.1 0 .2.1.2.1-.4-5.3-4.5-11.7-12.3-14.3-10.3-3.6-21.3-4.6-25.5-.9l-.4.3c3.6-4.8 15.4-4.8 26.5-.9 1.5.5 2.9 1.1 4.2 1.9-6.9-5.2-14.7-6.3-18.9-6.1l-.4-.1c4.1-1 13.9-.8 21.7 6 8.5 5.6 8.2 16.3 4.2 19.5-1.6 2.6-5.7 2.4-7.7.8-2.6-1.3-3.9-4.5-2.9-6.8.5-1.5 1.7-2.7 3-2.9.9-.4 2.9-.8 3.3.7.3 1-.4 1.4-1 1.4.3 1.3 3.9 1 2.5-1.5-1-2-3.2-3.2-4.5-4.1-2-1.1-4.2-2-6.4-2.7-.3 0-.6 0-1-.1-2.3-.9-6.4-.9-10.9.2 1.6-.6 3.3-1.1 5-1.2-1-.1-2-.1-3-.1.3 0 .6.1.9.1h.5c-3.4 0-8.6 2-13.6 5.8.1.1.1 0 .1 0l-.1.1c3.2-2.3 6.8-3.8 10.1-4.6-15.5 5.8-29.3 27.8-18.5 37.5-.1 0-.2.1-.2 0h.6c-1 .8-3.7.9-6-.6 2.6 2.8 7.3 7.2 13.8 7.1 7 .8 10.5-6.1 8.3-8.9-.8-.6-1.6-1-2.2-1.2 1.3-.8 6.3 1.9 5.7 5.7 1.4-2.1 2.1-4.4 2.3-6.6-.3-2.4-1.7-4.5-4.1-5.6-.8-.5-1.6-.8-2.5-.9-.3 0-.6 0-1 .1-.7 0-1.4.1-2 .2-2.2.6-3.9 2.2-4.6 3.9-.2 1.1-.2 2.2.8 2.8.4.2.7.4 1 .5-.6-.5.6-2.9 2.1-.8.2.4.1.7 0 1l.1-.1-.1.1c-.1.4-.4.8-.7.9-1.2 1.8-5.1 1.8-6.4.2-1.7-1.4-2.5-3.4-2.6-4.8-.1-.1-.1-.2-.1-.2-.9-3.5 1-6 2.5-7.2 2.2-2.7 5.9-4.7 10-4.4 5.8.2 12.4 4.5 13.3 11.6 1.1 7-2.2 15-9.4 17.8zm-8.3-13.6c1.5.2.5-2.1 0 0zm-2.5.1c0 .1.1.2.2.3.1.1.2.2.3.2l-.5-.5zm-.4-.1s.1 0 0 0c.1 0 .1 0 0 0zm32.1-27.2v.3c.2-.1.2-.2 0-.3zm0 0zm6.6 2.3c.1-3.7-1.5-8.2-5.7-11.6 3.7 3.4 5.6 7.9 5.7 11.6zm-7.4-1.1c-.1 0-.2-.1-.3-.1.5-.3.8-.5 1-.7-.3-.4-.8-.5-1.4-.3 0 0-.1.1-.1 0-2.1.7-4.6 4.4-.6 6.6 2.4 1.5 4.3 1.3 5.6.3-.3.1-.6.2-.9.2-3.1.8-6.3-1.4-6.2-2.9l.1-1.8.1 1c.2 3 3.8 3.4 6.5 2.4h-.1c-.5.2-.9.3-1.4.3-2.6.3-4.6-2.3-4.1-3.4l.5-1.3-.2.7c-.3 2.6 2.2 3.1 4.4 2.6 0-.1.1-.2.2-.3-1 .2-2 0-2.2-.8l-.7-.5.4.2c1.9 1.2 3.8-.3 4.9-1.5-.1-.4-.3-.9-.5-1.3-.3 3.6-6.1 2.4-5 .6zm-24.6-8.1c1.2-.5 2.4-.8 3.5-1.1-.4.1-.8.1-1.2.2-.6.2-1.4.5-2.3.9zm-10.3 8.9c.1.2.1.3 0 .3.2-.2.4-.5.6-.7-.3.1-.5.2-.6.4zm-.6.4c-1.1 1.2-2.3 2.5-3.3 4-6.6 7.8-5.7 18.8-2.4 22.9.5.5.9.8 1.3 1.1.4.1.7.2 1 .2-3.8-.7-7.8-15.3 1.7-25.1.6-1 1.2-2 2-2.9-.1-.1-.2-.2-.3-.2zm-8.1 8.8c-.1-.1 0-.1-.1-.2-.6 1.4-1 2.7-1.3 3.8-.1 1.3-.1 2.7 0 4 .1-2.6.5-5.5 1.6-8.2-.1.2-.2.3-.2.4v.2zm-1 16.2c.9 1.1 2.1 1.9 3 2.3-3.2-2.5-5.7-8.8-4.9-15.5.3-3 1.3-5.5 2.6-7.6l.2-.5c-.3.4-.7.8-1 1.2-2.3 3.2-3.3 6.7-3.5 10.1.2 1.5.4 3.1.7 4.8.5 1.6 1.3 3.5 2.9 5.2zm.7 3.5c-.3-.5-.6-.9-.8-1.3l-.3-.3c.3.5.6 1.1 1.1 1.6zm22.8 3.8c1.9-2.1 1.4-3.9.4-5.3.5 1 .6 2.4 0 3.8-.4 1.2-1.3 2.3-2.4 3.2.7-.4 1.4-.9 2-1.7zm4.6-11.8c.1.1.1.2.2.3-.1-.1-.1-.2 0-.2-.1-.1-.2-.1-.2-.1zm-13.4-.4c-.1.2-.1.4-.2.7.3-.6.7-1.1 1.1-1.6-.3.2-.6.5-.9.9zm-32.6-13.7c-.1-.1-.1-.1 0 0-.1 0 0 0 0 0zm39.4-31.6c.4-.1.9-.3 1.3-.4l-1.3.4zm46.6-10.4c.1 0 .1 0 0 0 .2-.2.2-.2 0 0zm-99 .2zm9.1 36.7c-.4.2-1 .4-1.5.4-2.8 3.3-12.7-1.6-12.7-10.7.4-3.5 1.6-6.4 3.3-8.7-.5.7-2.9 1.6-3.7 2.2-1.3.9-2.4 1.8-3.9 2.4-2.6 1.2-5.9 2.3-8.8 1.3-2.5-.8-4.5-2.5-5.7-4.8-.8-1.4-1-4.5-3.3-4.2-1.6.2-3.5 1.6-2.5 3.3-3.3-5.9 7.6-13 11.5-15.5 3.7-2.3 7.6-4.2 11.7-5.5-3.9-1.5-7.5-3.5-10.9-5.9-3.8-2.7-14.4-10.3-10.7-16-1 1.6.7 3.2 2.4 3.5 2.4.4 2.6-2.5 3.6-4 1.3-2.2 3.5-3.8 6-4.4 2.9-.7 6.1.4 8.7 1.8 1.4.8 2.5 1.8 3.7 2.7.8.6 3.1 1.7 3.6 2.3-1.5-2.4-2.7-5.4-2.9-8.9.6-9 10.6-13.5 13.3-10 .6.1 1.1.2 1.5.5-3.1-.8-9.4 2-11 8.6.1 6.4 3.6 12.2 6.3 13.5h-.3c-3.2-.8-7.7-6.3-7.7-13.7 1.4-6.7 7.6-9.3 11-8.9-3-2.5-11.2 2.5-11.6 10 .4 7.8 5.8 13.7 9.4 14.5l-.3-.1c-.4 0-.9-.1-1.4-.2 3.5 3.3 6.4 7.4 7.7 10.7l.8 1.5-1.5-2.7c-1.2-4.1-10.5-11-15.1-14.4-1.4-.6-2.9-1.1-4.6-1.3 7.3 1.2 15.5 11.5 18.1 17.4l.9 1.6c3.3.3 6.6.7 9.8 1.4 4.1-.4 8.3-1.2 12.5-2.4 15-3.5 29.2-7.4 41.8-5.9 1.4.2 2.6.4 3.9.6-2.8-.9-5.9-1.6-9.2-2.1-15-1.6-30.6-6.3-31-15.1 1.3 8.2 16 11.7 30.9 13.7 6 .8 12 2.6 17.4 5.5 3.7 2 9.3 4.8 10.9 9.1-.4-.5-.8-.9-1.2-1.3-3.8-3.6-8.9-5-13.8-6.6-5.1-1.7-10-1.8-12.5-2.1-1.1-.1-2.2-.1-3.3-.1-2.9-.1-5.7.2-8.4.6.4-.1.8-.2 1.1-.2-8.4 1.2-17.4 3.5-26.4 5.6-2.8.8-5.6 1.4-8.4 1.9.3.1.5.1.7.2 6.7-1.1 13.3-2.7 19.5-4.2-2.8.8-5.6 1.6-8.3 2.4-3.2.8-6.4 1.6-9.6 2.2 3 .8 6 1.7 9 2.6 2.7.9 5.5 1.8 8.2 2.8-5.9-1.8-12.2-3.7-18.7-5.1l-.8.2c2.6.6 5.2 1.3 7.8 2.2 8.9 2.6 17.8 5.4 26.1 7-.4-.1-.7-.2-1.1-.3 2.7.6 5.5.9 8.3 1 1.1 0 2.2.1 3.3.1 2.5-.2 7.4 0 12.6-1.5 4.9-1.4 10.1-2.6 14.1-5.9.5-.4.9-.8 1.3-1.3-1.8 4.2-7.5 6.7-11.3 8.6-5.5 2.6-11.5 4.2-17.6 4.6-15 1.3-29.8 4-31.5 12.2.8-8.8 16.5-12.6 31.4-13.8 3.2-.3 6.3-.8 9.3-1.5-1.2.2-2.5.4-3.9.4-12.6.8-26.5-3.8-41.4-8-3.9-1.3-7.9-2.3-11.8-3-3.5.5-7 .8-10.4.8l-.9 1.5c-3 5.8-11.6 15.7-19 16.5 1.7-.2 3.2-.5 4.6-1 4.7-3.1 14.4-9.6 15.9-13.6l1.7-2.6-.9 1.5c-1.4 3.2-4.6 7.2-8.2 10.3.5-.1 1-.2 1.4-.2l.4-.1c-3.6.6-9.3 6.1-10.1 14 .1 7.4 8 13 11.2 10.6-3.5.3-9.4-2.6-10.6-9.4.4-7.4 5-12.7 8.3-13.3l.3-.1c-2.8 1.2-6.7 6.8-7 13.2.8 6.6 7 9.7 10.2 9.1zm9.6-37.8c-1.3-.2-2.5-.3-3.8-.4-1.5 0-3.1-.1-4.7-.2-2.1 0-4.1.1-6.1.3 3.3.5 6.6.7 10 .6 1.5-.1 3.1-.2 4.6-.3zm-16.2-1.4c-.9-.2-1.7-.4-2.5-.5-.6.1-1.2.2-1.8.4.6.2 1.2.3 1.9.5.7-.2 1.5-.3 2.4-.4zm22.3.4c-.4.1-.7.1-1 .2.4.1.6.1 1 .2.3-.1.6-.1.9-.2-.4 0-.7-.1-.9-.2zm-11.1-1.5c-3.2-.4-6.5-.3-9.6 0 2 .3 4 .5 6.1.6 1.6-.1 3.2.1 4.8.1 1.2-.1 2.4-.1 3.6-.1-1.6-.3-3.2-.5-4.9-.6zM43.5 65.3c0 .2-.1.5-.1.6.7.1 1.4.2 2.2.4l-.1-.1c-.4-.2-1.2-.5-2-.9zm-1.4-.5c.1.4.1.8 0 1 .4 0 .9.1 1.3.1l-.1-.1c-.2-.3-1.1-.5-1-1-.1.1-.1 0-.2 0zm-9.4.4c-.1.1-.1.1-.1.2.9.9 1.4 2.5 1.8 3.4l.1.3-.4-.5c-.3-.5-1.4-1.3-2.2-2.2.8.8 1.2 2.5 1.5 3.4l.1.2c1.9-2 4.3-3.9 8.1-4.3h.4c-.1-.5-.8-.9-1.2-1.4-.1 0-.3-.1-.4-.1.2.5.3 1.1.4 1.5l.1.2-.2-.3c-.3-.4-1.4-.9-1.6-1.7-.2-.1-.4-.1-.5-.1.3.7.4 1.5.6 2l.1.3-.3-.3c-.3-.4-1.3-1.2-1.8-2-.2 0-.4 0-.7.1.4.7.5 1.5.7 1.9l.1.2-.3-.4c-.3-.4-1.2-.9-1.8-1.6l-.1.1c.5.8.6 1.9.9 2.6l.1.3-.1-.4c-.3-.4-1.3-1.2-1.9-2.1-.2.1-.3.1-.4.2.7.7 1.1 2.2 1.4 2.9l.2.3-.3-.4c-.4-.5-1.8-1.4-2.3-2.3zM30.8 69c-.1.2-.2.3-.3.4.8.5 1 1.8 1.3 2.5l.1.2c.3-.3.6-.7.9-1V71c-.3-.4-1.3-1.2-2-2zm2.1 1.9c.3-.3.5-.5.7-.8l-.3-.4c-.2-.4-1.2-1.2-1.9-2.1-.1.1-.1.2-.1.2.8.9 1.1 2.2 1.6 3.1zm-6.8.9c1.1.8 2.3 1.9 3.7 2.3.8-.5 1.5-1.2 2.2-2l-.3-.3c-.3-.3-1.3-.8-1.8-1.5l-.3.3c.6.6.9 1.5 1.4 2l.2.2-.4-.3c-.4-.1-1.5-.6-2.2-1.3l-.5.2c.5.6.9 1.5 1.4 2l.2.2-.4-.3c-.4-.1-2-.9-2.5-1.7-.3.1-.5.2-.7.2zm.2 1.5s.1 0 0 0c-.1-.1-.2-.2-.3-.2.1.1.1.2.1.2h.2zm24.2 13.8c.9-.2 1.7-.3 2.6-.4L51.4 85c-2.7-4.1-18-9.8-19.6-11 6.1 0 16.7 6.5 20.6 11.7l.8.8c.8-.1 1.7-.2 2.5-.2l-1.2-2.2c.2.3.4.6.6 1l.6 1.2c1.1-.1 2.2-.1 3.4 0h.8l-.9-2.4c-.1-.3-.3-.7-.4-1 .4.8.8 1.6 1 2.4l.4 1.2c1 0 2.1.1 3.1.2l-1.7-2.8c-1.8-4.7-14.7-15.7-19-16.3.2 0 .4-.1.6-.1-.4-.1-.7-.1-1-.1-1.2.1-2.3.5-3.3.9 6.3.2 16.3 7.5 19.9 14.4-3.1-5.8-17.7-13.9-19.9-14.4-.8.4-1.5.8-2.3 1.3 6.1-.7 14.9 6.5 19.3 12.2-4.1-4.5-16.7-12.4-19.4-12.3-2.3 1.6-4.2 3.7-6 4.5.2.1.3.1.4.1l.5.1-.9-.1c-.1 0-.3.1-.4.1-.1.1-.1 0-.2.1 6.6 2.3 16.1 6 20.5 10.5l.6.6c-.5-.5-1.1-1-1.8-1.4-2.6-3-13.4-6.1-19.3-8.6 5.5 3 12.6 5.3 16.3 8.7l1.6 1-3-1.8c-2.2-1.4-7.5-3.9-12.9-5.6 4.5 2.8 9.8 5.3 13.5 7.2l1.5.9-2.8-1.4c-2.9-.8-11.2-4.4-16.2-8.1-.2-.1-.5-.3-.7-.4C32 81 40.4 85 50.5 87.1zm-4.1.8c.4-.1.8-.2 1.3-.4-4.2-1.1-8.1-2.6-11.5-4.3 3 1.9 6.4 3.5 10.2 4.7zm-11.1 5.7c3.6-1.6 7.8-2.9 12.3-3.9-.4-.1-.9-.3-1.3-.4-4 1.1-7.7 2.6-11 4.3zm-10.2 9.5c-.1 0-.1-.1-.1-.1s-.1.1-.1 0c-.1.1-.1.2-.1.2.1 0 .2-.1.3-.1zm5.5 1.5c-.7-.9-1.4-1.7-2.1-2.1-1.3.4-2.6 1.4-3.7 2.2.2 0 .5.1.7.1.6-.8 2.2-1.5 2.6-1.6l.4-.2-.2.2c-.6.5-1 1.3-1.5 1.9.2.1.3.1.5.2.7-.6 1.9-1 2.3-1.1l.4-.2-.2.2c-.6.5-.9 1.3-1.5 1.9.1.1.2.2.3.4.5-.6 1.6-1.1 1.9-1.4l.1-.5zm.8 1.2c-.3-.5-.6-.8-.8-1.1l-.1.2c-.4.7-.7 1.9-1.4 2.4.1.2.2.3.3.5.6-1 1.7-1.7 2-2zm3.3 1.4c2.7.3 15.7-7 19.9-11.2-4.7 5.4-13.8 12.2-19.9 11.2.7.6 1.4 1 2.2 1.5 2.3-.4 17.2-7.7 20.7-13.3-4 6.7-14.4 13.5-20.7 13.3 1 .5 2.1.9 3.3 1 .4.1.7-.1 1 0-.2 0-.4-.1-.6-.1 4.4-.3 17.9-10.6 19.9-15.2l1.8-2.7h-3.1l-.5 1.2c-.2.6-.5 1.2-.8 1.9.1-.2.2-.4.2-.5l1.1-2.5c-1.4-.1-2.8-.1-4.1-.3l-.7 1.2-.6.9 1.3-2.2c-.8-.1-1.6-.2-2.4-.4l-1 .9c-4.2 5.1-15.1 11-21.2 10.8 1.8-1 17.3-6 20.1-9.9l2-1.7c-.7-.1-1.4-.3-2.2-.4-10.4 1.3-19.3 4.9-24.6 9.7.2-.1.5-.3.7-.4 5.2-3.3 13.7-6.6 16.6-7.3l2.8-1.3-1.6.8c-3.7 1.8-9.1 4-13.9 6.5 5.5-1.5 11-3.7 13.2-4.9l3-1.6-1.7 1c-3.9 3.1-11.1 5.1-16.7 7.8 6-2.2 16.9-4.7 19.7-7.6.7-.4 1.2-.8 1.9-1.3l-.6.6c-4.6 4.3-14.3 7.6-21 9.4.1.1.1 0 .2.1.1 0 .3 0 .4.1h.8l-.5.1c-.1 0-.3.1-.4.1 2 .8 3.8 2.9 6 4.7zm-2.9-.2l.3-.4c-.3-.3-.4-.5-.7-.8-.5.9-.9 2.2-1.7 2.9.1.1.1.2.1.2.8-.8 1.8-1.5 2-1.9zm8.5 4.4c-.1-.1-.2-.1-.3-.1-3.8-.6-6.1-2.7-7.9-4.8l-.2.3c-.4.9-.8 2.5-1.6 3.3.8-.8 1.9-1.6 2.3-2.1l.4-.5-.2.3c-.4.8-1 2.5-2 3.3.1.1.1.2.1.2.5-.8 1.9-1.6 2.3-2.1l.4-.4-.2.3c-.4.7-.8 2.1-1.5 2.9.2.1.3.2.4.2.6-.8 1.7-1.6 2-2l.3-.4-.2.3c-.4.7-.6 1.8-1.1 2.5l.1.1c.5-.6 1.5-1.2 1.8-1.5l.3-.3-.1.2c-.2.4-.4 1.2-.8 1.9.2 0 .5.1.7.1.5-.7 1.5-1.4 1.9-1.9l.3-.4.1.2c-.2.5-.4 1.3-.7 2 .2-.1.3 0 .5-.1.2-.7 1.4-1.3 1.7-1.6l.3-.3-.1.2c-.2.4-.3 1-.4 1.4.1 0 .3-.1.4-.1.2-.2.9-.7 1-1.1zm1.4-.1h-1.2c.1.3.1.7-.1 1.1.1 0 .2-.1.3-.1-.1-.6.8-.7 1-1zm2.3-.3c-.7.2-1.4.3-2.2.3v.6c.8-.3 1.5-.6 2.1-.8l.1-.1zm66.1-12.1c-4.1-1.1-8.6-2.5-13.3-3.9l4.2 1.4c3 1 6.1 1.9 9.1 2.5zm-19.7 57.5l-.4-.5.4.9c.3.5 1.8 2.2 3.9 1.6.8-.4 2.7-.9 1.2-3.2-1.5-.4-1.7.7-1.5 1.1-.7.4-2.4 1.3-3.6.1zm27.7-33.5c-.2-1.5-3.6.2-1.9 2 1.5 1.9 4.1.2 4.2-1.2.6-3.8-3.6-4.2-4.5-3.3l-.6.3 1.2-.4c4.2 1 .2 5.4 1.6 2.6zM62.7 109c-1.1.4-2.2.9-3.1 1.6-1.6 1-8 7.5-2.5 13.4 3.4 2.7 8.4-2 5.6-5.3-3.3-1.6-5.2 1.9-3.8 2.1.2-1.4 3.7-.8 2.3.1-.6 1.6-2.2 2.3-3.7.5-2.9-3.6.4-9.7 3.3-11.7 0 .1 1.9-.7 1.9-.7zM52.2 93l.9-1.3c-.6.7-1 1.5-1.6 2.2-2.9 3.4-17.3 9.4-19 10.2 5.8.1 15.8-6.3 19.7-11.1zm-17.7 12.6c5.8.6 14.5-6 18.7-11.3-3.7 4.1-16.8 11.4-18.7 11.3zm19.2-12l.1-.1c-.2.3-.4.5-.6.8.1-.2.3-.4.5-.7zm3.4-1.4l-1.3 2.1c.1-.2.3-.4.4-.5l.9-1.6zm-1.2 2.2c-.4.5-.8 1-1.3 1.6.4-.4.7-.7.9-1l.4-.6zm2 .2c-.1.2-.2.4-.3.5.2-.2.2-.3.3-.5zm-17.2 15.1c-.3 0-.6-.1-.9-.1.2 0 .5.1.9.1zm86 9.5c.8.6 1.5 1.3 2.3 1.9-.7-.8-1.5-1.3-2.3-1.9zm-1.4-1.1c.5.3 1 .7 1.4 1-.2-.2-.4-.3-.5-.4l-.9-.6zm-11.5 33.4l-1 2.2c.4-.8.8-1.5 1-2.2zm0-.2c0-.1 0-.2.1-.3-.1.2-.1.3-.1.4v-.1zm-21-51.8L97 99c-2.5.2-4.9.5-7.4.5-5.5.2-19.5-.9-30.9 5.5-5.3 3.8-7.9 10.5-6.9 15.4 1 5.2 4.9 7 5.8 7.5-7.5-3.9-6.3-18.6 4.4-23.6 10.5-4.5 22.5-4.5 30.8-4.8zM57 103.4c3.5-.7 8.6-6.2 9.4-10l.4-.9-.8 1.6c-.6 2.9-8.7 7.9-9 9.3zm12-11l.4-.7-.8 1.2c-1.1 2.2-6.3 7.6-6.8 8.7 3.6-.4 5.8-6.5 7.2-9.2zm2.2.3l-.4.9c-.4 1.8-3.8 4.5-4.3 5.4 2.8.7 4.3-4 4.4-5.8.1 0 .3-.5.3-.5zm10.4 25.1l-.2-.1.3.3c.8.8.1 1.3.5 2.2 2.1 0 .4-3-.6-2.4zm1.3-1.1l-.1-.1.2.3c.6.8-.3 1.3.6 2.2 1.5-.4.1-2.5-.7-2.4zm1.8-.5v.1c.2.5-.7 1.1.7 1.1 1.1-.5-.4-1.1-.7-1.2zm1.4-1v.1c.3.7-.6.3.3 1.1 1.5.2.2-1.5-.3-1.2zm1.3-.2c-.2.6-1-.3.2.7 1 .5 0-1.1-.2-.7zM71.6 96.8c1.5.6 2-2 1.5-2.8v-.2l-.1.4c0 1-1.7 1.3-1.4 2.6zm2.6.1c1.4.4 1.7-1.9 1.3-2.6v-.2l-.1.3c0 .9-1.7 1.4-1.2 2.5zm1.9 0c1.3 1.1 2.1-1.2 1.4-1.9l-.1-.2-.1.3c-.1 1-1.2.6-1.2 1.8zm2.6.2c1.1.4.7-1.2.6-1.5v-.1l-.1.2c-.3.2-1.5.3-.5 1.4z" fill="#fffded"/></svg>