<?xml version="1.0" encoding="utf-8"?>
<svg xmlns="http://www.w3.org/2000/svg" viewBox="0 0 1920 82"><path d="M559.1 69c-9.6 4-25.5 1.1-25.3-10.1 10.6-2 24.5-2.2 25.3 10.1zm-40.5-25.3c-8.3 4-5.8 21.1 5.1 20.3 5.1-6.9 3.2-18-5.1-20.3zm60.8 13.5c-3.8-6.4-10.9-9.4-21.9-8.4-3.1 11.7 19.8 23 21.9 8.4zm531.5-10.5c.7 11.1 4.8 18.9 16.9 18.6-1.3-10.6-3.8-19.9-16.9-18.6zM506.8 62.2c.3-7.9 2.7-14.3 6.5-19.5h-7.1c-.4.8-.8 1.7-1 2.6-.6-1.2-1.6-2-2.8-2.6H500c-5.4 1.4-11.3 3.5-15.1 7.2-1.4 1.4-2.5 2.6-2.7 4.2 6.8 4.7 10.4-.2 17.9-2.1-.3 2.8-.7 5.3-1.4 7.6.4 3.7-.5 8.4-.8 11.6-7.2-4.3-21.1-.5-16.4 8.9 5.3 2.4 11.1 1.5 17.7-3.1.1.1.1.2.2.3.4.6 1.1 1.5 1.4 1.9.5-.1 1-.1 1.6-.1.1-.1.2-.1.3-.3.1-.1.2-.1.2-.1.5-2.1 1.1-4.2 2.1-6.5 2 4.2 1.8 10.6 10.1 8.4 4.7-7.4-2-16.2-8.3-18.4zm431.4-19.5H913c1.9 2 3.5 4.1 5 6.6 2.1-.7 4.2-1.2 6.1-1.6.2 0 1.5-.2 3-.1 2.1-.7 3.9-1.8 5.7-3 0 .4.2.9.5 1.4l1 1.4c1.3 2 5.1 1.4 4.8-1.3l-.2-1.6c-.2-.8-.4-1.3-.7-1.8zm68.3 0h-12.9v.2c-.4.2-.7.5-1 1-.2.4-.4.8-.8 1.7-.2.5-.4 1-.5 1.5-.2.6 0 1.2.3 1.7-.1 2.2 2.8 3.3 4.5 1.9l.8-.4c.3-.2.6-.4.9-.7.4-1.7 1.2-3 3.5-2.9.1 8.3.8 16.1 8.4 16.9 8.3-5.3 3.7-16.3-3.2-20.9zm92.1 0h-22.9c.6 1.2 1.1 2.5 1.4 4h-6.8c-.2 9.8 6.4 12.8 16.9 11.8 2.7-7.4-5.9-6.1-1.7-10.1 9.5 1.8 9.2 13.3 21.9 11.8 3.6-10-1.6-14.4-8.8-17.5zm-552.5-10c-1.3 1.7-1.5 3.5-1.2 5.2h-19.1c-.3-1.4-.7-2.6-1.5-4-4.3-.3-6.7 1.5-7.7 4h-11c9.5-11 26.9-6.8 40.5-5.2zm253.6 5.2c.1-2.8 0-5.2-1.1-6.5-2.6.4-1.9 3.7-1.9 6.5h3zm-59.3 0c-1.3-2.2-2.7-5-3.8-2.4 1.7.5 1.8 1.4 1.5 2.4h2.3zm117.6 0c.3-1 .7-2 1.3-2.9-5.5 2.6-10.7-1.8-15.1 2.8l.1.1h6.9c.5-.1 1-.2 1.4-.1l-1.4.1h6.8zM603 21.8c-1.1 4.7.2 6.4-1.4 12.4 3.2 1.1 7.8 4.4 11 1.4-1.8-6-7.2-8.5-9.6-13.8zm146 2.7c2 4.6-3.2 9 4.1 12.4 1.8-2.7-1-5.5 1.4-9.6-.5-1.6-4.3-6.5-5.5-2.8zm189.7 13.4h6c-.6-1-1.2-2.1-1.1-3.8-2.1.9-3.6 2.3-4.9 3.8zm57.2-10.6c1.1-5.2-8.5-2.5-9.6-1.4-2.5-5.3-8.5-7.1-15.1-8.3-.6 8-7.7 14-13.8 17.9 5.3 1 13.1 3.5 22 0 0 .9.2 1.7.5 2.4H996c4.2-4.4 10.1-7.1 13.7-12-1.6-1.7-3.7-1.5-5.9-1-1.3.3-2.6.8-3.8 1 .8 10.5-11.9 8.2-16.5 6.9 1.9-4 5.8-6.2 12.4-5.5zm115.7 10.6c.1-.6.1-1.4-.1-2.4-6.5.1-7-5.8-11-8.3-.2 3.7.7 8.4-1 10.6h12.1zM928.4 24.5c-1.3 3.6-11.9 10-6.2 13.4h.8c2.4-7.1 9.5-9.5 16.4-12 1.4 1.9 3.7 2.8 5.5 4.1-2.2-10.9 13.3-4.2 13.8-12.4-14.1-1.6-20 7-30.3 6.9zm86.6 13.4c1-2.1 2.8-3.6 5.6-3.8 1.2.8 2.1 2.2 2.8 3.8h20.6c.2-.8.6-1.6 1.3-2.4-14.5-6.8-31.6-6.1-42.2 2.4h11.9zm-895.5 0c1-2.1 2.8-3.6 5.6-3.8 1.2.8 2.1 2.2 2.8 3.8h20.6c.2-.8.6-1.6 1.3-2.4-14.5-6.8-31.6-6.1-42.2 2.4h11.9zM502.4 31c3.2-1.6 9.8.1 9.5-5.1-4 .8-3.9-2.4-8-1.4 1 3.7-1.8 3.6-1.5 6.5zM32.9 24.5c-1.3 3.6-11.9 10-6.2 13.4h.8c2.4-7.1 9.5-9.5 16.4-12 1.4 1.9 3.7 2.8 5.5 4.1-2.2-10.9 13.3-4.2 13.8-12.4-14.2-1.6-20 7-30.3 6.9zm183.2 13.4c.1-.6.1-1.4-.1-2.4-6.5.1-7-5.8-11-8.3-.2 3.7.7 8.4-1 10.6h12.1zm70.1-2.4c1.3.5 2.5 1.4 3.6 2.4h4.5c-1.6-1.9-3.7-3.3-8.1-2.4zm895.6 0c1.3.5 2.5 1.4 3.6 2.4h4.5c-1.6-1.9-3.7-3.3-8.1-2.4zM100.3 27.3c1.1-5.2-8.5-2.5-9.6-1.4-2.5-5.3-8.5-7.1-15.1-8.3-.6 8-7.7 14-13.8 17.9 5.3 1 13.1 3.5 22 0 0 .9.2 1.7.5 2.4h16.1c4.2-4.4 10.1-7.1 13.7-12-1.6-1.7-3.7-1.5-5.9-1-1.3.3-2.6.8-3.8 1 .8 10.5-11.9 8.2-16.5 6.9 2-4 5.8-6.2 12.4-5.5zM43.1 37.9h6c-.6-1-1.2-2.1-1.1-3.8-2 .9-3.5 2.3-4.9 3.8zm428.8-12.3c-.3-.7-.6-1.2-1-1.7-6-6-22.4 8.5-29 .6-1 4.7-7.1 10.6-7 13.3 4.9-5.9 14.3-10.4 23.2-8.1-.7-6.7 8.7-3.2 13.8-4.1zM357 37.9c4.8-2.4 12.8-7.3 12.2-11.7-8.1 6.3-19.6 6.3-29.2 5.3.2 2.9-.7 5.1-2 6.4h19zm138.5-12c-2.6.8-3.8.3-4.5-.6-.8-1-1.2-2.5-2.1-3.4-3 4.4-10.9 12.4-16.3 16h24.9c1.2-1.9 2.1-3.6.8-5.1-4 1.9-10.2 3.5-12.9.3-.5-.5-.9-1.1-1.2-1.9 2-2.5 11.4-3.8 11.3-5.3zM387.3 34c-8.4 1-5.3-10.8-9.4-16-.5 5.2-7 6.6-4.9 10.3 8.6-5 8.4 16.4 14.3 5.7zm-30.5-16c1 2.5 4.8-2.6 8.1 1.6 0-5.9 3.9-5.8 4.9-10.3-4.4.2-1.8-4.2-6.2-4.1 2.9 7.8-4.1 8.4-6.8 12.8zm1279.1 19.9c-1.3-2.2-2.7-5-3.8-2.4 1.7.5 1.8 1.4 1.5 2.4h2.3zm117.6 0c.3-1 .7-2 1.3-2.9-5.5 2.6-10.7-1.8-15.1 2.8l.1.1h6.9c.5-.1 1-.2 1.4-.1l-1.4.1h6.8zm-255-16.1c-1.1 4.7.2 6.4-1.4 12.4 3.2 1.1 7.8 4.4 11 1.4-1.8-6-7.1-8.5-9.6-13.8zm146 2.7c2 4.6-3.2 9 4.1 12.4 1.8-2.7-1-5.5 1.4-9.6-.4-1.6-4.3-6.5-5.5-2.8zm50.7 13.4c.1-2.8 0-5.2-1.1-6.5-2.6.4-1.9 3.7-1.9 6.5h3zM1920 0v9.3c-.7.1-1.4.1-2.2 0-1.1 3.9 1.9 3.6 1.4 6.9-3.8 4.2-5.8 5-6.9 9.6l-.1.7c-6 1.8-11.7 2.8-19.6 1.6-2 4.1-5.3 7.1-8.8 9.8h-8.2c3.9-2 9.1-2.8 6-8.4-2.4-.8-8.1 1.7-8.3-1.4 2.3-4.1 4-9.3-2.7-9.6-3.7.4-2.5 5.8-5.5 6.9-1-9.1-14.9-7.4-11 1.4 9.2-1.1 10.1 6.2 13.2 11.2h-4.1c-.7-2.4-1.4-4.8-2.2-7-16-2.1-18.9-9.2-38.6-8.3-1.4 7.9 4.8 8.1 5.5 13.8-1.7.4-2.6.9-2.8 1.5h-10.5l.9-1.5c-4.2-4.7-13.1 5.5-15.2-1.4 2-4.4 4.7-8.1 4.1-15.1-11.6.1-17.2 11.3-10.8 18h-22.2c-1.7-5.1-3.7-9.5-5.5-12.5-3.8-1-2.8 2.7-5.5 2.8-2-5.4-7.9-6.7-11-11-9 1.7-16.7-3.9-23.4 0-.2 5.7-.8 15.4 0 20.8h-25.2c-.5-3.2-.6-5.9 1.5-7.9 4.1 10.9 16.6-1.6 12.4-12.4-6-.5-7.1 3.9-12.4 4.1-3.6-6-5.6-13.7-16.5-12.4-.8 3.7 2.4 13.7 2.8 20.7-4.6-.6-9.1 4.9-14.8 7.9h-16.1c5.6-6.7 7.7-15.3.5-24.4-11.4.8-9.1-12-22-9.6 5.4 12.6-11.3 15-5.5 27.5-1.9-.1-3 .6-4.1 1.4-1.5-4.8.9-8-2.8-13.8-8.1 1.7-13.4 11.2-13.5 18.9h-22.4c-.7-2.8-2.2-4.8-4-6.5-10.7-2.8-17.1 5.8-20.7 5.5 1.7-4.8 8.2-4.6 6.9-12.4-8.3-11-21.1-.4-22.3 13.4h-9.4c-2.2-3.8-3.9-7.8-2.8-10.6 4.1 0 4.7 3.6 8.3 4.1 8.4-4.9 10.5-30.2-5.5-23.4-3.4-6.3-12.6-8.1-19.3-4.1 6.2 7.2-1.5 13.9 6.9 20.7h-5.5c-.3 4.6.1 9.4 1.2 13.4h-.8c-4.9-14-12.7-24.9-23.8-32.7-15.6 8.6-13.4 23.9-4 32.7h-30.5c-1.5-.8-2.9-1.7-4-2.8-.6-.7-1.1-1.4-1.8-2.6-4.2-1.2-3 3.2-5.2 4.1 0-1-.2-1.6-.7-2-1.4-1.8-5.5-.9-7.2-2.4-.1-.2-.3-.4-.3-.7l-.3-8.5c-1.5-.6-2.9-1.4-4.1-2.8-8.4 3.2-9.7 5.9-21.7 4.2 1.4-3.7.7-6.5-1.1-8.5-3.2-3.7-10.3-4.3-15.7-1.2-1.2 2.4-.5 6.8-2.7 8.2-1.6-3.4-3.4-6.6-5.8-9.2-2.9-3.2-6.6-5.4-12.2-5.8-3 2.5-5.2 5.7-9.5 6.8-.6-1.8-1.4-3.1-2.2-3.9-4.9-5.6-13.2 4.4-20-1.6-6.8 2.4-11.1 7.2-15.2 12.4-2.6-.6-3.5-3-6.9-2.8-5.2 4.9-11.8 8.4-13.5 16.8 1.9.7 3.7 1.5 5.3 2.4h-12.2c-1.4-4.2-3.8-7.8-5.8-11.7 14.1-5.6-8.6-24.7-18.9-17.9 2.3 4.8 7.2 6.9 11.1 7.9-5.7 6.1 6.1 13.2-2.2 17.8 1.8-7.3-3.7-13.9-7-21.1-3.9-1.8-5.2.4-8.4-.3-2-3.1.5-3.4 1.4-6.7-5.9-5.9-20.9-7.7-27.3-4.1 1.5 9.7-5.4 7-8.4 13.8 3.6 3.7-1.3 9.4-5.2 11.6-7.4-5.4-5.1.9-10.5 3.5-1.8-5.1 4-15.1-2.1-17.3-.5 1-1.4 1.3-3 .8-.1 6-2.6 9.4-1.9 16.5-7-2.3-12.7 1.2-15 6.6 0-.5 0-1.1-.1-1.7-3.1-5-8.6.5-11-4.1 2-10.1 17.7 3.1 16.5-13.8-2.4-1.2-4-3.3-6.9-4.1-5.2 3.1-8.2 8.4-13.8 11-1.9-6.4-8.2-8.4-9.6-15.1h-8.3c-2 3.4-3.3 5.4-1.4 9.6 14.8-1 11 13.1 11 17.9-1.6.1-3 .5-4.2 1h-4c1.9-9.1-3.8-10.7-9.7-12-3.7 1.8-8.3 6.7-10.2 12h-12.3c-.7-1.8-1.4-3.5-2.3-5.1 10.2.9-1.6-9.6 2.8-11 3.8 1.7 2.6 8.5 2.8 13.8 10.1 3.9 11.8-17.3 6.9-24.8-12.1.6-17.2-8.4-27.5-4.1.7 5.9 5.4 9.2 1.4 19.3 4.1 2.3 12 .9 12.4 6.9-3.8-1.7-6.8-3.4-11-1.4-.9 2.4-.9 4.5-.7 6.5h-3.1c-1.3-7.4-2.2-15.2-11.3-14.8-.6-8.1-4.3-13.1-12.4-13.8-9.9 9.4-10 20.3-4.3 28.5h-30c-1.9-.6-3.7-1-5.6-1l.2 1h-1.9l.3-1c-9.1.8-8.1-8.4-11-13.8-6.8-1.3-9.3 1.7-12.4 4.1-2.4-4.6-10-1.1-12.4-2.8-.6-3.3 2.5-3 1.4-6.9-3.4-3.1-7.8-5-15.1-4.1-2.3 1-2.2 4.3-2.8 7-.3 1.1-.6 2-1.3 2.7C997 17 993.6 9.8 984.9 8c-2.9.8-4.4 2.9-6.9 4.1-2.1-1.6-1.6-5.7-5.5-5.5-19.2.5-39.2-3.2-48.2 13.8-2.6-.6-2.5-3.9-6.9-2.8-5.6 4.5-11.6 8.6-11 19.3 2.3-.3 3.7.3 5 1h-12.9v-.4h-.7c.1.1.2.2.3.4h-22.2c-1.7-5.1-3.7-9.5-5.5-12.5-3.8-1-2.8 2.7-5.5 2.8-2-5.4-7.9-6.7-11-11-9 1.7-16.7-3.9-23.4 0-.2 5.7-.8 15.4 0 20.8h-25.2c-.5-3.2-.6-5.9 1.5-7.9 4.1 10.9 16.6-1.6 12.4-12.4-6-.5-7.1 3.9-12.4 4.1-3.6-6-5.6-13.7-16.5-12.4-.8 3.7 2.4 13.7 2.8 20.7-4.6-.6-9.1 4.9-14.8 7.9h-16.1c5.6-6.7 7.7-15.3.5-24.4-11.4.8-9.1-12-22-9.6 5.4 12.6-11.3 15-5.5 27.5-1.9-.1-3 .6-4.1 1.4-1.5-4.8.9-8-2.8-13.8-8.1 1.7-13.4 11.2-13.5 18.9h-22.4c-.7-2.8-2.2-4.8-4-6.5-10.7-2.8-17.1 5.8-20.7 5.5 1.7-4.8 8.2-4.6 6.9-12.4-8.3-11-21.1-.4-22.3 13.4h-9.4c-2.2-3.8-3.9-7.8-2.8-10.6 4.1 0 4.7 3.6 8.3 4.1 8.4-4.9 10.5-30.2-5.5-23.4-3.4-6.3-12.6-8.1-19.3-4.1 6.2 7.2-1.5 13.9 6.9 20.7H625c-.3 4.6.1 9.4 1.2 13.4h-.8c-4.9-14-12.7-24.9-23.8-32.7-15.6 8.6-13.4 23.9-4 32.7h-30.5c-1.5-.8-2.9-1.7-4-2.8-.6-.7-1.1-1.4-1.8-2.6-4.2-1.2-3 3.2-5.2 4.1 0-1-.2-1.6-.7-2-1.4-1.8-5.5-.9-7.2-2.4-.1-.2-.3-.4-.3-.7l-.3-8.5c-1.5-.6-2.9-1.4-4.1-2.8-8.4 3.2-9.7 5.9-21.7 4.2 1.4-3.7.7-6.5-1.1-8.5-3.2-3.7-10.3-4.3-15.7-1.2-1.2 2.4-.5 6.8-2.7 8.2-1.6-3.4-3.4-6.6-5.8-9.2-2.9-3.2-6.6-5.4-12.2-5.8-3 2.5-5.2 5.7-9.5 6.8-.6-1.8-1.4-3.1-2.2-3.9-4.9-5.6-13.2 4.4-20-1.6-6.8 2.4-11.1 7.2-15.2 12.4-2.6-.6-3.5-3-6.9-2.8-5.2 4.9-11.8 8.4-13.5 16.8 1.9.7 3.7 1.5 5.3 2.4h-12.2c-1.4-4.2-3.8-7.8-5.8-11.7 14.1-5.6-8.6-24.7-18.9-17.9 2.3 4.8 7.2 6.9 11.1 7.9-5.7 6.1 6.1 13.2-2.2 17.8 1.8-7.3-3.7-13.9-7-21.1-3.9-1.8-5.2.4-8.4-.3-2-3.1.5-3.4 1.4-6.7-5.9-5.9-20.9-7.7-27.3-4.1 1.5 9.7-5.4 7-8.4 13.8 3.6 3.7-1.3 9.4-5.2 11.6-7.4-5.4-5.1.9-10.5 3.5-1.8-5.1 4-15.1-2.1-17.3-.5 1-1.4 1.3-3 .8-.1 6-2.6 9.4-1.9 16.5-7-2.3-12.7 1.2-15 6.6 0-.5 0-1.1-.1-1.7-3.1-5-8.6.5-11-4.1 2-10.1 17.7 3.1 16.5-13.8-2.4-1.2-4-3.3-6.9-4.1-5.2 3.1-8.2 8.4-13.8 11-1.9-6.4-8.2-8.4-9.6-15.1h-8.3c-2 3.4-3.3 5.4-1.4 9.6 14.8-1 11 13.1 11 17.9-1.6.1-3 .5-4.2 1h-4c1.9-9.1-3.8-10.7-9.7-12-3.7 1.8-8.3 6.7-10.2 12h-12.3c-.7-1.8-1.4-3.5-2.3-5.1 10.2.9-1.6-9.6 2.8-11 3.8 1.7 2.6 8.5 2.8 13.8 10.1 3.9 11.8-17.3 6.9-24.8-12.1.6-17.2-8.4-27.5-4.1.7 5.9 5.4 9.2 1.4 19.3 4.1 2.3 12 .9 12.4 6.9-3.8-1.7-6.8-3.4-11-1.4-.9 2.4-.9 4.5-.7 6.5h-3.1c-1.3-7.4-2.2-15.2-11.3-14.8-.6-8.1-4.3-13.1-12.4-13.8-9.9 9.4-10 20.3-4.3 28.5h-30c-1.9-.6-3.7-1-5.6-1l.2 1h-1.9l.3-1c-9.1.8-8.1-8.4-11-13.8-6.8-1.3-9.3 1.7-12.4 4.1-2.4-4.6-10-1.1-12.4-2.8-.6-3.3 2.5-3 1.4-6.9-3.4-3.1-7.8-5-15.1-4.1-2.3 1-2.2 4.3-2.8 7-.3 1.1-.6 2-1.3 2.7C101.4 17 98 9.8 89.3 8c-2.9.8-4.4 2.9-6.9 4.1-2.1-1.6-1.6-5.7-5.5-5.5-19.2.5-39.2-3.2-48.2 13.8-2.6-.6-2.5-3.9-6.9-2.8-5.6 4.5-11.6 8.6-11 19.3 2.3-.3 3.7.3 5 1H0v-2.7c6.5.3 12-13 5.3-17.6-2.7.9-3.7 3.6-5.3 5.6V0h1920zM172 24.5c-1.6 1.6-1.6 4.9-1.4 8.3 12.9 10.1 18.7-9.9 1.4-8.3zm391.1 2.8c0-4.5-3.9-5.3-8.3-5.5 0 2.7-3.8 1.8-2.8 5.5 1.1.3 1.6 1.2 1.4 2.8 5.8 1.6 6.1-2.3 9.7-2.8zm19.2 2.7c-.5-10.8-16.9-13.1-16.5 0 5.8 3.2 9.9 2.1 16.5 0zm129.5-17.9c-10.1-4.9-14.7 4.7-22 6.9-3.5-6.6-6.3-13.9-17.9-12.4.6 3.3-2.5 3-1.4 6.9 4.7 2.2 11.6 2.2 13.8 6.9-2.3 1.4-1.5 5.8-2.8 8.3 11.6-4.9 17.4 19.1 24.8 2.8-1.2-4.3-7.9-3.1-11-5.5-.8-6.7 8.6-3.3 13.8-4.1 1.5-2.7 1.7-6.7 2.7-9.8zm166.8 9.1c-1.9 1.8-1.4 6-1.4 9.6 6.3 3 10.2 1.5 15.1 6.9 6.2-11-7.3-13.4-13.7-16.5zm22.3-3.6c-2.7.9-3.7 3.6-5.3 5.6v12c6.5.4 11.9-13 5.3-17.6zm166.6 6.9c-1.6 1.6-1.6 4.9-1.4 8.3 13 10.1 18.8-9.9 1.4-8.3zm391.1 2.8c0-4.5-3.9-5.3-8.3-5.5 0 2.7-3.8 1.8-2.8 5.5 1.1.3 1.6 1.2 1.4 2.8 5.8 1.6 6.1-2.3 9.7-2.8zm19.3 2.7c-.5-10.8-16.9-13.1-16.5 0 5.7 3.2 9.9 2.1 16.5 0zm129.4-17.9c-10.1-4.9-14.7 4.7-22 6.9-3.5-6.6-6.3-13.9-17.9-12.4.6 3.3-2.5 3-1.4 6.9 4.7 2.2 11.6 2.2 13.8 6.9-2.3 1.4-1.5 5.8-2.8 8.3 11.6-4.9 17.4 19.1 24.8 2.8-1.2-4.3-7.9-3.1-11-5.5-.8-6.7 8.6-3.3 13.8-4.1 1.5-2.7 1.7-6.7 2.7-9.8zm166.8 9.1c-1.9 1.8-1.4 6-1.4 9.6 6.3 3 10.2 1.5 15.1 6.9 6.2-11-7.2-13.4-13.7-16.5zm-521.6 16.7c4.8-2.4 12.8-7.3 12.2-11.7-8.1 6.3-19.6 6.3-29.2 5.3.2 2.9-.7 5.1-2 6.4h19zm542.7 0h3.7c-.4-.7-2.2-.2-3.7 0zM1282.9 34c-8.4 1-5.3-10.8-9.4-16-.5 5.2-7 6.6-4.9 10.3 8.6-5 8.3 16.4 14.3 5.7zm84.5-8.4c-.3-.7-.6-1.2-1-1.7-6-6-22.4 8.5-29 .6-1 4.7-7.1 10.6-7 13.3 4.9-5.9 14.3-10.4 23.2-8.1-.7-6.7 8.7-3.2 13.8-4.1zm-115-7.6c1 2.5 4.8-2.6 8.1 1.6 0-5.9 3.9-5.8 4.9-10.3-4.4.2-1.8-4.2-6.2-4.1 2.8 7.8-4.2 8.4-6.8 12.8zM1401 37.9h11c1.1-2.6 3.5-4.4 7.7-4 .8 1.4 1.2 2.7 1.5 4h19.1c-.3-1.7-.1-3.4 1.2-5.2-13.5-1.6-30.9-5.8-40.5 5.2zm-10-12c-2.6.8-3.8.3-4.5-.6-.8-1-1.2-2.5-2.1-3.4-3 4.4-10.9 12.4-16.3 16h24.9c1.2-1.9 2.1-3.6.8-5.1-4 1.9-10.2 3.5-12.9.3-.5-.5-.9-1.1-1.2-1.9 2.1-2.5 11.4-3.8 11.3-5.3zm6.9 5.1c3.2-1.6 9.8.1 9.5-5.1-4 .8-3.9-2.4-8-1.4 1.1 3.7-1.7 3.6-1.5 6.5z" fill="#fff"/></svg>