<?xml version="1.0" encoding="utf-8"?>
<!-- Generator: Adobe Illustrator 24.2.0, SVG Export Plug-In . SVG Version: 6.00 Build 0)  -->
<svg version="1.1" id="Miniatura_T-shirt" xmlns="http://www.w3.org/2000/svg" xmlns:xlink="http://www.w3.org/1999/xlink" x="0px"
	 y="0px" viewBox="0 0 1920 82" style="enable-background:new 0 0 1920 82;" xml:space="preserve">
<style type="text/css">
	.st0{fill:#FFFFFF;}
</style>
<path class="st0" d="M559.1,69c-9.6,4-25.5,1.1-25.3-10.1C544.4,56.9,558.3,56.7,559.1,69z M518.6,43.7c-8.3,4-5.8,21.1,5.1,20.3
	C528.8,57.1,526.9,46,518.6,43.7z M579.4,57.2c-3.8-6.4-10.9-9.4-21.9-8.4C554.4,60.5,577.3,71.8,579.4,57.2z M1110.9,46.7
	c0.7,11.1,4.8,18.9,16.9,18.6C1126.5,54.7,1124,45.4,1110.9,46.7z M506.8,62.2c0.3-7.9,2.7-14.3,6.5-19.5h-7.1
	c-0.4,0.8-0.8,1.7-1,2.6c-0.6-1.2-1.6-2-2.8-2.6h-2.4c-5.4,1.4-11.3,3.5-15.1,7.2c-1.4,1.4-2.5,2.6-2.7,4.2
	c6.8,4.7,10.4-0.2,17.9-2.1c-0.3,2.8-0.7,5.3-1.4,7.6c0.4,3.7-0.5,8.4-0.8,11.6c-7.2-4.3-21.1-0.5-16.4,8.9
	c5.3,2.4,11.1,1.5,17.7-3.1c0.1,0.1,0.1,0.2,0.2,0.3c0.4,0.6,1.1,1.5,1.4,1.9c0.5-0.1,1-0.1,1.6-0.1c0,0,0,0,0,0
	c0.1-0.1,0.2-0.1,0.3-0.3c0.1-0.1,0.2-0.1,0.2-0.1c0.5-2.1,1.1-4.2,2.1-6.5c2,4.2,1.8,10.6,10.1,8.4
	C519.8,73.2,513.1,64.4,506.8,62.2z M938.2,42.7H913c1.9,2,3.5,4.1,5,6.6c2.1-0.7,4.2-1.2,6.1-1.6c0.2,0,1.5-0.2,3-0.1
	c2.1-0.7,3.9-1.8,5.7-3c0,0.4,0.2,0.9,0.5,1.4l1,1.4c1.3,2,5.1,1.4,4.8-1.3l-0.2-1.6C938.7,43.7,938.5,43.2,938.2,42.7z
	 M1006.5,42.7h-12.9l0,0.2c-0.4,0.2-0.7,0.5-1,1c-0.2,0.4-0.4,0.8-0.8,1.7c-0.2,0.5-0.4,1-0.5,1.5c-0.2,0.6,0,1.2,0.3,1.7
	c-0.1,2.2,2.8,3.3,4.5,1.9l0.8-0.4c0.3-0.2,0.6-0.4,0.9-0.7c0.4-1.7,1.2-3,3.5-2.9c0.1,8.3,0.8,16.1,8.4,16.9
	C1018,58.3,1013.4,47.3,1006.5,42.7z M1098.6,42.7h-22.9c0.6,1.2,1.1,2.5,1.4,4h-6.8c-0.2,9.8,6.4,12.8,16.9,11.8
	c2.7-7.4-5.9-6.1-1.7-10.1c9.5,1.8,9.2,13.3,21.9,11.8C1111,50.2,1105.8,45.8,1098.6,42.7z M546.1,32.7c-1.3,1.7-1.5,3.5-1.2,5.2
	h-19.1c-0.3-1.4-0.7-2.6-1.5-4c-4.3-0.3-6.7,1.5-7.7,4h-11C515.1,26.9,532.5,31.1,546.1,32.7z M799.7,37.9c0.1-2.8,0-5.2-1.1-6.5
	c-2.6,0.4-1.9,3.7-1.9,6.5H799.7z M740.4,37.9c-1.3-2.2-2.7-5-3.8-2.4c1.7,0.5,1.8,1.4,1.5,2.4H740.4z M858,37.9
	c0.3-1,0.7-2,1.3-2.9c-5.5,2.6-10.7-1.8-15.1,2.8l0.1,0.1h6.9c0.5-0.1,1-0.2,1.4-0.1l-1.4,0.1H858z M603,21.8
	c-1.1,4.7,0.2,6.4-1.4,12.4c3.2,1.1,7.8,4.4,11,1.4C610.8,29.6,605.4,27.1,603,21.8z M749,24.5c2,4.6-3.2,9,4.1,12.4
	c1.8-2.7-1-5.5,1.4-9.6C754,25.7,750.2,20.8,749,24.5z M938.7,37.9h6c-0.6-1-1.2-2.1-1.1-3.8C941.5,35,940,36.4,938.7,37.9z
	 M995.9,27.3c1.1-5.2-8.5-2.5-9.6-1.4c-2.5-5.3-8.5-7.1-15.1-8.3c-0.6,8-7.7,14-13.8,17.9c5.3,1,13.1,3.5,22,0
	c0,0.9,0.2,1.7,0.5,2.4h16.1c4.2-4.4,10.1-7.1,13.7-12c-1.6-1.7-3.7-1.5-5.9-1c-1.3,0.3-2.6,0.8-3.8,1c0.8,10.5-11.9,8.2-16.5,6.9
	C985.4,28.8,989.3,26.6,995.9,27.3z M1111.6,37.9c0.1-0.6,0.1-1.4-0.1-2.4c-6.5,0.1-7-5.8-11-8.3c-0.2,3.7,0.7,8.4-1,10.6H1111.6z
	 M928.4,24.5c-1.3,3.6-11.9,10-6.2,13.4h0.8c2.4-7.1,9.5-9.5,16.4-12c1.4,1.9,3.7,2.8,5.5,4.1c-2.2-10.9,13.3-4.2,13.8-12.4
	C944.6,16,938.7,24.6,928.4,24.5z M1015,37.9c1-2.1,2.8-3.6,5.6-3.8c1.2,0.8,2.1,2.2,2.8,3.8h20.6c0.2-0.8,0.6-1.6,1.3-2.4
	c-14.5-6.8-31.6-6.1-42.2,2.4H1015z M119.5,37.9c1-2.1,2.8-3.6,5.6-3.8c1.2,0.8,2.1,2.2,2.8,3.8h20.6c0.2-0.8,0.6-1.6,1.3-2.4
	c-14.5-6.8-31.6-6.1-42.2,2.4H119.5z M502.4,31c3.2-1.6,9.8,0.1,9.5-5.1c-4,0.8-3.9-2.4-8-1.4C504.9,28.2,502.1,28.1,502.4,31z
	 M32.9,24.5c-1.3,3.6-11.9,10-6.2,13.4h0.8c2.4-7.1,9.5-9.5,16.4-12c1.4,1.9,3.7,2.8,5.5,4.1c-2.2-10.9,13.3-4.2,13.8-12.4
	C49,16,43.2,24.6,32.9,24.5z M216.1,37.9c0.1-0.6,0.1-1.4-0.1-2.4c-6.5,0.1-7-5.8-11-8.3c-0.2,3.7,0.7,8.4-1,10.6H216.1z
	 M286.2,35.5c1.3,0.5,2.5,1.4,3.6,2.4h4.5C292.7,36,290.6,34.6,286.2,35.5z M1181.8,35.5c1.3,0.5,2.5,1.4,3.6,2.4h4.5
	C1188.3,36,1186.2,34.6,1181.8,35.5z M100.3,27.3c1.1-5.2-8.5-2.5-9.6-1.4c-2.5-5.3-8.5-7.1-15.1-8.3c-0.6,8-7.7,14-13.8,17.9
	c5.3,1,13.1,3.5,22,0c0,0.9,0.2,1.7,0.5,2.4h16.1c4.2-4.4,10.1-7.1,13.7-12c-1.6-1.7-3.7-1.5-5.9-1c-1.3,0.3-2.6,0.8-3.8,1
	c0.8,10.5-11.9,8.2-16.5,6.9C89.9,28.8,93.7,26.6,100.3,27.3z M43.1,37.9h6c-0.6-1-1.2-2.1-1.1-3.8C46,35,44.5,36.4,43.1,37.9z
	 M471.9,25.6c-0.3-0.7-0.6-1.2-1-1.7c-6-6-22.4,8.5-29,0.6c-1,4.7-7.1,10.6-7,13.3c4.9-5.9,14.3-10.4,23.2-8.1
	C457.4,23,466.8,26.5,471.9,25.6z M357,37.9c4.8-2.4,12.8-7.3,12.2-11.7c-8.1,6.3-19.6,6.3-29.2,5.3c0.2,2.9-0.7,5.1-2,6.4H357z
	 M495.5,25.9c-2.6,0.8-3.8,0.3-4.5-0.6c-0.8-1-1.2-2.5-2.1-3.4c-3,4.4-10.9,12.4-16.3,16h24.9c1.2-1.9,2.1-3.6,0.8-5.1
	c-4,1.9-10.2,3.5-12.9,0.3c-0.5-0.5-0.9-1.1-1.2-1.9C486.2,28.7,495.6,27.4,495.5,25.9z M387.3,34c-8.4,1-5.3-10.8-9.4-16
	c-0.5,5.2-7,6.6-4.9,10.3C381.6,23.3,381.4,44.7,387.3,34z M356.8,18c1,2.5,4.8-2.6,8.1,1.6c0-5.9,3.9-5.8,4.9-10.3
	c-4.4,0.2-1.8-4.2-6.2-4.1C366.5,13,359.5,13.6,356.8,18z M1635.9,37.9c-1.3-2.2-2.7-5-3.8-2.4c1.7,0.5,1.8,1.4,1.5,2.4H1635.9z
	 M1753.5,37.9c0.3-1,0.7-2,1.3-2.9c-5.5,2.6-10.7-1.8-15.1,2.8l0.1,0.1h6.9c0.5-0.1,1-0.2,1.4-0.1l-1.4,0.1H1753.5z M1498.5,21.8
	c-1.1,4.7,0.2,6.4-1.4,12.4c3.2,1.1,7.8,4.4,11,1.4C1506.3,29.6,1501,27.1,1498.5,21.8z M1644.5,24.5c2,4.6-3.2,9,4.1,12.4
	c1.8-2.7-1-5.5,1.4-9.6C1649.6,25.7,1645.7,20.8,1644.5,24.5z M1695.2,37.9c0.1-2.8,0-5.2-1.1-6.5c-2.6,0.4-1.9,3.7-1.9,6.5H1695.2z
	 M1920,0l0,9.3c-0.7,0.1-1.4,0.1-2.2,0c-1.1,3.9,1.9,3.6,1.4,6.9c-3.8,4.2-5.8,5-6.9,9.6l-0.1,0.7c-6,1.8-11.7,2.8-19.6,1.6
	c-2,4.1-5.3,7.1-8.8,9.8h-8.2c3.9-2,9.1-2.8,6-8.4c-2.4-0.8-8.1,1.7-8.3-1.4c2.3-4.1,4-9.3-2.7-9.6c-3.7,0.4-2.5,5.8-5.5,6.9
	c-1-9.1-14.9-7.4-11,1.4c9.2-1.1,10.1,6.2,13.2,11.2h-4.1c-0.7-2.4-1.4-4.8-2.2-7c-16-2.1-18.9-9.2-38.6-8.3
	c-1.4,7.9,4.8,8.1,5.5,13.8c-1.7,0.4-2.6,0.9-2.8,1.5h-10.5c0.3-0.5,0.6-1,0.9-1.5c-4.2-4.7-13.1,5.5-15.2-1.4
	c2-4.4,4.7-8.1,4.1-15.1c-11.6,0.1-17.2,11.3-10.8,18h-22.2c-1.7-5.1-3.7-9.5-5.5-12.5c-3.8-1-2.8,2.7-5.5,2.8c-2-5.4-7.9-6.7-11-11
	c-9,1.7-16.7-3.9-23.4,0c-0.2,5.7-0.8,15.4,0,20.8h-25.2c-0.5-3.2-0.6-5.9,1.5-7.9c4.1,10.9,16.6-1.6,12.4-12.4
	c-6-0.5-7.1,3.9-12.4,4.1c-3.6-6-5.6-13.7-16.5-12.4c-0.8,3.7,2.4,13.7,2.8,20.7c-4.6-0.6-9.1,4.9-14.8,7.9h-16.1
	c5.6-6.7,7.7-15.3,0.5-24.4c-11.4,0.8-9.1-12-22-9.6c5.4,12.6-11.3,15-5.5,27.5c-1.9-0.1-3,0.6-4.1,1.4c-1.5-4.8,0.9-8-2.8-13.8
	c-8.1,1.7-13.4,11.2-13.5,18.9h-22.4c-0.7-2.8-2.2-4.8-4-6.5c-10.7-2.8-17.1,5.8-20.7,5.5c1.7-4.8,8.2-4.6,6.9-12.4
	c-8.3-11-21.1-0.4-22.3,13.4h-9.4c-2.2-3.8-3.9-7.8-2.8-10.6c4.1,0,4.7,3.6,8.3,4.1c8.4-4.9,10.5-30.2-5.5-23.4
	c-3.4-6.3-12.6-8.1-19.3-4.1c6.2,7.2-1.5,13.9,6.9,20.7h-5.5c-0.3,4.6,0.1,9.4,1.2,13.4h-0.8c-4.9-14-12.7-24.9-23.8-32.7
	c-15.6,8.6-13.4,23.9-4,32.7h-30.5c-1.5-0.8-2.9-1.7-4-2.8c-0.6-0.7-1.1-1.4-1.8-2.6c-4.2-1.2-3,3.2-5.2,4.1c0-1-0.2-1.6-0.7-2
	c-1.4-1.8-5.5-0.9-7.2-2.4c-0.1-0.2-0.3-0.4-0.3-0.7l-0.3-8.5c-1.5-0.6-2.9-1.4-4.1-2.8c-8.4,3.2-9.7,5.9-21.7,4.2
	c1.4-3.7,0.7-6.5-1.1-8.5c-3.2-3.7-10.3-4.3-15.7-1.2c-1.2,2.4-0.5,6.8-2.7,8.2c-1.6-3.4-3.4-6.6-5.8-9.2c-2.9-3.2-6.6-5.4-12.2-5.8
	c-3,2.5-5.2,5.7-9.5,6.8c-0.6-1.8-1.4-3.1-2.2-3.9c-4.9-5.6-13.2,4.4-20-1.6c-6.8,2.4-11.1,7.2-15.2,12.4c-2.6-0.6-3.5-3-6.9-2.8
	c-5.2,4.9-11.8,8.4-13.5,16.8c1.9,0.7,3.7,1.5,5.3,2.4h-12.2c-1.4-4.2-3.8-7.8-5.8-11.7c14.1-5.6-8.6-24.7-18.9-17.9
	c2.3,4.8,7.2,6.9,11.1,7.9c-5.7,6.1,6.1,13.2-2.2,17.8c1.8-7.3-3.7-13.9-7-21.1c-3.9-1.8-5.2,0.4-8.4-0.3c-2-3.1,0.5-3.4,1.4-6.7
	c-5.9-5.9-20.9-7.7-27.3-4.1c1.5,9.7-5.4,7-8.4,13.8c3.6,3.7-1.3,9.4-5.2,11.6c-7.4-5.4-5.1,0.9-10.5,3.5c-1.8-5.1,4-15.1-2.1-17.3
	c-0.5,1-1.4,1.3-3,0.8c-0.1,6-2.6,9.4-1.9,16.5c-7-2.3-12.7,1.2-15,6.6c0-0.5,0-1.1-0.1-1.7c-3.1-5-8.6,0.5-11-4.1
	c2-10.1,17.7,3.1,16.5-13.8c-2.4-1.2-4-3.3-6.9-4.1c-5.2,3.1-8.2,8.4-13.8,11c-1.9-6.4-8.2-8.4-9.6-15.1h-8.3
	c-2,3.4-3.3,5.4-1.4,9.6c14.8-1,11,13.1,11,17.9c-1.6,0.1-3,0.5-4.2,1h-4c1.9-9.1-3.8-10.7-9.7-12c-3.7,1.8-8.3,6.7-10.2,12h-12.3
	c-0.7-1.8-1.4-3.5-2.3-5.1c10.2,0.9-1.6-9.6,2.8-11c3.8,1.7,2.6,8.5,2.8,13.8c10.1,3.9,11.8-17.3,6.9-24.8
	c-12.1,0.6-17.2-8.4-27.5-4.1c0.7,5.9,5.4,9.2,1.4,19.3c4.1,2.3,12,0.9,12.4,6.9c-3.8-1.7-6.8-3.4-11-1.4c-0.9,2.4-0.9,4.5-0.7,6.5
	h-3.1c-1.3-7.4-2.2-15.2-11.3-14.8c-0.6-8.1-4.3-13.1-12.4-13.8c-9.9,9.4-10,20.3-4.3,28.5h-30c-1.9-0.6-3.7-1-5.6-1l0.2,1h-1.9
	l0.3-1c-9.1,0.8-8.1-8.4-11-13.8c-6.8-1.3-9.3,1.7-12.4,4.1c-2.4-4.6-10-1.1-12.4-2.8c-0.6-3.3,2.5-3,1.4-6.9
	c-3.4-3.1-7.8-5-15.1-4.1c-2.3,1-2.2,4.3-2.8,7c-0.3,1.1-0.6,2-1.3,2.7C997,17,993.6,9.8,984.9,8c-2.9,0.8-4.4,2.9-6.9,4.1
	c-2.1-1.6-1.6-5.7-5.5-5.5c-19.2,0.5-39.2-3.2-48.2,13.8c-2.6-0.6-2.5-3.9-6.9-2.8c-5.6,4.5-11.6,8.6-11,19.3c2.3-0.3,3.7,0.3,5,1
	h-12.9v-0.4h-0.7c0.1,0.1,0.2,0.2,0.3,0.4h-2.5h-19.7c-1.7-5.1-3.7-9.5-5.5-12.5c-3.8-1-2.8,2.7-5.5,2.8c-2-5.4-7.9-6.7-11-11
	c-9,1.7-16.7-3.9-23.4,0c-0.2,5.7-0.8,15.4,0,20.8h-25.2c-0.5-3.2-0.6-5.9,1.5-7.9c4.1,10.9,16.6-1.6,12.4-12.4
	c-6-0.5-7.1,3.9-12.4,4.1c-3.6-6-5.6-13.7-16.5-12.4c-0.8,3.7,2.4,13.7,2.8,20.7c-4.6-0.6-9.1,4.9-14.8,7.9h-16.1
	c5.6-6.7,7.7-15.3,0.5-24.4c-11.4,0.8-9.1-12-22-9.6c5.4,12.6-11.3,15-5.5,27.5c-1.9-0.1-3,0.6-4.1,1.4c-1.5-4.8,0.9-8-2.8-13.8
	c-8.1,1.7-13.4,11.2-13.5,18.9h-22.4c-0.7-2.8-2.2-4.8-4-6.5c-10.7-2.8-17.1,5.8-20.7,5.5c1.7-4.8,8.2-4.6,6.9-12.4
	c-8.3-11-21.1-0.4-22.3,13.4h-9.4c-2.2-3.8-3.9-7.8-2.8-10.6c4.1,0,4.7,3.6,8.3,4.1c8.4-4.9,10.5-30.2-5.5-23.4
	c-3.4-6.3-12.6-8.1-19.3-4.1c6.2,7.2-1.5,13.9,6.9,20.7H625c-0.3,4.6,0.1,9.4,1.2,13.4h-0.8c-4.9-14-12.7-24.9-23.8-32.7
	c-15.6,8.6-13.4,23.9-4,32.7h-30.5c-1.5-0.8-2.9-1.7-4-2.8c-0.6-0.7-1.1-1.4-1.8-2.6c-4.2-1.2-3,3.2-5.2,4.1c0-1-0.2-1.6-0.7-2
	c-1.4-1.8-5.5-0.9-7.2-2.4c-0.1-0.2-0.3-0.4-0.3-0.7l-0.3-8.5c-1.5-0.6-2.9-1.4-4.1-2.8c-8.4,3.2-9.7,5.9-21.7,4.2
	c1.4-3.7,0.7-6.5-1.1-8.5c-3.2-3.7-10.3-4.3-15.7-1.2c-1.2,2.4-0.5,6.8-2.7,8.2c-1.6-3.4-3.4-6.6-5.8-9.2c-2.9-3.2-6.6-5.4-12.2-5.8
	c-3,2.5-5.2,5.7-9.5,6.8c-0.6-1.8-1.4-3.1-2.2-3.9c-4.9-5.6-13.2,4.4-20-1.6c-6.8,2.4-11.1,7.2-15.2,12.4c-2.6-0.6-3.5-3-6.9-2.8
	c-5.2,4.9-11.8,8.4-13.5,16.8c1.9,0.7,3.7,1.5,5.3,2.4h-12.2c-1.4-4.2-3.8-7.8-5.8-11.7c14.1-5.6-8.6-24.7-18.9-17.9
	c2.3,4.8,7.2,6.9,11.1,7.9c-5.7,6.1,6.1,13.2-2.2,17.8c1.8-7.3-3.7-13.9-7-21.1c-3.9-1.8-5.2,0.4-8.4-0.3c-2-3.1,0.5-3.4,1.4-6.7
	c-5.9-5.9-20.9-7.7-27.3-4.1c1.5,9.7-5.4,7-8.4,13.8c3.6,3.7-1.3,9.4-5.2,11.6c-7.4-5.4-5.1,0.9-10.5,3.5c-1.8-5.1,4-15.1-2.1-17.3
	c-0.5,1-1.4,1.3-3,0.8c-0.1,6-2.6,9.4-1.9,16.5c-7-2.3-12.7,1.2-15,6.6c0-0.5,0-1.1-0.1-1.7c-3.1-5-8.6,0.5-11-4.1
	c2-10.1,17.7,3.1,16.5-13.8c-2.4-1.2-4-3.3-6.9-4.1c-5.2,3.1-8.2,8.4-13.8,11c-1.9-6.4-8.2-8.4-9.6-15.1h-8.3
	c-2,3.4-3.3,5.4-1.4,9.6c14.8-1,11,13.1,11,17.9c-1.6,0.1-3,0.5-4.2,1h-4c1.9-9.1-3.8-10.7-9.7-12c-3.7,1.8-8.3,6.7-10.2,12h-12.3
	c-0.7-1.8-1.4-3.5-2.3-5.1c10.2,0.9-1.6-9.6,2.8-11c3.8,1.7,2.6,8.5,2.8,13.8c10.1,3.9,11.8-17.3,6.9-24.8
	c-12.1,0.6-17.2-8.4-27.5-4.1c0.7,5.9,5.4,9.2,1.4,19.3c4.1,2.3,12,0.9,12.4,6.9c-3.8-1.7-6.8-3.4-11-1.4c-0.9,2.4-0.9,4.5-0.7,6.5
	h-3.1c-1.3-7.4-2.2-15.2-11.3-14.8c-0.6-8.1-4.3-13.1-12.4-13.8c-9.9,9.4-10,20.3-4.3,28.5h-30c-1.9-0.6-3.7-1-5.6-1l0.2,1h-1.9
	l0.3-1c-9.1,0.8-8.1-8.4-11-13.8c-6.8-1.3-9.3,1.7-12.4,4.1c-2.4-4.6-10-1.1-12.4-2.8c-0.6-3.3,2.5-3,1.4-6.9
	c-3.4-3.1-7.8-5-15.1-4.1c-2.3,1-2.2,4.3-2.8,7c-0.3,1.1-0.6,2-1.3,2.7C101.4,17,98,9.8,89.3,8c-2.9,0.8-4.4,2.9-6.9,4.1
	c-2.1-1.6-1.6-5.7-5.5-5.5C57.7,7.1,37.7,3.4,28.7,20.4c-2.6-0.6-2.5-3.9-6.9-2.8c-5.6,4.5-11.6,8.6-11,19.3c2.3-0.3,3.7,0.3,5,1H0
	v-2.7c6.5,0.3,12-13,5.3-17.6c-2.7,0.9-3.7,3.6-5.3,5.6V0H1920z M172,24.5c-1.6,1.6-1.6,4.9-1.4,8.3C183.5,42.9,189.3,22.9,172,24.5
	z M563.1,27.3c0-4.5-3.9-5.3-8.3-5.5c0,2.7-3.8,1.8-2.8,5.5c1.1,0.3,1.6,1.2,1.4,2.8C559.2,31.7,559.5,27.8,563.1,27.3z M582.3,30
	c-0.5-10.8-16.9-13.1-16.5,0C571.6,33.2,575.7,32.1,582.3,30z M711.8,12.1c-10.1-4.9-14.7,4.7-22,6.9c-3.5-6.6-6.3-13.9-17.9-12.4
	c0.6,3.3-2.5,3-1.4,6.9c4.7,2.2,11.6,2.2,13.8,6.9c-2.3,1.4-1.5,5.8-2.8,8.3c11.6-4.9,17.4,19.1,24.8,2.8c-1.2-4.3-7.9-3.1-11-5.5
	c-0.8-6.7,8.6-3.3,13.8-4.1C710.6,19.2,710.8,15.2,711.8,12.1z M878.6,21.2c-1.9,1.8-1.4,6-1.4,9.6c6.3,3,10.2,1.5,15.1,6.9
	C898.5,26.7,885,24.3,878.6,21.2z M900.9,17.6c-2.7,0.9-3.7,3.6-5.3,5.6v12C902.1,35.6,907.5,22.2,900.9,17.6z M1067.5,24.5
	c-1.6,1.6-1.6,4.9-1.4,8.3C1079.1,42.9,1084.9,22.9,1067.5,24.5z M1458.6,27.3c0-4.5-3.9-5.3-8.3-5.5c0,2.7-3.8,1.8-2.8,5.5
	c1.1,0.3,1.6,1.2,1.4,2.8C1454.7,31.7,1455,27.8,1458.6,27.3z M1477.9,30c-0.5-10.8-16.9-13.1-16.5,0
	C1467.1,33.2,1471.3,32.1,1477.9,30z M1607.3,12.1c-10.1-4.9-14.7,4.7-22,6.9c-3.5-6.6-6.3-13.9-17.9-12.4c0.6,3.3-2.5,3-1.4,6.9
	c4.7,2.2,11.6,2.2,13.8,6.9c-2.3,1.4-1.5,5.8-2.8,8.3c11.6-4.9,17.4,19.1,24.8,2.8c-1.2-4.3-7.9-3.1-11-5.5
	c-0.8-6.7,8.6-3.3,13.8-4.1C1606.1,19.2,1606.3,15.2,1607.3,12.1z M1774.1,21.2c-1.9,1.8-1.4,6-1.4,9.6c6.3,3,10.2,1.5,15.1,6.9
	C1794,26.7,1780.6,24.3,1774.1,21.2z M1252.5,37.9c4.8-2.4,12.8-7.3,12.2-11.7c-8.1,6.3-19.6,6.3-29.2,5.3c0.2,2.9-0.7,5.1-2,6.4
	H1252.5z M1795.2,37.9h3.7C1798.5,37.2,1796.7,37.7,1795.2,37.9z M1282.9,34c-8.4,1-5.3-10.8-9.4-16c-0.5,5.2-7,6.6-4.9,10.3
	C1277.2,23.3,1276.9,44.7,1282.9,34z M1367.4,25.6c-0.3-0.7-0.6-1.2-1-1.7c-6-6-22.4,8.5-29,0.6c-1,4.7-7.1,10.6-7,13.3
	c4.9-5.9,14.3-10.4,23.2-8.1C1352.9,23,1362.3,26.5,1367.4,25.6z M1252.4,18c1,2.5,4.8-2.6,8.1,1.6c0-5.9,3.9-5.8,4.9-10.3
	c-4.4,0.2-1.8-4.2-6.2-4.1C1262,13,1255,13.6,1252.4,18z M1401,37.9h11c1.1-2.6,3.5-4.4,7.7-4c0.8,1.4,1.2,2.7,1.5,4h19.1
	c-0.3-1.7-0.1-3.4,1.2-5.2C1428,31.1,1410.6,26.9,1401,37.9z M1391,25.9c-2.6,0.8-3.8,0.3-4.5-0.6c-0.8-1-1.2-2.5-2.1-3.4
	c-3,4.4-10.9,12.4-16.3,16h24.9c1.2-1.9,2.1-3.6,0.8-5.1c-4,1.9-10.2,3.5-12.9,0.3c-0.5-0.5-0.9-1.1-1.2-1.9
	C1381.8,28.7,1391.1,27.4,1391,25.9z M1397.9,31c3.2-1.6,9.8,0.1,9.5-5.1c-4,0.8-3.9-2.4-8-1.4C1400.5,28.2,1397.7,28.1,1397.9,31z"
	/>
</svg>
